{"glyphs":{"0":{"ha":697,"x_min":72,"x_max":701,"o":"m 701 650 q 572 804 701 804 q 342 688 463 804 q 147 422 222 572 q 72 165 72 272 q 111 37 72 89 q 231 -15 150 -15 q 403 58 313 -15 q 558 235 494 131 q 661 453 621 340 q 701 650 701 567 m 427 144 q 240 13 328 13 q 156 117 156 13 q 196 287 156 176 q 296 506 236 397 q 433 697 356 615 q 574 778 510 778 q 649 683 649 778 q 588 433 649 589 q 477 210 526 276 q 427 144 427 144 "},"1":{"ha":525,"x_min":83,"x_max":592,"o":"m 97 -3 q 169 7 163 3 l 592 782 l 592 789 q 586 790 588 790 q 583 790 585 790 l 540 786 q 463 725 517 783 q 224 526 408 667 l 221 518 l 226 507 l 232 507 q 458 678 346 576 q 279 358 406 585 q 83 8 153 132 l 85 0 l 97 -3 "},"2":{"ha":678,"x_min":1,"x_max":699,"o":"m 613 522 q 699 681 699 622 q 663 769 699 739 q 572 800 628 800 q 396 723 475 800 q 281 544 317 646 l 283 536 l 300 536 l 306 542 q 399 690 336 622 q 532 757 463 757 q 601 696 601 757 q 168 149 601 535 q 138 150 158 153 q 67 77 131 147 q 1 0 3 7 l 19 -11 l 117 65 q 158 47 121 64 q 249 7 194 31 q 333 -17 304 -17 q 553 149 417 -17 l 553 154 l 543 163 q 514 135 538 161 q 456 85 490 108 q 388 61 421 61 q 196 140 354 61 q 255 189 199 143 q 343 262 311 235 q 451 356 375 289 q 569 472 526 422 q 613 522 613 522 "},"3":{"ha":636,"x_min":14,"x_max":675,"o":"m 675 717 q 645 782 675 761 q 569 803 615 803 q 317 650 442 803 l 317 643 l 326 635 l 333 635 q 525 758 443 758 q 579 710 579 758 q 544 614 579 661 q 260 428 472 515 l 254 421 l 256 408 l 265 404 q 370 424 336 424 q 432 401 404 424 q 460 338 460 378 q 348 122 460 228 q 128 15 236 15 q 31 36 75 15 l 24 33 l 14 25 l 14 18 q 141 -15 60 -15 q 318 33 222 -15 q 484 164 414 82 q 554 320 554 246 q 498 424 554 394 q 367 454 442 454 q 675 717 675 565 "},"4":{"ha":644,"x_min":110,"x_max":674,"o":"m 608 490 q 575 483 597 490 q 554 465 561 481 l 464 290 l 163 285 q 204 322 167 289 q 284 394 242 356 q 383 483 326 432 q 489 581 439 533 q 674 781 674 754 l 672 790 l 663 794 q 624 788 647 792 q 592 783 601 785 q 565 773 583 781 q 519 731 547 765 q 214 382 393 561 q 110 264 122 289 l 110 253 l 447 261 q 308 -3 308 14 l 308 -8 l 315 -10 q 363 -1 325 -10 q 406 13 400 7 q 535 265 411 18 l 575 267 l 585 274 l 592 289 l 583 294 l 550 294 q 601 393 560 311 q 643 479 643 475 l 642 488 l 633 492 l 608 490 "},"5":{"ha":618,"x_min":-17,"x_max":704,"o":"m 379 769 q 266 585 365 758 q 157 383 167 411 l 157 375 l 165 372 q 219 403 179 379 q 289 439 260 428 q 355 450 318 450 q 415 427 392 450 q 439 361 439 404 q 319 126 439 244 q 83 8 200 8 q -3 21 31 8 l -8 18 l -17 8 l -17 -1 q 89 -18 7 -18 q 276 37 171 -18 q 456 183 381 92 q 532 365 532 274 q 493 456 532 425 q 393 486 454 486 q 207 424 300 486 l 360 689 l 501 685 q 621 711 561 685 q 704 800 681 738 l 699 803 q 592 774 660 774 q 495 778 524 774 q 441 782 467 782 q 379 769 415 782 "},"6":{"ha":585,"x_min":51,"x_max":601,"o":"m 133 103 q 191 303 133 190 q 326 518 249 417 q 500 710 403 619 q 545 747 510 718 q 588 783 581 775 q 598 796 596 792 q 601 801 600 800 l 592 817 l 583 815 q 247 522 408 693 q 106 326 160 429 q 51 143 51 222 q 92 24 51 64 q 206 -15 132 -15 q 363 45 279 -15 q 501 194 447 106 q 556 358 556 282 q 530 438 556 407 q 457 468 504 468 q 297 383 371 468 q 200 204 222 297 l 203 196 l 217 197 l 222 204 q 336 383 268 319 q 424 425 381 425 q 471 367 471 425 q 434 227 471 310 q 334 81 397 144 q 210 17 271 17 q 153 41 174 17 q 133 103 133 65 "},"7":{"ha":678,"x_min":14,"x_max":803,"o":"m 693 688 q 556 557 646 643 q 14 3 24 44 l 15 -3 l 24 -7 q 121 5 113 1 q 192 88 129 8 q 569 525 376 324 q 800 771 757 722 l 803 781 l 797 789 q 769 775 788 789 q 573 785 693 785 q 407 752 453 785 q 303 604 361 719 l 303 596 l 307 593 q 358 644 326 596 q 401 678 371 663 q 472 693 431 693 l 693 688 "},"8":{"ha":583,"x_min":19,"x_max":640,"o":"m 513 801 q 351 733 422 801 q 279 575 279 665 q 303 464 279 518 q 128 317 218 401 q 47 216 75 267 q 19 110 19 165 q 66 20 19 56 q 178 -15 113 -15 q 369 61 281 -15 q 457 237 457 138 q 431 394 457 336 q 564 525 504 458 q 621 611 601 568 q 640 701 640 654 q 604 774 640 747 q 513 801 568 801 m 590 696 q 539 553 590 626 q 421 424 488 479 q 369 620 369 561 q 413 726 369 679 q 514 774 456 774 q 570 753 550 774 q 590 696 590 732 m 313 77 q 181 14 257 14 q 108 41 133 14 q 83 115 83 68 q 310 438 83 269 q 368 218 368 296 q 340 109 368 140 q 313 77 313 77 "},"9":{"ha":604,"x_min":81,"x_max":608,"o":"m 472 801 q 229 660 356 801 q 103 397 103 518 q 129 319 103 350 q 201 289 156 289 q 355 375 283 289 q 464 558 426 461 l 463 565 l 447 567 l 442 563 q 251 369 361 369 q 182 447 182 369 q 220 585 182 508 q 322 717 258 661 q 449 772 386 772 q 525 676 525 772 q 511 576 525 629 q 86 -10 422 226 l 81 -18 l 88 -31 l 96 -31 q 425 253 264 79 q 558 441 507 340 q 608 622 608 542 q 574 752 608 703 q 472 801 539 801 "}," ":{"ha":360,"x_min":0,"x_max":0,"o":""},"!":{"ha":486,"x_min":165,"x_max":750,"o":"m 697 861 q 625 832 640 861 l 272 160 l 271 150 l 285 149 q 516 489 294 163 q 750 849 738 815 l 747 857 l 740 860 l 697 861 m 257 -3 q 279 28 276 14 q 282 54 282 43 q 269 80 282 65 q 233 94 257 94 q 188 76 210 94 q 165 21 165 58 q 178 -5 165 10 q 214 -19 190 -19 q 247 -11 238 -19 q 257 -3 257 -3 "},"\"":{"ha":442,"x_min":236,"x_max":461,"o":"m 428 913 q 397 900 408 913 q 388 868 386 888 l 399 638 l 413 638 q 438 735 414 642 q 461 872 461 829 q 428 913 461 913 m 278 913 q 247 899 260 913 q 236 867 235 885 l 249 638 l 263 638 q 310 865 310 818 q 278 913 310 913 "},"#":{"ha":1036,"x_min":35,"x_max":999,"o":"m 999 646 l 793 646 l 986 967 l 911 967 l 718 646 l 524 646 l 718 967 l 642 967 l 450 646 l 214 646 l 174 579 l 410 579 l 293 383 l 76 383 l 35 318 l 254 318 l 63 0 l 136 0 l 329 318 l 521 318 l 331 0 l 404 0 l 597 318 l 821 318 l 861 383 l 638 383 l 753 579 l 960 579 l 999 646 m 678 579 l 561 383 l 367 383 l 485 579 l 678 579 "},"$":{"ha":624,"x_min":-93,"x_max":660,"o":"m 557 794 l 603 879 l 558 871 l 519 799 q 269 706 363 799 q 218 582 218 654 q 301 407 218 510 l 94 29 q -56 107 1 47 l -68 107 q -93 74 -92 83 q 78 0 -57 25 l 29 -85 l 76 -76 l 115 -3 q 275 26 196 -3 q 413 119 354 56 q 471 267 471 183 q 378 472 471 350 l 540 767 q 628 683 618 750 q 610 699 625 692 q 577 707 596 707 q 540 690 558 707 q 522 647 522 672 q 540 603 522 621 q 587 585 557 585 q 638 612 617 585 q 660 679 660 639 q 635 753 660 719 q 557 794 610 786 m 506 772 l 356 503 q 340 528 354 506 q 315 571 325 551 q 306 619 306 590 q 363 729 306 685 q 486 774 419 774 l 506 772 m 383 242 q 305 87 383 149 q 131 25 226 25 l 326 378 q 383 242 383 301 "},"%":{"ha":863,"x_min":-46,"x_max":861,"o":"m 376 1017 q 233 948 308 1017 q 115 783 157 879 q 85 657 85 717 q 186 529 85 529 q 304 576 243 529 q 386 542 338 542 q 607 657 472 542 q 386 385 456 471 q -46 -110 153 99 l -44 -117 l 7 -117 l 861 918 q 844 928 858 928 q 824 924 831 928 q 713 804 818 919 q 574 661 608 689 q 389 565 454 565 q 331 600 350 565 q 375 653 351 619 q 481 917 481 797 q 376 1017 481 1017 m 678 446 q 534 378 610 446 q 417 213 458 310 q 386 88 386 146 q 488 -40 386 -40 q 697 110 593 -40 q 783 340 783 235 q 678 446 783 446 m 213 560 q 163 622 163 560 q 211 786 163 685 q 303 923 253 874 q 392 972 354 972 q 408 969 400 972 q 444 907 444 960 q 406 764 444 854 q 354 667 379 701 q 357 686 357 672 q 345 712 357 700 q 315 724 333 724 q 268 664 268 724 q 289 596 265 632 q 213 560 246 560 m 513 -11 q 464 51 464 -11 q 513 217 464 114 q 605 353 554 304 q 694 401 656 401 q 746 340 746 401 q 717 221 746 301 q 658 101 689 140 q 612 44 628 63 q 565 8 596 26 q 513 -11 535 -11 "},"&":{"ha":842,"x_min":14,"x_max":1035,"o":"m 465 553 q 453 615 453 581 q 472 694 453 650 q 571 828 508 774 q 704 910 633 882 q 828 939 775 939 q 907 919 881 939 q 932 872 932 903 q 931 856 932 864 q 913 873 928 865 q 881 881 897 881 q 837 863 856 881 q 818 817 818 844 q 837 770 818 789 q 887 751 856 751 q 943 783 918 751 q 968 854 968 814 q 917 947 968 918 q 794 976 867 976 q 615 944 707 976 q 451 839 522 911 q 380 685 381 767 q 418 549 379 603 q 228 496 313 538 q 32 292 81 424 q 14 183 14 242 q 58 63 14 125 q 363 -62 147 -62 q 532 -32 451 -62 q 664 47 613 -1 q 772 239 772 146 q 719 349 772 306 q 726 349 724 349 q 899 381 815 349 q 1017 465 982 413 q 1035 520 1035 490 q 1015 583 1035 550 q 1005 590 1011 590 q 997 585 999 590 q 1004 565 996 579 q 1013 533 1013 551 q 1001 497 1013 514 q 926 442 978 465 q 749 393 821 393 l 503 393 q 333 360 400 393 q 250 278 267 326 q 243 235 243 261 q 268 169 243 208 q 392 63 304 110 q 403 70 401 57 q 392 92 406 83 q 299 200 299 140 q 351 296 299 260 q 441 333 396 326 q 515 339 486 339 q 584 334 543 339 q 662 301 625 329 q 699 229 699 272 q 599 47 699 139 q 363 -44 499 -44 q 164 89 210 -44 q 149 185 149 136 q 200 364 149 272 q 436 529 281 506 q 576 468 497 468 q 639 489 622 468 q 646 508 646 497 q 636 531 646 519 q 558 556 617 556 l 465 553 m 622 510 q 566 492 622 492 q 476 533 510 492 q 519 535 499 535 q 622 510 622 535 "},"'":{"ha":219,"x_min":107,"x_max":261,"o":"m 107 542 q 113 538 107 538 q 122 539 118 538 q 219 598 176 557 q 261 700 261 639 q 247 753 261 731 q 206 776 232 776 q 161 760 181 776 q 139 728 142 743 q 136 703 136 714 q 149 676 136 692 q 183 661 161 661 q 225 675 204 661 q 190 600 219 631 q 118 554 160 569 q 107 542 107 550 "},"(":{"ha":486,"x_min":33,"x_max":722,"o":"m 689 1049 q 465 950 575 1019 q 273 795 354 881 q 135 619 192 710 q 57 450 78 528 q 35 283 35 353 q 44 165 35 214 q 140 -20 69 43 q 283 -83 210 -83 q 356 -61 357 -83 q 335 -51 354 -49 q 303 -53 315 -53 q 203 -18 244 -53 q 115 235 115 56 q 272 704 115 472 q 377 834 319 775 q 517 944 435 893 q 689 1019 599 996 q 721 1043 719 1029 q 711 1051 721 1051 q 689 1049 701 1051 "},")":{"ha":719,"x_min":18,"x_max":707,"o":"m 51 -71 q 343 74 203 -32 q 569 301 483 181 q 683 528 656 422 q 706 694 706 625 q 696 813 706 764 q 601 998 671 935 q 457 1061 531 1061 q 385 1039 383 1061 q 406 1028 388 1026 q 436 1031 425 1031 q 538 994 494 1031 q 625 743 625 922 q 422 210 625 479 q 261 56 358 125 q 53 -42 164 -12 q 19 -65 19 -50 q 29 -74 19 -74 q 51 -71 39 -74 "},"*":{"ha":599,"x_min":21,"x_max":567,"o":"m 22 513 q 30 490 22 503 q 50 478 38 478 l 233 485 l 94 344 q 84 313 78 325 q 108 295 90 300 q 135 300 125 290 l 286 465 l 356 310 q 380 292 367 292 q 406 314 393 292 q 408 343 414 332 q 335 489 374 410 l 518 496 l 532 497 q 567 526 567 506 q 544 540 567 540 l 356 540 l 474 668 q 494 703 494 690 q 492 721 494 715 q 464 718 485 739 l 303 556 l 221 715 q 186 746 206 746 q 179 744 183 746 q 174 714 161 740 q 253 540 214 629 l 51 540 q 22 513 22 540 "},"+":{"ha":636,"x_min":188,"x_max":665,"o":"m 221 336 q 189 296 193 332 q 204 269 189 268 q 295 275 224 271 q 400 282 367 279 q 351 88 351 96 q 371 71 351 71 q 386 72 378 71 q 419 94 417 79 q 439 217 421 114 q 451 285 447 260 q 636 293 571 293 q 665 311 665 293 q 660 324 665 317 q 640 331 656 331 l 549 331 q 460 332 486 331 q 501 538 494 513 q 492 563 507 563 q 460 525 471 563 q 428 392 451 490 q 414 332 418 349 l 221 336 "},",":{"ha":213,"x_min":-1,"x_max":158,"o":"m 158 28 q 142 76 158 57 q 100 94 126 94 q 53 78 74 94 q 31 38 33 61 q 40 -3 26 14 q 76 -19 54 -19 q 117 -6 99 -19 q 82 -81 111 -50 q 11 -126 53 -112 q 0 -137 0 -131 q 4 -144 0 -144 q 14 -142 8 -144 q 113 -79 68 -124 q 158 28 158 -35 "},"-":{"ha":564,"x_min":204,"x_max":563,"o":"m 204 307 q 211 283 204 296 q 226 269 218 269 q 328 281 226 269 q 539 293 431 293 q 563 313 560 296 q 533 331 557 329 q 228 336 318 336 q 204 307 204 336 "},".":{"ha":289,"x_min":142,"x_max":258,"o":"m 233 -3 q 256 28 253 14 q 258 54 258 43 q 246 80 258 65 q 210 94 233 94 q 164 76 186 94 q 142 21 142 58 q 154 -5 142 10 q 190 -19 167 -19 q 224 -11 214 -19 q 233 -3 233 -3 "},"/":{"ha":761,"x_min":22,"x_max":1049,"o":"m 322 221 q 738 725 508 439 q 1039 1094 967 1011 q 1049 1114 1049 1104 q 1017 1133 1049 1133 q 969 1111 986 1133 q 807 906 911 1039 q 640 694 703 772 q 488 503 576 615 q 340 319 399 390 q 217 172 281 247 q 110 49 154 97 q 44 -17 67 1 q 22 -47 22 -36 q 33 -57 22 -57 q 322 221 85 -57 "},":":{"ha":356,"x_min":85,"x_max":354,"o":"m 329 308 q 351 340 349 325 q 354 365 354 354 q 342 391 354 376 q 306 406 329 406 q 262 389 282 406 q 239 349 242 372 q 249 308 235 325 q 286 292 263 292 q 319 300 310 292 q 329 308 329 308 m 179 -1 q 201 54 201 17 q 189 80 201 65 q 153 94 176 94 q 110 78 129 94 q 88 47 90 61 q 85 21 85 32 q 97 -5 85 10 q 133 -19 110 -19 q 168 -10 157 -19 q 179 -1 179 -1 "},";":{"ha":354,"x_min":56,"x_max":354,"o":"m 329 308 q 351 340 349 325 q 354 365 354 354 q 342 391 354 376 q 306 406 329 406 q 262 389 282 406 q 239 349 242 372 q 249 308 235 325 q 286 292 263 292 q 319 300 310 292 q 329 308 329 308 m 210 19 q 195 72 210 50 q 155 94 181 94 q 110 78 129 94 q 86 38 90 61 q 96 -3 82 14 q 131 -19 110 -19 q 174 -6 153 -19 q 138 -81 168 -50 q 67 -126 108 -112 q 56 -137 56 -131 q 60 -144 56 -144 q 71 -142 65 -144 q 167 -83 125 -124 q 210 19 210 -43 "},"<":{"ha":457,"x_min":156,"x_max":463,"o":"m 463 413 l 461 422 l 451 426 q 238 300 436 426 q 156 249 161 251 q 175 155 161 226 q 208 33 189 83 q 219 29 213 29 l 229 33 l 236 47 l 238 236 q 303 281 240 239 q 463 413 440 375 "},"=":{"ha":636,"x_min":204,"x_max":568,"o":"m 568 447 q 432 475 568 475 l 228 475 q 204 449 204 475 q 235 408 204 408 q 339 422 253 408 q 544 432 400 432 q 568 447 568 432 m 568 308 q 432 336 568 336 l 228 336 q 204 310 204 336 q 235 269 204 269 q 339 283 253 269 q 544 293 400 293 q 568 308 568 293 "},">":{"ha":457,"x_min":38,"x_max":344,"o":"m 344 208 q 328 297 340 229 q 294 421 315 365 l 282 426 l 271 421 q 267 415 269 419 q 264 408 265 410 l 263 219 l 249 210 q 215 187 235 200 q 172 156 196 174 q 124 119 147 138 q 69 76 101 101 q 38 38 38 51 l 39 32 q 50 29 44 29 l 60 31 l 344 208 "},"?":{"ha":531,"x_min":165,"x_max":681,"o":"m 531 651 q 453 556 521 639 q 360 440 385 474 q 299 343 335 406 q 251 232 263 281 q 260 214 249 218 q 278 222 272 210 q 356 368 310 307 q 479 505 401 429 q 589 617 557 581 q 681 799 681 721 q 671 839 681 821 q 550 901 635 901 q 386 849 476 901 q 297 765 317 808 q 288 718 288 738 q 294 685 288 699 q 357 646 310 646 q 418 669 388 646 q 449 728 449 693 q 425 775 449 763 q 400 781 415 781 q 361 769 385 781 q 313 719 319 746 q 313 726 313 722 q 335 773 313 747 q 393 817 357 799 q 453 837 429 835 q 494 839 476 839 q 533 831 513 839 q 581 767 581 808 q 531 651 581 715 m 257 -3 q 279 28 276 14 q 282 54 282 43 q 269 80 282 65 q 233 94 257 94 q 188 76 210 94 q 165 21 165 58 q 178 -5 165 10 q 214 -19 190 -19 q 247 -11 238 -19 q 257 -3 257 -3 "},"@":{"ha":1328,"x_min":103,"x_max":1311,"o":"m 468 161 q 536 358 468 246 q 655 517 592 449 q 775 617 718 586 q 842 636 808 636 q 925 574 907 636 q 953 587 946 569 q 943 624 960 604 q 806 679 886 679 q 742 671 775 679 q 538 543 619 642 q 390 199 390 367 q 446 67 390 101 q 492 53 467 53 q 608 115 543 53 q 733 278 672 178 q 718 178 718 222 q 740 108 718 135 q 833 63 779 63 q 843 63 839 63 q 963 85 894 63 q 1068 136 1031 107 q 1245 344 1181 226 q 1310 574 1310 463 q 1258 764 1310 686 q 1150 867 1217 829 q 851 943 1019 943 q 568 883 708 943 q 322 722 428 822 q 160 494 215 622 q 104 244 104 367 q 194 -33 104 76 q 626 -206 338 -206 q 1081 -60 861 -206 q 1088 -39 1097 -53 q 1065 -37 1078 -25 q 636 -175 861 -175 q 422 -139 521 -175 q 247 -12 324 -103 q 171 235 171 78 q 257 550 171 392 q 506 811 343 708 q 854 914 669 914 q 1040 885 957 914 q 1189 781 1124 857 q 1254 574 1254 706 q 1204 353 1254 468 q 1063 165 1154 239 q 885 92 972 92 q 814 167 814 92 q 890 388 814 242 q 981 529 949 499 q 938 532 965 526 q 900 538 911 538 q 843 513 865 538 q 762 376 821 489 q 632 179 703 264 q 514 103 565 103 q 468 161 468 103 "},"A":{"ha":989,"x_min":25,"x_max":1194,"o":"m 922 618 q 834 525 883 618 q 683 310 785 432 q 476 99 582 188 q 215 -24 328 -24 q 99 92 115 -24 q 97 119 97 104 q 150 323 97 192 q 343 653 203 454 q 648 614 464 614 q 965 661 832 614 q 1100 733 1053 692 q 1194 897 1194 813 q 1130 1024 1194 975 q 956 1074 1065 1074 q 278 711 604 1074 q 160 793 200 747 q 119 876 119 839 q 127 911 119 893 q 126 942 135 929 q 101 935 115 953 q 81 868 81 921 q 114 778 81 815 q 253 682 160 726 q 131 506 186 606 q 25 155 25 317 q 125 -49 25 -7 q 180 -65 157 -65 q 213 -64 203 -65 q 397 -3 314 -54 q 696 267 556 99 q 658 176 672 235 q 643 58 643 118 q 671 -45 643 -1 q 753 -89 699 -89 q 864 -55 808 -89 q 957 31 919 -21 q 1086 253 1029 126 q 1085 278 1096 275 q 1063 258 1074 281 q 942 61 1021 163 q 786 -47 853 -47 q 747 -25 764 -47 q 729 46 729 -3 q 807 326 729 171 q 919 497 858 429 q 954 578 954 535 q 922 618 954 618 m 1138 914 q 1036 739 1138 810 q 621 647 906 647 q 365 681 469 647 q 490 817 432 760 q 622 928 547 874 q 781 1010 696 982 q 953 1038 867 1038 q 1088 1006 1039 1038 q 1138 914 1138 974 "},"B":{"ha":1446,"x_min":13,"x_max":1513,"o":"m 1442 267 q 1333 456 1442 385 q 1168 533 1257 506 q 1350 573 1260 538 q 1481 678 1440 608 q 1511 783 1511 731 q 1467 885 1511 835 q 1194 1024 1383 975 q 1226 1054 1200 1038 q 1256 1080 1251 1071 q 1253 1089 1261 1089 q 1247 1090 1251 1090 q 1213 1079 1242 1090 q 1144 1035 1183 1068 q 863 1065 1001 1065 q 597 1047 725 1065 q 197 857 333 1010 q 113 668 113 764 q 260 476 113 528 l 332 464 q 446 494 389 464 q 554 649 539 547 l 554 650 q 539 669 553 668 q 525 655 525 669 q 510 611 525 640 q 463 551 496 582 q 396 510 431 519 q 335 500 361 500 q 274 510 308 500 q 175 642 175 540 q 246 803 175 718 q 579 989 363 943 q 869 1024 738 1024 q 1111 1004 1001 1024 l 1032 914 q 876 701 953 826 q 751 474 800 576 q 636 266 701 372 q 510 100 571 160 q 407 154 476 117 q 290 208 338 192 q 185 225 243 225 q 46 169 96 225 q 14 101 14 133 q 24 46 14 69 q 247 -54 67 -54 q 538 47 400 -54 q 907 -49 689 -21 q 975 -53 940 -53 q 1169 -21 1069 -53 q 1385 119 1304 22 q 1442 267 1442 188 m 956 -14 q 906 -11 932 -14 q 568 72 725 7 l 621 122 q 914 560 724 233 q 1178 989 1104 888 q 1422 801 1422 932 q 1360 671 1422 740 q 1266 601 1321 628 q 1172 573 1211 574 q 1079 576 1133 572 q 999 581 1025 581 q 958 553 958 579 q 1003 526 964 540 q 1108 492 1043 513 q 1217 451 1172 472 q 1338 279 1338 393 q 1219 75 1338 169 q 956 -14 1111 -14 m 479 74 q 235 -11 367 -11 q 107 51 138 -11 q 96 98 96 74 q 121 152 96 122 q 188 182 146 182 q 274 167 231 182 q 479 74 317 151 "},"C":{"ha":986,"x_min":83,"x_max":1183,"o":"m 526 -140 q 863 -32 707 -140 q 985 85 940 22 q 1083 254 1031 147 q 1084 281 1093 275 q 1067 268 1075 286 q 967 98 1014 160 q 839 -12 921 36 q 510 -93 703 -93 q 369 -69 450 -93 q 239 17 288 -44 q 181 156 190 79 q 175 239 175 199 q 181 339 175 279 q 222 510 186 399 q 290 668 257 621 q 635 432 386 468 q 733 425 685 425 q 943 467 847 425 q 1153 664 1092 531 q 1182 793 1182 731 q 1151 914 1182 856 q 863 1078 1076 1054 q 788 1082 824 1082 q 546 1032 661 1082 q 285 824 396 967 q 267 984 267 921 q 272 1081 267 1047 q 264 1115 278 1115 q 255 1110 261 1115 q 246 1094 249 1106 q 228 948 228 1026 q 251 776 228 869 q 151 607 193 703 q 96 429 108 511 q 83 297 83 347 q 89 206 83 247 q 160 26 101 108 q 319 -98 219 -56 q 526 -140 418 -140 m 318 713 q 574 961 424 874 q 811 1029 693 1029 q 1010 978 929 1029 q 1118 783 1118 908 q 1012 560 1118 658 q 729 461 906 461 q 318 713 417 461 "},"D":{"ha":1408,"x_min":3,"x_max":1425,"o":"m 521 50 q 928 -47 689 -47 q 1167 -4 1046 -47 q 1339 119 1268 32 q 1425 407 1425 226 q 1363 676 1425 553 q 1136 929 1285 831 q 1197 1022 1160 972 q 1258 1072 1235 1072 q 1267 1076 1264 1072 q 1268 1085 1271 1079 q 1250 1092 1265 1092 q 1176 1059 1222 1092 q 1076 964 1131 1026 q 708 1056 901 1056 q 588 1047 649 1056 q 154 838 276 1001 q 97 686 97 763 q 111 611 97 649 q 250 476 144 513 l 322 464 q 436 494 379 464 q 543 649 529 547 q 531 670 546 667 q 515 661 517 674 q 450 547 511 608 q 385 508 418 517 q 326 500 353 500 q 264 510 300 500 q 163 647 163 542 q 232 811 163 725 q 560 999 344 953 q 707 1014 635 1014 q 1038 921 882 1014 q 892 718 965 840 q 769 492 819 596 q 649 278 718 389 q 510 100 579 167 q 295 203 356 182 q 175 225 235 225 q 36 168 86 225 q 4 101 4 132 q 14 46 4 69 q 235 -54 56 -54 q 521 50 392 -54 m 554 75 q 629 149 583 100 q 754 317 675 199 q 948 624 833 435 q 1103 876 1063 814 q 1288 638 1225 781 q 1338 397 1338 525 q 1233 117 1338 218 q 883 -8 1103 -8 q 554 75 694 -8 m 474 72 q 225 -11 358 -11 q 106 49 135 -11 q 94 95 94 71 q 119 150 94 119 q 184 181 143 181 q 268 165 225 181 q 474 72 311 150 "},"E":{"ha":1132,"x_min":28,"x_max":1208,"o":"m 683 521 q 743 553 743 521 q 636 611 743 589 q 542 638 589 622 q 472 688 496 654 q 447 761 447 721 q 553 949 447 863 q 747 1052 642 1021 q 951 1083 853 1083 q 1092 1044 1050 1083 q 1125 981 1125 1015 q 1125 972 1125 976 q 1036 825 1114 882 q 956 792 997 797 q 908 771 914 788 q 923 763 907 763 q 964 768 939 763 q 1137 848 1065 790 q 1208 968 1208 906 q 1158 1056 1208 1013 q 993 1114 1108 1100 q 936 1117 965 1117 q 715 1083 843 1117 q 471 959 588 1049 q 344 757 354 869 q 344 749 344 753 q 393 653 344 697 q 511 583 442 608 q 360 556 444 581 q 203 482 276 532 q 90 374 129 432 q 40 270 51 315 q 29 194 29 225 q 42 131 29 164 q 246 -49 89 0 q 478 -76 335 -76 q 785 -26 621 -76 q 1056 108 949 24 q 1164 271 1164 193 q 1101 357 1164 324 q 1063 367 1086 365 q 1042 356 1039 368 q 1076 338 1043 346 q 1110 299 1110 331 q 996 143 1110 232 q 750 10 896 65 q 473 -46 604 -46 q 265 -11 342 -46 q 158 77 188 24 q 128 194 128 131 q 249 433 128 331 q 535 522 351 522 l 683 521 "},"F":{"ha":1456,"x_min":71,"x_max":1928,"o":"m 1393 847 q 1301 703 1367 817 q 1192 483 1235 589 q 1044 496 1099 496 q 933 467 989 496 q 847 371 878 438 q 849 351 842 358 q 869 358 857 343 q 1083 433 921 433 l 1172 432 q 908 40 1068 192 q 731 -76 826 -37 q 538 -115 635 -115 q 356 -83 440 -115 q 119 133 176 -14 q 99 233 99 188 q 106 314 99 279 q 213 475 122 410 q 260 513 258 507 q 232 509 263 518 q 156 460 201 500 q 94 367 111 419 q 71 215 71 286 q 250 -106 71 6 q 538 -181 368 -181 q 844 -106 707 -181 q 960 -22 906 -74 q 1050 78 1014 31 q 1222 428 1136 192 q 1329 422 1263 422 q 1536 453 1538 422 q 1495 462 1535 464 q 1388 460 1456 460 q 1239 471 1319 460 q 1269 547 1243 481 q 1424 829 1351 747 l 1463 810 q 1536 775 1499 792 q 1633 739 1574 758 q 1731 713 1693 719 q 1800 707 1768 707 q 1868 725 1832 707 q 1926 811 1926 754 q 1926 822 1926 818 q 1917 827 1925 832 q 1900 801 1910 822 q 1821 756 1882 763 q 1772 754 1804 754 q 1686 767 1740 754 q 1444 854 1547 803 q 1507 885 1476 885 q 1528 881 1517 885 q 1543 869 1536 871 q 1553 883 1554 868 q 1500 918 1551 918 q 1411 871 1454 918 q 1039 1032 1244 976 q 876 1056 957 1056 q 599 954 713 1056 q 485 729 485 853 q 574 576 485 626 q 669 547 621 547 q 764 563 718 547 q 900 697 871 599 q 904 717 904 708 q 891 722 904 731 q 878 692 878 714 q 833 633 878 669 q 725 582 789 597 q 689 578 707 578 q 586 608 640 578 q 546 689 546 633 q 656 889 546 796 q 942 986 771 986 q 1393 847 1113 986 "},"G":{"ha":971,"x_min":-68,"x_max":1106,"o":"m 219 642 q 588 546 363 546 q 797 575 694 546 q 1069 764 992 629 q 1104 881 1104 826 q 1079 983 1104 936 q 838 1131 1017 1103 q 763 1136 800 1136 q 481 1061 626 1136 q 186 789 294 967 q 156 735 164 753 q 83 917 83 819 q 146 1085 83 1001 q 152 1109 160 1104 q 128 1096 144 1114 q 42 894 42 1000 q 133 693 42 788 q 63 404 63 539 q 122 172 63 269 q 267 50 178 81 q 380 32 315 32 q 544 64 444 32 q 691 133 607 83 q 842 246 775 182 l 836 222 q 696 -119 799 54 q 395 -142 529 -122 q 140 -215 261 -161 q -57 -369 -19 -286 q -67 -408 -67 -390 q 35 -507 -67 -469 q 121 -519 69 -519 q 246 -500 172 -519 q 520 -372 379 -465 q 746 -156 661 -278 q 782 -156 765 -156 q 1058 -181 963 -156 q 1099 -175 1099 -190 q 1069 -156 1099 -162 q 765 -119 932 -121 q 894 124 849 18 q 954 339 940 231 q 951 369 957 356 q 908 406 940 406 q 789 276 844 406 q 689 175 768 228 q 510 96 610 122 q 410 83 460 83 q 314 96 361 83 q 153 383 153 149 q 219 642 153 497 m 794 1093 q 900 1076 847 1093 q 1043 904 1043 1032 q 968 743 1043 824 q 525 586 818 586 q 388 607 474 586 q 238 678 303 628 q 542 1013 346 896 q 794 1093 675 1093 m 4 -418 q 117 -294 4 -367 q 418 -179 260 -203 q 674 -157 528 -161 q 369 -406 561 -318 q 119 -476 218 -476 q 71 -471 93 -476 q 4 -418 4 -457 "},"H":{"ha":1918,"x_min":6,"x_max":2135,"o":"m 1842 724 q 1747 493 1775 574 q 1545 505 1710 493 q 1276 517 1381 517 q 1349 712 1281 526 q 1456 969 1418 897 q 1563 999 1506 969 q 1619 1072 1619 1028 q 1568 1115 1619 1115 q 1533 1109 1556 1115 q 1480 1065 1511 1103 q 1433 1000 1449 1026 q 1310 992 1393 996 q 1167 982 1226 988 q 1028 965 1108 976 q 890 932 949 954 q 774 876 832 910 q 676 786 715 842 q 624 677 638 731 q 611 582 611 624 q 633 494 611 540 q 742 386 668 418 q 819 369 781 369 q 897 383 858 369 q 1025 499 978 413 q 1053 589 1053 547 q 1036 667 1053 631 q 1019 678 1029 679 q 1015 662 1006 675 q 1024 623 1024 649 q 1000 533 1024 597 q 832 397 950 397 q 736 444 772 397 q 700 542 700 492 q 714 636 700 592 q 826 819 747 744 q 909 874 860 850 q 999 910 958 897 q 1100 933 1039 924 q 1203 947 1161 943 q 1311 957 1244 951 q 1414 967 1378 963 q 1211 517 1300 739 l 1157 517 q 1099 492 1132 514 q 1065 447 1065 471 q 1077 439 1067 439 q 1122 455 1088 439 q 1192 471 1156 471 q 529 -139 1000 -33 q 422 -150 479 -150 q 194 -101 292 -150 q 33 147 33 -19 q 92 335 33 254 q 178 414 136 396 q 190 422 185 417 q 192 430 194 426 q 175 433 189 433 q 80 376 138 432 q 6 257 22 321 q 8 29 -26 132 q 122 -134 42 -74 q 293 -216 203 -194 q 457 -237 383 -237 q 790 -150 632 -237 q 997 15 908 -83 q 1264 468 1179 215 q 1735 450 1675 450 q 1715 397 1733 446 q 1688 320 1697 349 q 1663 237 1679 292 q 1643 145 1647 182 q 1638 85 1639 108 q 1638 42 1638 63 q 1650 -4 1638 21 q 1739 -57 1675 -57 q 1853 -3 1796 -57 q 1930 92 1896 40 q 2015 253 1964 143 q 2016 282 2026 278 q 1994 263 2006 286 q 1821 11 1900 69 q 1778 -6 1797 -6 q 1741 14 1758 -6 q 1724 82 1724 33 q 1793 383 1724 168 q 1815 450 1814 447 q 1950 488 1904 456 q 1963 506 1968 500 q 1935 503 1958 511 q 1828 494 1913 494 q 1944 774 1878 642 q 2055 969 2011 906 q 2117 1042 2099 1033 q 2135 1056 2135 1051 q 2119 1060 2135 1060 q 2058 1044 2103 1060 q 1961 951 2013 1028 q 1876 799 1910 874 q 1842 724 1842 724 m 1550 1072 q 1554 1071 1553 1072 q 1569 1053 1568 1068 q 1481 1004 1571 1018 q 1550 1072 1533 1072 "},"I":{"ha":1267,"x_min":-26,"x_max":1661,"o":"m 1554 1021 q 1628 1054 1597 1035 q 1661 1118 1661 1076 q 1614 1157 1660 1157 q 1576 1149 1599 1157 q 1520 1103 1553 1142 q 1475 1038 1488 1064 q 683 560 763 917 q 678 506 678 531 q 736 378 678 424 q 845 332 794 332 q 940 349 896 332 q 1076 471 1029 382 q 1103 560 1103 519 q 1085 636 1103 601 q 1058 636 1072 657 q 1056 624 1053 628 q 1067 575 1067 614 q 1022 440 1067 497 q 948 385 990 401 q 869 368 906 368 q 800 404 832 368 q 768 499 768 440 q 776 560 768 526 q 894 769 803 676 q 1101 900 968 842 q 1453 1001 1232 956 q 1244 553 1342 810 q 1081 244 1189 401 q 942 77 1017 153 q 761 -64 867 1 q 540 -158 656 -129 q 451 -173 485 -172 q 385 -174 417 -174 q 292 -160 353 -174 q 79 -46 154 -129 q 19 114 19 21 q 101 333 19 236 q 197 415 154 397 q 213 431 217 425 q 196 435 210 435 q 94 374 158 432 q 2 242 31 317 q -26 114 -26 168 q -17 25 -26 60 q 90 -131 10 -71 q 408 -217 208 -217 q 1115 138 839 -217 q 1244 351 1190 235 q 1325 561 1299 467 q 1496 1008 1401 833 l 1554 1021 m 1519 1043 q 1591 1113 1575 1113 q 1610 1096 1607 1113 q 1519 1043 1614 1063 "},"J":{"ha":1342,"x_min":-89,"x_max":1764,"o":"m 1651 981 q 1733 1017 1704 997 q 1764 1075 1763 1038 q 1715 1117 1764 1117 q 1679 1110 1701 1117 q 1624 1065 1657 1103 q 1574 1000 1590 1028 q 1208 908 1376 974 q 1022 817 1104 868 q 878 686 939 765 q 797 471 797 583 q 861 329 797 382 q 974 289 911 289 q 1053 303 1011 289 q 1194 422 1143 335 q 1225 516 1225 475 q 1211 588 1225 557 q 1179 597 1194 606 q 1182 576 1165 588 q 1192 532 1192 565 q 1139 392 1192 453 q 1064 339 1106 354 q 988 324 1022 324 q 922 360 953 324 q 890 461 890 396 q 983 688 890 582 q 1157 825 1056 771 q 1550 964 1357 932 q 1328 542 1438 786 q 1157 178 1240 336 q 1060 11 1106 81 q 947 -143 1014 -58 q 811 -285 879 -228 q 655 -392 743 -343 q 472 -461 567 -440 q 374 -472 429 -472 q 224 -454 318 -472 q 104 -408 160 -442 q 11 -333 49 -375 q -43 -169 -43 -271 q -26 -74 -43 -136 q 46 49 -8 -12 q 144 128 100 110 q 163 142 161 136 q 146 147 163 149 q 42 90 108 146 q -51 -29 -25 35 q -89 -196 -89 -125 q -64 -319 -89 -267 q 142 -483 -8 -433 q 328 -515 238 -515 q 489 -506 418 -515 q 830 -372 643 -485 q 1129 -83 1017 -258 q 1281 201 1213 47 q 1386 472 1349 354 q 1592 969 1485 785 l 1651 981 m 1694 1072 q 1711 1056 1708 1072 q 1617 1004 1713 1021 q 1628 1016 1619 1007 q 1641 1030 1636 1025 q 1653 1043 1646 1035 q 1667 1056 1661 1051 q 1678 1065 1672 1060 q 1688 1071 1685 1069 q 1694 1072 1692 1072 "},"K":{"ha":1589,"x_min":-10,"x_max":2263,"o":"m 1247 211 q 1453 -183 1300 -58 q 1639 -256 1540 -256 q 1831 -197 1738 -256 q 1963 -61 1925 -137 q 1965 -31 1978 -31 q 1944 -50 1953 -31 q 1827 -158 1908 -121 q 1657 -196 1746 -196 q 1408 21 1503 -196 q 1352 181 1376 94 q 1325 299 1328 268 q 1322 342 1322 329 q 1325 360 1322 356 q 1806 640 1518 408 q 2251 1133 2093 871 q 2261 1160 2261 1150 q 2256 1174 2261 1169 q 2247 1178 2251 1178 q 2217 1151 2235 1178 q 1959 847 2115 997 q 1659 599 1803 696 q 1403 446 1515 503 q 1249 389 1290 389 q 1244 389 1246 389 q 1233 352 1233 385 q 1236 289 1233 319 q 1247 211 1239 258 m 1433 1000 q 1310 991 1407 997 q 1139 976 1214 985 q 761 853 892 950 q 619 599 619 750 q 694 425 619 492 q 819 375 750 375 q 906 392 860 375 q 1022 507 981 419 q 1049 598 1049 558 q 1036 667 1049 638 q 1017 685 1028 682 q 1013 669 1010 685 q 1015 617 1015 654 q 993 522 1015 579 q 833 404 947 404 q 713 497 743 404 q 701 568 701 532 q 740 708 701 636 q 1011 911 821 858 q 1294 956 1113 940 q 1414 967 1393 964 q 1256 625 1346 829 q 1130 354 1165 421 q 1033 199 1094 288 q 903 48 971 111 q 737 -72 836 -15 q 524 -154 638 -128 q 433 -165 485 -165 q 303 -150 382 -165 q 103 -39 188 -128 q 33 146 33 32 q 94 332 33 257 q 175 404 142 389 q 183 415 183 408 q 165 424 183 426 q 77 372 131 419 q 8 263 24 324 q -8 144 -8 201 q 14 28 -8 86 q 342 -222 88 -164 q 470 -237 411 -237 q 578 -231 529 -237 q 847 -134 728 -208 q 1038 38 965 -60 q 1173 265 1110 135 q 1274 510 1236 394 q 1456 969 1376 826 q 1596 1019 1551 979 q 1622 1061 1622 1043 q 1611 1097 1622 1079 q 1578 1115 1600 1115 q 1534 1109 1557 1115 q 1480 1065 1511 1103 q 1433 1000 1449 1026 m 1579 1061 q 1542 1021 1579 1039 q 1481 1004 1521 1010 q 1535 1063 1519 1050 q 1567 1076 1551 1076 q 1579 1061 1579 1076 "},"L":{"ha":989,"x_min":-8,"x_max":1331,"o":"m 1331 1056 q 1329 1088 1331 1071 q 1288 1153 1326 1126 q 1208 1181 1250 1181 q 1121 1163 1165 1181 q 829 776 951 1090 l 711 479 q 635 475 676 475 q 540 490 594 475 q 453 544 485 506 q 411 618 421 582 q 401 680 401 654 q 410 733 401 706 q 533 908 444 851 q 644 949 585 942 q 676 957 663 951 q 688 969 690 963 q 672 976 685 976 q 642 972 660 976 q 453 894 528 946 q 358 793 379 843 q 336 700 336 743 q 394 553 336 618 q 514 474 439 503 q 676 444 589 444 q 692 444 683 444 q 546 176 608 274 q 415 188 488 188 q 96 118 214 188 q -8 -21 -8 58 q 71 -139 -8 -100 q 176 -162 117 -162 q 311 -125 235 -162 q 557 101 439 -64 q 741 62 672 79 q 903 3 810 44 q 1050 -84 997 -37 q 1122 -186 1103 -131 q 1142 -287 1142 -242 q 1126 -367 1142 -333 q 1110 -408 1110 -401 q 1118 -415 1110 -415 q 1146 -406 1126 -415 q 1180 -370 1165 -396 q 1194 -307 1194 -344 q 1178 -217 1194 -269 q 1054 -43 1146 -114 q 599 164 874 96 l 628 211 q 750 450 665 279 q 1035 573 897 475 q 1252 803 1174 671 q 1331 1056 1331 935 m 1272 1054 q 1117 699 1272 868 q 769 488 963 531 q 899 745 826 606 q 1051 983 972 885 q 1224 1107 1153 1107 q 1272 1054 1272 1107 m 503 110 q 289 -86 404 -31 q 147 -122 213 -122 q 60 -99 100 -122 q 21 -40 21 -76 q 26 -14 21 -28 q 214 104 54 63 q 363 125 290 125 q 503 110 435 125 "},"M":{"ha":1846,"x_min":24,"x_max":2019,"o":"m 599 497 q 550 354 599 436 q 304 192 454 192 q 219 213 261 192 q 100 449 100 269 q 136 618 100 511 q 199 739 157 676 q 465 999 304 897 q 731 1100 625 1100 q 894 901 894 1100 q 753 371 894 735 q 550 -58 642 83 q 549 -68 549 -64 q 586 -90 551 -90 q 664 -50 646 -90 q 674 -26 668 -39 q 684 -6 681 -14 q 745 130 688 3 q 847 347 803 257 q 972 570 890 438 q 1165 840 1054 703 q 1315 943 1247 943 q 1355 922 1336 943 q 1374 866 1374 901 q 1371 807 1374 831 q 1281 404 1347 600 q 1220 249 1253 325 q 1164 128 1188 172 q 1118 43 1140 83 q 1092 -3 1096 3 q 1092 -21 1088 -10 q 1136 -47 1099 -47 q 1221 28 1189 -47 q 1390 324 1257 114 q 1592 619 1524 535 q 1718 761 1660 703 q 1886 872 1832 872 q 1925 826 1925 872 q 1888 693 1925 781 q 1747 378 1781 458 q 1697 234 1726 328 q 1667 67 1667 140 q 1886 -158 1667 -136 q 1905 -160 1893 -160 q 1928 -154 1917 -160 q 1938 -142 1940 -149 q 1919 -135 1936 -135 q 1896 -136 1901 -136 q 1764 -50 1789 -136 q 1751 58 1751 -7 q 1808 301 1751 124 q 1964 664 1850 436 q 2019 846 2019 775 q 2014 888 2019 869 q 1946 940 1999 940 q 1904 933 1928 940 q 1602 683 1772 894 q 1319 294 1432 471 q 1347 378 1325 313 q 1457 846 1457 706 q 1428 942 1457 906 q 1351 978 1400 978 q 1239 944 1301 978 q 1142 865 1182 914 q 915 529 1018 717 q 892 500 899 499 q 888 509 888 500 q 897 544 888 518 q 969 821 956 700 q 972 872 972 847 q 949 1003 972 949 q 740 1128 896 1128 q 346 975 557 1128 q 63 632 149 833 q 25 462 25 529 q 40 350 25 394 q 183 188 81 236 q 291 161 239 161 q 392 182 343 161 q 606 367 538 243 q 644 480 644 435 q 632 554 644 525 q 522 624 603 624 q 489 621 506 624 q 453 600 442 615 q 478 591 460 589 q 508 593 496 593 q 599 497 599 593 "},"N":{"ha":1443,"x_min":-6,"x_max":1651,"o":"m 588 504 q 501 315 588 411 q 251 196 394 196 q 90 317 136 201 q 78 408 78 360 q 129 618 78 504 q 433 958 224 828 q 601 1038 526 1017 q 713 1060 675 1060 q 771 1057 750 1060 q 869 972 840 1046 q 883 885 883 936 q 869 769 883 835 q 705 306 825 572 q 518 -58 585 40 q 518 -68 517 -64 q 556 -90 521 -90 q 633 -50 614 -90 q 690 72 636 -44 q 956 565 839 392 q 1371 964 1153 860 q 1475 994 1429 994 q 1543 936 1543 994 q 1540 913 1543 925 q 1379 518 1528 831 q 1206 133 1231 206 q 1182 -10 1182 61 q 1404 -203 1182 -203 q 1447 -188 1421 -203 q 1474 -156 1474 -174 q 1457 -137 1474 -137 q 1408 -153 1440 -137 q 1344 -168 1375 -168 q 1269 -104 1289 -168 q 1260 -39 1260 -75 q 1321 196 1260 64 q 1470 489 1382 328 q 1604 753 1558 650 q 1650 929 1650 857 q 1609 1031 1650 1001 q 1507 1061 1568 1061 q 1364 1022 1446 1061 q 1035 733 1218 956 q 851 483 936 614 l 808 414 q 864 542 806 415 q 886 592 882 582 q 905 635 890 601 q 925 684 919 668 q 947 751 931 700 q 964 876 964 801 q 925 1014 964 960 q 790 1096 876 1083 q 713 1100 758 1100 q 606 1088 667 1100 q 189 847 386 1042 q 40 635 85 746 q -4 442 -4 525 q 0 385 -4 411 q 88 226 21 282 q 238 169 156 169 q 389 197 321 169 q 596 375 521 250 q 640 511 640 451 q 631 561 640 538 q 538 622 608 622 q 456 606 468 622 q 453 595 450 600 q 470 592 457 590 q 494 593 483 593 q 588 504 588 593 "},"O":{"ha":1008,"x_min":68,"x_max":1264,"o":"m 747 33 q 913 205 842 107 q 1013 394 983 303 q 1049 551 1043 486 q 1256 760 1174 631 q 1264 779 1264 772 q 1253 788 1264 786 q 1235 775 1242 790 q 1054 600 1193 692 q 1054 628 1054 614 q 917 959 1054 843 q 572 1075 781 1075 q 211 956 364 1075 q 68 676 68 843 q 71 635 68 656 q 178 460 81 525 q 138 240 138 350 q 192 39 138 129 q 435 -85 268 -85 q 747 33 593 -85 m 972 629 q 969 556 972 593 q 599 436 797 463 q 483 429 538 429 q 274 469 361 429 q 454 736 331 596 q 578 840 517 807 q 672 874 639 874 q 718 869 704 874 q 739 867 732 864 q 745 875 746 869 q 735 886 744 881 q 659 913 692 913 q 606 908 626 913 q 363 750 478 879 q 203 517 257 632 q 143 678 143 568 q 233 904 143 804 q 510 1044 340 1019 q 589 1051 550 1051 q 822 976 722 1051 q 972 629 972 864 m 961 507 q 936 408 956 464 q 789 149 886 267 q 569 -25 692 31 q 449 -51 511 -51 q 325 -22 388 -51 q 210 226 210 35 q 253 421 210 308 q 472 383 347 383 q 961 507 729 383 "},"P":{"ha":1236,"x_min":-37,"x_max":1488,"o":"m 1339 979 q 1178 1046 1267 1022 q 1230 1089 1203 1071 q 1262 1116 1257 1107 q 1258 1125 1267 1125 q 1252 1126 1257 1126 q 1210 1113 1247 1126 q 1122 1060 1172 1099 q 890 1082 1015 1082 q 619 1060 764 1082 q 342 986 474 1039 q 204 914 264 954 q 101 809 144 874 q 58 664 58 744 q 118 521 58 576 q 272 465 178 465 q 424 517 356 465 q 494 660 493 569 q 490 674 494 669 q 481 674 486 678 q 475 661 476 671 q 391 542 450 590 q 269 493 332 493 q 165 542 206 493 q 128 640 128 588 q 197 806 128 726 q 327 909 250 868 q 479 976 404 950 q 656 1020 554 1001 q 871 1039 757 1039 q 1085 1025 985 1039 q 1036 972 1065 1006 q 1011 947 1021 957 q 856 734 932 858 q 728 508 779 610 q 488 133 594 238 q 182 -11 338 -11 q 56 64 78 -11 q 50 94 50 79 q 84 167 50 133 q 163 201 118 201 q 239 190 208 201 q 275 185 269 179 q 258 203 282 194 q 136 224 194 224 q -4 167 46 224 q -36 99 -36 131 q -26 44 -36 68 q 196 -54 15 -54 q 542 93 385 -54 q 750 346 649 197 q 800 344 775 344 q 1061 379 917 344 q 1230 447 1144 400 q 1378 560 1315 494 q 1486 768 1486 671 q 1339 979 1486 892 m 789 375 q 769 375 779 375 q 950 683 826 463 q 1151 1013 1074 904 q 1397 792 1397 954 q 1219 514 1397 649 q 1009 410 1128 446 q 789 375 890 375 "},"Q":{"ha":1044,"x_min":39,"x_max":1167,"o":"m 682 872 q 718 868 704 872 q 739 867 732 864 q 745 875 746 869 q 735 886 744 881 q 640 913 689 913 q 625 911 633 913 q 393 806 496 901 q 289 693 338 754 q 205 556 240 632 q 151 408 169 479 q 133 256 133 338 q 167 89 133 174 q 265 -37 197 13 q 431 -87 333 -87 q 853 128 658 -87 q 967 285 922 203 q 1041 459 1013 368 q 1069 635 1069 550 q 1050 794 1069 719 q 856 1036 1013 949 q 581 1092 757 1092 q 433 1078 524 1092 q 164 911 254 1047 q 114 763 114 836 q 149 621 114 690 q 175 600 163 594 q 182 629 188 606 q 167 744 167 690 q 211 910 167 836 q 439 1047 279 1026 q 540 1054 488 1054 q 647 1042 593 1054 q 919 863 824 1006 q 996 601 996 749 q 853 197 996 386 q 699 44 788 113 q 422 -60 561 -60 q 300 -14 356 -60 q 211 222 211 61 q 236 369 211 285 q 358 632 278 515 q 542 819 439 749 q 682 872 619 872 m 594 -436 q 913 -512 729 -512 q 1149 -425 1097 -512 q 1165 -359 1165 -396 q 1131 -274 1165 -322 q 894 -150 1057 -176 q 876 -160 876 -147 q 899 -176 876 -174 q 1096 -293 1032 -199 q 1126 -370 1126 -337 q 1113 -426 1126 -403 q 997 -479 1082 -479 q 924 -471 964 -479 q 709 -400 808 -449 q 542 -299 610 -351 q 414 -197 475 -247 q 154 -85 274 -85 q 76 -119 111 -85 q 40 -181 40 -154 q 51 -208 40 -208 q 63 -187 61 -210 q 95 -145 65 -164 q 154 -126 125 -126 q 317 -203 235 -126 q 393 -278 353 -237 q 594 -436 488 -375 "},"R":{"ha":1422,"x_min":25,"x_max":1543,"o":"m 1379 11 q 1522 260 1442 79 q 1521 281 1532 281 q 1499 260 1510 281 q 1369 57 1425 113 q 1263 1 1313 1 q 1195 27 1226 1 q 1126 110 1164 53 q 972 524 1017 278 q 1100 536 1039 526 q 1442 669 1314 571 q 1543 832 1543 750 q 1335 1021 1543 960 q 1197 1047 1300 1031 q 1204 1080 1204 1067 q 1196 1093 1204 1093 q 1146 1054 1182 1093 q 903 1069 1035 1069 q 617 1047 772 1069 q 265 906 399 1015 q 131 660 131 797 q 191 511 131 567 q 333 456 251 456 q 519 536 442 456 q 574 649 564 582 q 564 669 575 669 q 556 651 557 669 q 496 554 553 615 q 353 493 439 493 q 240 538 282 493 q 199 642 199 583 q 328 869 199 763 q 606 991 431 954 q 960 1028 782 1028 q 1115 1021 1038 1028 q 953 789 1042 940 q 866 634 925 740 q 756 438 807 528 q 633 244 706 349 q 547 136 588 176 q 457 57 507 96 q 256 -11 369 -11 q 125 61 153 -11 q 118 97 118 81 q 151 169 118 135 q 228 204 183 204 q 306 192 274 204 q 342 188 338 179 q 328 203 346 196 q 199 226 260 226 q 57 169 108 226 q 25 102 25 133 q 36 47 25 71 q 269 -54 82 -54 q 640 122 476 -54 q 742 253 693 181 q 815 372 790 325 q 885 507 840 418 q 954 246 904 392 q 1079 22 1004 100 q 1235 -57 1154 -57 q 1348 -23 1317 -57 q 1379 11 1379 11 m 1443 853 q 1358 701 1443 779 q 1089 578 1247 597 q 1003 570 1063 575 q 914 560 944 565 q 1058 811 961 653 q 1181 1013 1156 969 q 1317 986 1283 996 q 1440 875 1425 953 q 1443 853 1443 864 "},"S":{"ha":1251,"x_min":-4,"x_max":1300,"o":"m 1250 943 q 1246 914 1250 929 q 1164 847 1231 856 q 1129 825 1126 843 q 1157 819 1132 813 q 1250 864 1215 836 q 1300 961 1300 907 q 1297 989 1300 975 q 1206 1095 1281 1060 q 1014 1131 1132 1131 q 625 1014 763 1131 q 529 846 529 932 q 636 675 529 747 q 826 583 685 643 q 1013 486 967 522 q 1097 319 1097 414 q 1081 233 1097 278 q 849 -11 1028 83 q 676 -73 765 -54 q 534 -92 586 -92 q 456 -89 482 -92 q 128 54 222 -72 q 75 219 75 125 q 153 485 75 363 q 249 589 189 542 q 266 615 276 613 q 235 610 256 618 q 66 449 135 563 q -3 240 -3 335 q 108 -3 -3 92 q 494 -126 251 -126 q 926 -18 747 -126 q 1163 204 1082 75 q 1208 346 1208 276 q 1177 451 1208 394 q 1064 558 1146 508 q 892 645 1010 592 q 736 722 775 699 q 632 869 632 788 q 703 992 632 931 q 811 1053 749 1031 q 1029 1096 931 1096 q 1206 1035 1142 1096 q 1250 943 1250 992 "},"T":{"ha":1275,"x_min":40,"x_max":1944,"o":"m 1829 814 q 1688 833 1786 814 q 1458 893 1589 851 q 1497 931 1471 908 q 1531 949 1522 954 q 1549 947 1542 946 q 1558 972 1565 953 q 1540 992 1551 992 q 1521 989 1528 992 q 1419 904 1488 988 q 1309 941 1401 910 q 1128 996 1217 972 q 987 1024 1040 1019 q 893 1028 933 1028 q 808 1021 853 1028 q 521 850 613 992 q 469 688 469 771 q 479 617 469 653 q 624 463 510 503 q 713 449 663 449 q 821 483 763 449 q 931 646 917 538 q 922 663 931 660 q 903 657 914 667 l 903 654 q 888 606 906 638 q 837 541 871 574 q 766 498 803 508 q 701 488 729 488 q 638 497 672 488 q 539 640 539 528 q 638 838 539 743 q 956 956 760 956 q 1397 878 1151 956 q 1308 699 1378 851 q 989 128 1106 254 q 517 -81 804 -74 q 510 -81 513 -81 q 351 -53 431 -81 q 208 28 272 -25 q 89 297 89 122 q 125 435 89 374 q 167 488 146 471 q 210 522 188 506 q 239 544 233 538 q 217 568 242 568 q 171 550 201 568 q 69 419 96 506 q 42 287 42 333 q 44 217 42 240 q 219 -44 69 40 q 547 -131 372 -131 q 921 -44 763 -131 q 1063 70 1001 0 q 1178 249 1125 140 q 1261 450 1232 357 q 1438 864 1339 708 q 1788 775 1583 801 q 1837 772 1807 772 q 1906 790 1867 772 q 1944 842 1944 808 q 1930 876 1944 876 q 1915 856 1915 876 q 1829 814 1915 814 "},"U":{"ha":1308,"x_min":-7,"x_max":1397,"o":"m 1369 669 q 1292 596 1333 669 q 1202 419 1290 594 q 1058 163 1114 243 l 1021 111 q 825 -28 908 -28 q 747 89 747 -28 q 775 243 747 151 q 845 424 803 335 q 933 622 888 514 q 1013 929 1013 806 q 878 1153 1013 1094 q 733 1181 811 1181 q 425 1092 585 1181 q 131 853 240 990 q -6 503 -6 682 q 108 238 -6 325 q 261 186 175 186 q 442 244 347 186 q 622 461 569 321 q 646 572 646 525 q 626 654 646 619 q 540 703 597 703 q 465 686 503 703 q 424 658 428 669 q 455 658 421 650 q 511 665 489 665 q 606 561 606 665 q 550 399 606 490 q 279 226 449 226 q 76 368 135 226 q 50 508 50 431 q 86 678 50 585 q 422 1046 174 900 q 738 1143 590 1143 q 885 1108 819 1143 q 939 975 939 1076 q 917 821 939 907 q 824 578 896 735 q 710 298 753 421 q 667 99 667 175 q 708 -26 667 24 q 799 -64 740 -64 q 969 8 879 -64 q 1164 249 1065 86 q 1146 83 1146 163 q 1148 13 1146 56 q 1175 -69 1150 -29 q 1246 -118 1200 -110 l 1263 -118 q 1293 -97 1293 -114 q 1268 -86 1293 -86 l 1253 -86 q 1201 10 1201 -86 q 1211 115 1201 57 q 1363 536 1247 329 q 1397 629 1397 597 q 1369 669 1397 656 "},"V":{"ha":1354,"x_min":-12,"x_max":1460,"o":"m 761 -133 q 973 -46 843 -133 q 1236 206 1103 42 q 1433 540 1369 371 q 1460 673 1460 617 q 1433 769 1460 729 q 1322 860 1386 842 l 1296 863 q 1281 844 1278 860 q 1306 826 1285 829 q 1346 817 1326 822 q 1357 812 1349 817 q 1368 801 1365 807 q 1379 773 1371 794 q 1388 699 1388 751 q 1332 479 1388 599 q 1094 135 1246 292 q 793 -89 879 -89 q 750 -25 750 -89 q 822 278 750 60 q 933 553 871 425 q 1033 897 1033 758 q 899 1144 1033 1086 q 729 1174 822 1174 q 531 1133 636 1174 q 331 1035 425 1094 q 155 888 236 976 q 31 697 74 800 q -12 507 -12 594 q -6 436 -12 469 q 100 255 21 322 q 272 188 179 188 q 458 240 364 188 q 617 377 553 292 q 682 547 682 463 q 628 674 682 632 q 564 694 599 694 q 497 680 529 694 q 465 656 465 665 q 492 655 465 647 q 544 663 518 663 q 596 635 571 663 q 621 544 621 607 q 519 326 621 429 q 300 224 417 224 q 156 271 217 224 q 72 414 94 318 q 67 475 67 443 q 102 649 67 553 q 210 834 138 746 q 370 986 282 922 q 558 1094 458 1050 q 749 1139 658 1139 q 904 1101 835 1139 q 950 1017 943 1078 q 953 963 953 997 q 940 872 953 929 q 842 569 908 725 q 669 -12 669 158 q 736 -131 669 -118 q 761 -133 749 -133 "},"W":{"ha":1867,"x_min":-25,"x_max":1919,"o":"m 1207 65 q 1214 140 1207 90 q 1285 344 1221 189 q 1356 521 1349 499 q 1364 571 1364 543 q 1346 608 1364 599 q 1332 611 1339 611 q 1263 556 1303 611 q 1126 336 1222 500 q 942 49 1031 172 q 778 -119 853 -75 q 735 -136 753 -136 q 700 -86 700 -136 q 783 218 700 -15 q 906 525 842 382 q 999 872 999 736 q 865 1096 999 1038 q 701 1124 792 1124 q 506 1083 611 1124 q 313 983 404 1043 q 143 835 221 924 q 20 642 65 746 q -25 450 -25 539 q -22 407 -25 428 q 50 235 -7 301 q 267 138 131 138 q 357 158 308 138 q 611 397 540 235 q 638 507 638 460 q 617 589 638 554 q 511 644 583 644 q 439 633 475 644 q 401 613 403 622 q 425 607 400 603 q 467 611 450 611 q 568 497 568 611 q 519 342 568 428 q 264 174 425 174 q 113 236 167 174 q 72 311 83 271 q 60 383 60 351 q 65 462 60 414 q 106 609 69 510 q 236 817 142 708 q 672 1082 426 1032 q 739 1089 707 1089 q 866 1055 813 1089 q 919 932 919 1021 q 806 519 919 794 q 624 -53 624 88 q 722 -172 624 -172 q 844 -118 772 -172 q 978 11 913 -67 q 1172 282 1097 157 q 1143 126 1143 186 q 1153 32 1143 67 q 1331 -101 1186 -101 q 1635 19 1469 -101 q 1869 313 1801 140 q 1918 546 1918 443 q 1914 606 1918 576 q 1828 789 1894 726 q 1683 851 1763 851 q 1664 851 1672 851 q 1642 851 1656 851 q 1603 840 1629 851 q 1578 817 1578 829 q 1594 808 1578 808 q 1643 817 1610 808 q 1681 819 1663 819 q 1805 763 1760 819 q 1850 593 1850 706 q 1782 321 1850 481 q 1561 51 1722 179 q 1314 -67 1414 -67 q 1207 65 1207 -67 "},"X":{"ha":1121,"x_min":-169,"x_max":1533,"o":"m 1501 1135 q 1486 1131 1497 1135 q 1476 1125 1481 1128 q 1466 1117 1472 1122 q 1455 1107 1460 1111 q 1442 1096 1450 1103 q 1430 1083 1435 1089 q 1415 1069 1425 1078 q 1400 1054 1406 1060 q 1257 933 1340 994 q 1015 765 1174 872 q 776 601 857 658 q 776 625 776 611 q 776 701 776 639 q 767 875 776 764 q 722 1025 761 954 q 600 1094 686 1094 q 408 1034 518 1094 q 231 917 299 974 q 150 842 163 861 q 157 797 126 806 q 172 797 168 793 q 272 907 196 849 q 553 1024 422 1024 q 676 914 660 1024 q 690 701 690 818 q 690 549 690 585 q -143 -235 139 156 l -160 -262 q -169 -290 -169 -279 q -150 -306 -169 -306 q -65 -235 -108 -306 q 692 496 151 106 q 689 201 689 342 q 697 24 689 61 q 751 -86 713 -49 q 838 -124 790 -124 q 943 -92 886 -124 q 1218 256 1093 -7 q 1217 281 1229 279 q 1194 263 1204 283 q 1122 128 1163 189 q 906 -43 1010 -43 q 799 74 831 -43 q 776 399 776 158 q 778 549 776 468 q 1073 754 893 631 q 1353 949 1253 878 q 1493 1061 1453 1021 q 1533 1117 1533 1101 q 1501 1135 1533 1135 "},"Y":{"ha":1332,"x_min":25,"x_max":1558,"o":"m 1365 671 q 1335 658 1356 671 q 1310 624 1314 646 q 1111 192 1243 403 q 953 10 1032 65 q 829 -39 886 -39 q 768 -11 789 -39 q 747 49 747 17 q 753 110 747 81 q 969 585 790 279 q 1085 933 1085 776 q 1054 1052 1085 996 q 950 1142 1024 1108 q 788 1169 879 1169 q 586 1126 696 1169 q 388 1025 482 1086 q 210 875 293 964 q 76 681 128 786 q 25 469 25 575 q 92 282 25 364 q 303 185 168 185 q 394 206 344 185 q 643 428 558 274 q 686 569 686 508 q 675 626 686 600 q 578 688 650 688 q 514 679 547 688 q 482 660 481 671 q 507 656 483 651 q 547 661 531 661 q 633 565 633 661 q 572 393 633 492 q 310 221 464 221 q 224 239 265 221 q 114 378 142 276 q 104 444 104 408 q 153 651 104 531 q 301 871 200 764 q 753 1131 503 1083 q 818 1138 788 1138 q 951 1101 896 1138 q 1006 981 1006 1065 q 961 778 1006 896 q 858 567 922 671 q 653 81 653 232 q 695 -33 653 8 q 814 -75 738 -75 q 972 -19 890 -75 q 1254 358 1128 86 q 1064 -179 1200 154 q 464 -268 679 -179 q 296 -429 296 -337 q 400 -535 296 -500 q 533 -553 454 -553 q 725 -510 611 -553 q 941 -390 839 -467 q 1110 -214 1043 -314 q 1449 -184 1383 -211 q 1536 -120 1514 -157 q 1558 -62 1558 -83 q 1549 -24 1558 -42 q 1541 -19 1546 -17 q 1539 -39 1536 -21 q 1453 -142 1526 -107 q 1374 -163 1422 -156 q 1292 -172 1326 -171 q 1205 -175 1258 -174 q 1131 -178 1151 -176 q 1269 150 1201 -51 q 1363 469 1336 351 q 1390 629 1390 588 q 1365 671 1390 671 m 371 -443 q 486 -326 371 -393 q 1044 -214 681 -214 q 896 -376 986 -308 q 710 -478 806 -443 q 510 -512 615 -512 q 376 -465 406 -512 q 371 -443 371 -454 "},"Z":{"ha":940,"x_min":14,"x_max":1494,"o":"m 1204 951 q 1110 981 1182 958 q 999 1015 1039 1004 q 883 1045 960 1026 q 726 1064 806 1064 q 522 1028 610 1064 q 425 963 456 1000 q 376 839 376 904 q 418 733 376 782 q 469 697 446 703 q 501 696 485 690 q 486 724 518 701 q 424 816 424 767 q 483 914 424 865 q 597 969 533 953 q 789 988 692 988 q 1178 931 971 988 q 882 639 1022 804 q 413 85 774 507 q 214 185 286 165 q 146 194 176 194 q 49 158 83 194 q 15 81 15 122 q 22 40 15 61 q 128 -51 44 -32 q 165 -56 146 -56 q 406 44 265 -56 l 524 -22 q 804 -154 642 -89 q 1058 -219 967 -219 q 1222 -194 1150 -219 q 1324 -135 1292 -171 q 1369 -72 1356 -100 q 1385 -24 1383 -44 q 1388 18 1388 -3 q 1375 39 1388 39 q 1353 -7 1360 39 q 1301 -87 1346 -53 q 1197 -131 1256 -122 q 1081 -140 1138 -140 q 969 -131 1024 -140 q 440 64 821 -101 q 476 93 443 67 q 519 128 508 119 q 562 165 529 138 q 612 208 594 192 q 661 253 629 224 q 715 305 693 282 q 767 358 738 328 q 833 429 796 388 q 983 622 869 471 q 1228 918 1160 856 q 1371 897 1314 897 q 1453 918 1428 897 q 1494 994 1494 958 q 1454 1047 1494 1031 q 1414 1056 1436 1056 q 1204 951 1336 1056 m 1249 939 q 1413 1029 1356 1029 q 1445 1013 1436 1029 q 1454 986 1454 997 q 1431 931 1454 946 q 1367 917 1408 917 q 1249 939 1325 917 m 86 101 q 177 146 110 146 q 344 90 244 146 q 386 58 358 81 q 303 10 356 32 q 200 -11 250 -11 q 106 17 135 -11 q 78 65 78 44 q 86 101 78 86 "},"[":{"ha":813,"x_min":53,"x_max":810,"o":"m 228 33 q 135 94 135 33 q 223 359 135 172 q 426 717 311 546 q 607 921 540 888 q 672 928 619 928 l 775 922 l 789 922 q 810 947 810 922 q 683 997 810 997 l 656 997 q 525 950 576 997 q 471 892 504 931 q 194 467 336 735 q 53 39 53 199 q 219 -24 53 -24 q 386 8 386 -24 q 328 39 386 39 l 228 33 "},"\\":{"ha":1204,"x_min":28,"x_max":1193,"o":"m 96 1057 q 278 950 165 1057 q 515 686 392 843 q 761 369 639 529 q 1183 -56 1060 -18 l 1193 -47 q 1181 -26 1192 -40 q 882 328 1021 139 q 738 527 831 399 q 601 713 644 656 q 128 1097 314 1097 q 28 1047 44 1097 l 38 1038 q 64 1048 43 1039 q 96 1057 85 1057 "},"]":{"ha":772,"x_min":24,"x_max":761,"o":"m 629 929 q 675 924 660 929 q 679 882 679 903 q 567 481 679 736 q 349 107 456 226 q 258 51 313 65 q 163 36 204 36 l 138 38 q 24 -17 35 38 q 112 -24 39 -24 q 220 -22 185 -24 q 304 -4 256 -19 q 382 40 353 11 q 643 458 525 185 q 761 931 761 732 q 748 974 761 958 q 719 992 735 989 q 674 994 703 994 q 471 926 489 994 l 475 924 l 629 929 "},"^":{"ha":514,"x_min":164,"x_max":560,"o":"m 560 543 l 553 554 q 400 713 457 633 l 392 717 q 267 639 368 714 q 164 546 167 564 l 172 536 q 361 658 196 540 q 449 578 385 626 q 536 531 513 531 q 560 543 560 531 "},"_":{"ha":1119,"x_min":11,"x_max":1101,"o":"m 304 -93 q 1092 -83 764 -83 l 1101 -74 q 1089 -47 1100 -58 q 1063 -35 1078 -35 l 35 -35 q 11 -61 11 -35 q 17 -87 11 -74 q 35 -101 24 -101 l 304 -93 "},"`":{"ha":293,"x_min":13,"x_max":268,"o":"m 268 567 q 163 658 268 575 q 39 742 57 742 q 13 708 13 742 q 64 650 13 675 q 159 600 72 646 q 254 554 246 554 q 268 567 268 554 "},"a":{"ha":486,"x_min":32,"x_max":589,"o":"m 501 376 q 467 378 490 374 q 439 382 444 382 q 393 363 411 382 q 349 293 375 344 q 131 38 214 38 q 96 92 96 38 q 150 236 96 146 q 243 367 193 311 q 390 461 331 461 q 457 411 442 461 q 481 422 475 408 q 472 451 486 436 q 364 496 428 496 q 314 489 340 496 q 150 388 217 465 q 32 111 32 247 q 74 11 32 40 q 114 -3 92 -3 q 306 176 194 -3 q 292 92 292 126 q 304 36 292 57 q 369 -3 329 -3 q 585 256 457 -3 q 589 272 589 265 q 578 281 589 285 q 565 267 571 279 q 453 82 510 153 q 388 33 414 33 q 367 60 367 33 q 376 131 367 88 q 431 263 385 175 q 501 376 476 351 "},"b":{"ha":479,"x_min":-37,"x_max":522,"o":"m 428 378 q 404 285 428 336 q 298 109 363 186 q 190 32 233 32 q 181 33 185 32 q 133 117 133 43 q 378 658 133 296 q 522 853 476 804 q 488 854 511 850 q 464 858 465 858 l 457 858 q 456 858 456 858 q 364 790 411 858 q 160 419 306 703 q -33 72 15 136 q -36 63 -36 67 q -22 54 -36 42 q 125 301 11 86 q 58 104 58 163 q 90 26 58 56 q 174 -3 122 -3 q 400 114 313 -3 q 488 349 488 229 q 469 417 488 382 q 371 485 443 474 q 335 483 351 488 q 322 467 318 479 q 351 457 326 454 q 363 457 357 457 q 428 378 428 457 "},"c":{"ha":361,"x_min":47,"x_max":475,"o":"m 335 319 q 358 310 344 310 q 390 328 371 310 q 429 408 429 361 q 406 465 429 440 q 332 489 383 489 q 146 379 226 489 q 77 254 107 326 q 47 121 47 182 q 81 33 47 71 q 193 -6 115 -6 q 364 72 301 -6 q 417 150 399 115 q 455 224 436 185 q 474 270 474 264 q 467 280 474 276 q 450 264 460 283 q 404 176 421 206 q 355 103 388 147 q 286 40 322 60 q 208 19 250 19 q 145 50 165 19 q 125 130 125 81 q 150 240 125 179 q 201 339 175 301 q 350 458 285 458 q 383 418 383 458 q 335 319 383 378 "},"d":{"ha":510,"x_min":36,"x_max":767,"o":"m 372 81 q 386 147 372 107 q 597 581 422 256 q 767 864 735 835 q 731 866 754 863 q 705 869 708 869 q 685 869 701 869 q 651 856 669 869 q 613 797 632 843 q 451 468 546 646 q 363 493 403 493 q 294 483 324 493 q 157 392 214 460 q 69 249 100 324 q 38 114 38 175 q 106 6 38 24 q 137 1 121 1 q 169 8 153 1 q 308 160 228 26 q 301 99 301 132 q 324 33 301 67 q 383 0 346 0 q 608 258 497 0 q 611 278 614 272 q 601 282 608 285 q 590 271 593 279 q 582 254 586 263 q 408 36 474 36 q 372 81 372 36 m 440 446 q 258 139 328 236 q 142 42 189 42 q 113 60 122 42 q 104 100 104 78 q 144 224 104 149 q 299 415 206 338 q 390 464 357 464 q 440 446 422 464 "},"e":{"ha":342,"x_min":42,"x_max":446,"o":"m 140 214 q 225 233 169 214 q 311 275 281 251 q 411 435 411 351 q 388 478 411 458 q 333 494 363 494 q 272 481 304 494 q 154 392 206 453 q 73 262 103 332 q 43 129 43 192 q 82 31 43 67 q 176 -6 121 -6 q 351 92 281 -6 q 415 201 383 133 q 446 274 446 268 q 440 281 446 279 q 417 261 426 283 q 188 24 314 24 q 138 47 156 24 q 121 108 121 69 q 140 214 121 167 m 374 436 q 297 299 374 364 q 219 254 264 271 q 150 238 174 238 q 233 368 186 310 q 351 464 313 464 q 374 436 374 464 "},"f":{"ha":275,"x_min":-164,"x_max":504,"o":"m -86 -483 q 41 -404 -18 -483 q 125 -225 100 -325 q 150 -74 150 -125 q 149 -1 150 -24 q 375 261 260 -1 q 378 272 378 267 q 375 278 378 276 q 369 281 372 281 q 361 279 365 282 q 340 241 357 276 q 297 159 324 206 q 229 69 271 113 q 150 25 188 25 q 146 25 149 25 l 142 43 q 97 147 129 108 q 321 593 203 385 q 504 863 439 801 q 471 865 493 861 q 443 869 449 869 q 376 846 403 869 q 325 772 350 822 q 40 179 199 536 q 23 181 36 181 q -10 164 10 181 q -36 86 -36 144 q -19 40 -36 68 q -162 -407 -162 -297 q -86 -483 -162 -483 m -87 -407 q 39 15 -87 -304 q 107 -7 67 -7 q 119 -7 113 -7 q 119 -21 119 -14 q 87 -216 119 -108 q 8 -385 54 -324 q -65 -447 -39 -447 q -87 -407 -87 -447 m 108 19 q 53 46 67 19 l 83 115 q 117 19 113 79 l 108 19 "},"g":{"ha":544,"x_min":-147,"x_max":647,"o":"m -17 -439 q 174 -368 78 -439 q 333 -204 269 -297 q 429 -17 396 -111 q 541 73 500 17 q 643 256 582 129 q 647 272 647 265 q 638 281 647 283 q 624 271 628 279 q 607 234 619 263 q 578 176 594 206 q 535 111 563 147 q 444 29 508 75 q 474 220 474 136 q 463 367 474 304 q 436 360 456 361 q 401 349 417 358 q 374 301 385 339 q 322 197 363 264 q 233 85 281 129 q 153 42 185 42 q 133 46 143 42 q 106 106 106 61 q 151 235 106 151 q 240 360 189 301 q 406 463 332 463 q 464 411 446 463 q 476 394 467 403 q 493 397 485 385 q 501 421 501 408 q 479 451 501 433 q 357 493 419 493 q 310 486 333 493 q 157 388 222 465 q 38 125 38 244 q 110 6 38 36 q 269 83 189 -17 q 376 246 338 167 q 379 208 379 233 q 343 -22 379 83 q 236 -60 310 -36 q -26 -172 76 -112 q -147 -332 -147 -243 q -17 -439 -147 -439 m -118 -358 q -111 -322 -118 -343 q -25 -212 -90 -256 q 281 -79 64 -154 l 329 -62 q 250 -203 301 -131 q 125 -339 182 -293 q 41 -387 92 -364 q -50 -411 -10 -411 q -118 -358 -118 -411 "},"h":{"ha":461,"x_min":-56,"x_max":564,"o":"m 326 63 q 497 456 326 156 q 482 458 490 458 q 372 417 447 458 q 245 331 297 376 q 128 203 193 285 q 334 599 226 404 q 483 838 442 794 q 450 840 472 836 q 421 843 428 843 q 373 824 393 843 q 326 756 353 804 q -56 -10 208 539 q -8 -1 -46 -4 q 43 19 33 -1 q 238 294 138 203 q 328 357 304 357 q 351 342 351 357 q 336 303 351 328 q 260 158 274 203 q 246 83 246 114 q 258 33 246 51 q 333 -6 286 -6 q 469 92 406 -6 q 516 170 500 140 q 548 233 532 200 q 564 272 564 265 q 556 283 564 279 q 539 268 549 288 q 354 24 419 24 q 326 63 326 24 "},"i":{"ha":242,"x_min":25,"x_max":343,"o":"m 269 540 q 293 581 289 557 q 283 621 297 604 q 244 638 268 638 q 201 621 221 638 q 178 581 182 604 q 189 540 175 557 q 226 524 203 524 q 260 532 250 524 q 269 540 269 540 m 133 31 q 90 71 90 31 q 114 158 90 107 l 225 418 q 233 455 239 443 q 196 467 228 467 l 119 465 q 136 429 136 443 q 133 407 136 415 l 44 181 q 26 99 26 136 q 49 31 26 61 q 122 0 71 0 q 229 65 172 0 q 276 133 250 89 q 310 196 301 176 q 331 240 319 215 q 342 270 342 264 q 339 279 342 276 q 319 267 329 288 q 189 57 240 108 q 133 31 160 31 "},"j":{"ha":246,"x_min":-549,"x_max":350,"o":"m 143 407 l 69 247 q 82 225 60 225 q -19 17 -12 31 q -60 -56 -25 4 q -210 -94 -93 -65 q -397 -156 -326 -122 q -528 -269 -492 -199 q -549 -351 -549 -315 q -515 -413 -549 -387 q -420 -439 -482 -439 q -301 -415 -358 -439 q -203 -356 -244 -390 q 14 -69 -93 -264 q 136 -17 90 -42 q 219 50 182 8 q 281 132 257 92 q 327 219 304 172 q 350 272 350 265 q 342 283 350 279 q 325 268 335 288 q 238 115 264 153 q 177 47 213 76 q 117 7 142 18 q 38 -25 92 -4 q 124 158 89 76 l 235 418 q 243 455 249 443 q 206 467 238 467 l 129 465 q 147 429 147 443 q 143 407 147 415 m -501 -301 q -374 -186 -464 -225 q -86 -100 -317 -161 q -276 -328 -146 -211 q -450 -411 -369 -411 q -497 -397 -478 -411 q -517 -357 -517 -382 q -501 -301 -517 -332 m 269 540 q 292 572 289 557 q 294 597 294 586 q 281 623 294 608 q 244 638 268 638 q 201 621 221 638 q 180 590 182 604 q 178 565 178 576 q 190 539 178 554 q 226 524 203 524 q 260 532 250 524 q 269 540 269 540 "},"k":{"ha":504,"x_min":-37,"x_max":608,"o":"m 436 375 q 390 307 436 344 q 294 269 343 269 q 286 269 290 269 q 238 226 258 267 q 217 147 217 186 q 263 24 217 71 q 353 -10 294 -10 q 528 110 449 -10 q 586 217 565 168 q 607 271 607 265 q 601 283 607 276 q 586 271 596 289 q 474 81 517 128 q 382 32 421 32 q 363 35 372 32 q 300 117 317 50 q 293 176 293 143 q 310 247 293 208 q 442 297 382 254 q 522 392 503 339 q 529 429 529 413 q 468 481 529 481 q 393 465 440 481 q 167 271 293 428 q 238 430 185 325 q 381 674 290 535 q 522 853 471 814 q 488 854 511 850 q 464 858 465 858 l 457 858 q 456 858 456 858 q 364 790 411 858 q 160 419 306 703 q -33 72 15 136 q -36 63 -36 67 q -22 54 -36 42 q 125 301 11 86 q 85 216 113 272 q 40 117 58 160 q 12 37 22 74 q 22 0 1 0 l 110 0 q 101 31 101 7 q 115 115 101 54 q 149 217 128 176 q 270 349 197 286 q 399 413 343 413 q 436 375 436 413 "},"l":{"ha":294,"x_min":46,"x_max":474,"o":"m 156 268 q 440 685 321 419 q 474 804 474 757 q 472 825 474 817 q 429 871 461 871 q 336 821 383 871 q 272 727 313 796 q 172 522 231 658 q 81 271 113 386 q 66 224 79 265 q 49 138 53 182 q 47 94 47 111 q 52 56 47 78 q 81 16 57 35 q 147 -3 104 -3 q 239 28 190 -3 q 277 62 257 39 q 309 99 297 85 q 337 144 321 114 q 359 185 353 174 q 378 227 365 197 q 396 266 392 257 q 393 281 400 275 q 372 265 383 285 q 272 94 319 161 q 175 26 225 26 q 131 52 144 26 q 117 108 117 78 q 124 167 117 138 q 143 230 132 197 q 156 268 154 263 m 167 313 q 274 562 208 419 q 379 759 340 704 q 432 814 418 814 q 442 786 442 814 q 409 681 442 758 q 307 494 376 604 q 167 313 238 385 "},"m":{"ha":704,"x_min":-51,"x_max":808,"o":"m 736 456 q 722 458 731 458 q 612 417 688 458 q 481 326 536 375 q 364 200 425 276 q 425 314 378 228 q 472 421 472 400 q 444 456 472 444 q 429 458 440 461 q 412 454 418 454 q 392 446 406 454 q 372 434 379 438 q 350 419 364 431 q 328 402 336 408 q 306 383 321 396 q 284 363 292 369 q 263 343 276 356 q 220 306 249 331 q 126 200 192 281 q 294 461 243 433 q 260 463 283 458 q 232 467 238 467 q 186 450 203 467 q 36 175 149 414 q -51 -7 -26 42 q -11 0 -42 -1 q 30 5 19 1 q 47 24 40 8 q 239 294 142 206 q 315 356 290 343 q 333 360 326 361 q 338 341 339 360 q 311 269 336 322 q 235 53 235 110 q 246 19 235 39 q 281 0 257 0 q 359 151 293 57 q 485 301 425 246 q 567 357 544 357 q 590 342 590 357 q 575 303 590 328 q 499 158 513 203 q 485 83 485 114 q 497 33 485 51 q 565 -6 525 -6 q 635 16 604 -6 q 687 60 667 38 q 735 129 707 82 q 772 193 764 176 q 794 238 781 210 q 808 272 808 265 q 800 283 808 279 q 783 268 792 288 q 669 78 735 157 q 593 28 626 28 q 567 67 567 28 q 736 456 567 154 "},"n":{"ha":465,"x_min":-54,"x_max":569,"o":"m 499 456 q 483 458 492 458 q 374 417 449 458 q 245 328 299 376 q 126 200 192 281 q 294 461 243 433 q 260 463 283 458 q 232 467 238 467 q 186 450 203 467 q 33 172 150 415 q -54 -10 -32 35 q -14 -3 -44 -4 q 27 2 17 -1 q 46 19 38 6 q 239 294 139 203 q 329 357 306 357 q 353 342 353 357 q 338 303 353 328 q 261 158 275 203 q 247 83 247 114 q 261 33 247 51 q 338 -6 288 -6 q 440 51 389 -6 q 564 256 490 107 q 569 272 569 265 q 561 283 569 279 q 544 268 553 288 q 354 28 425 28 q 328 64 328 28 q 499 456 328 156 "},"o":{"ha":465,"x_min":39,"x_max":569,"o":"m 332 486 q 188 418 264 486 q 71 253 113 350 q 40 128 40 186 q 142 0 40 0 q 260 47 196 0 q 349 11 292 11 q 414 32 379 11 q 443 56 428 40 q 469 83 458 71 q 492 117 479 96 q 513 150 506 138 q 531 184 521 163 q 546 214 542 206 q 558 242 550 222 l 567 261 q 569 271 569 267 q 556 281 569 282 q 546 274 549 281 q 530 240 543 268 q 508 196 517 211 q 482 148 500 181 q 422 72 464 115 q 351 35 389 35 q 286 69 304 35 q 403 233 364 143 q 433 358 433 300 q 332 486 433 486 m 347 443 q 399 375 399 443 q 364 236 399 307 q 310 138 333 172 q 313 159 313 149 q 301 182 313 169 q 271 194 289 194 q 222 135 225 194 q 244 67 222 99 q 167 29 201 29 q 118 93 118 29 q 167 257 118 157 q 258 393 207 343 q 347 443 310 443 "},"p":{"ha":467,"x_min":-201,"x_max":497,"o":"m 496 378 q 426 486 496 468 q 406 489 417 489 q 328 450 368 489 q 278 401 301 425 q 206 297 256 378 l 178 253 q 217 442 217 357 q 213 467 217 456 q 196 478 210 478 q 99 465 182 479 q 118 406 118 457 q 93 296 118 356 q 65 234 74 250 q 65 218 57 218 q 94 242 79 219 q -47 -92 78 156 q -201 -369 -171 -340 q -169 -372 -190 -368 q -144 -376 -147 -376 q -124 -376 -140 -376 q -89 -362 -107 -376 q -50 -304 -71 -349 l 82 25 q 169 0 129 0 q 239 8 208 0 q 376 101 319 33 q 464 243 432 169 q 496 378 496 317 m 429 392 q 389 269 429 344 q 233 76 326 154 q 143 28 175 28 q 93 46 111 28 q 278 361 214 271 q 392 451 343 451 q 420 433 411 451 q 429 392 429 414 "},"q":{"ha":475,"x_min":36,"x_max":508,"o":"m 142 -357 q 160 -374 144 -360 q 182 -399 176 -389 q 313 -46 192 -328 q 508 351 433 236 q 476 353 497 350 q 451 357 456 357 q 435 357 447 357 q 408 345 422 357 q 354 271 393 333 q 149 43 217 43 q 133 46 140 43 q 106 99 106 58 q 168 259 106 151 q 322 431 231 367 q 407 464 369 464 q 464 411 444 464 q 471 399 467 403 q 496 401 485 385 q 501 421 501 408 q 478 451 501 433 q 357 493 419 493 q 310 486 333 493 q 157 388 222 465 q 38 125 38 244 q 108 6 38 36 q 136 1 122 1 q 263 78 197 1 q 360 219 339 182 q 278 52 342 179 q 169 -179 215 -75 q 124 -307 124 -283 q 142 -357 124 -331 "},"r":{"ha":361,"x_min":-40,"x_max":464,"o":"m 265 557 q 261 586 265 574 q 217 625 247 625 q 178 582 186 625 q 99 315 156 456 q -36 72 42 175 q -39 63 -39 67 q -25 54 -39 42 q 143 361 56 132 l 160 406 q 271 360 271 403 q 267 340 271 350 q 228 269 263 329 q 177 168 193 210 q 161 101 161 126 q 165 64 161 76 q 240 -1 186 -1 q 342 63 289 -1 q 407 153 386 114 q 446 228 428 192 q 464 272 464 265 q 458 282 464 278 q 442 268 451 286 q 269 36 328 36 q 258 142 224 36 q 283 203 268 169 q 309 259 297 236 q 334 308 321 282 q 364 369 347 333 q 381 422 381 404 q 378 444 381 440 q 260 438 307 438 q 186 439 214 438 q 265 557 265 494 "},"s":{"ha":356,"x_min":-17,"x_max":458,"o":"m 197 26 q 267 99 238 54 q 296 189 296 143 q 264 307 296 235 q 239 361 250 336 q 228 425 228 386 q 275 521 228 499 q 294 525 283 525 q 321 518 306 525 q 341 522 336 511 q 327 542 346 533 q 289 551 308 551 q 160 433 215 551 q 39 190 110 325 q 2 165 19 189 q -15 116 -15 142 q -11 72 -15 90 q 108 -6 10 -6 q 165 8 133 -6 q 265 11 214 -6 q 321 44 297 21 l 350 75 q 378 110 364 88 q 401 147 392 132 q 422 188 410 163 q 440 226 435 213 q 452 252 446 239 q 458 268 458 265 q 446 278 458 279 q 436 271 439 278 q 332 89 361 125 q 222 24 278 24 q 197 26 215 24 m 150 36 q 92 146 92 64 q 63 188 92 188 q 193 444 88 233 q 192 408 192 435 q 201 307 192 382 q 211 189 211 232 q 150 36 211 83 m 46 74 q 71 128 46 103 q 126 24 75 56 q 99 18 115 18 q 47 56 58 18 q 46 74 46 65 "},"t":{"ha":278,"x_min":44,"x_max":450,"o":"m 44 111 q 72 31 44 63 q 143 -1 100 -1 q 303 119 228 -1 q 375 256 329 160 q 379 276 381 269 q 370 279 378 282 q 357 264 363 276 q 210 54 276 104 q 157 38 181 38 q 126 56 136 38 q 117 91 117 74 q 121 126 117 108 l 153 268 q 338 497 261 368 l 418 497 q 428 505 425 497 q 430 520 432 513 q 421 528 428 528 l 354 528 q 417 654 385 586 q 449 770 449 722 q 417 833 449 818 q 394 836 410 836 q 342 810 378 836 q 263 711 306 785 q 169 528 219 638 l 86 528 q 76 520 79 528 q 74 505 72 513 q 83 497 76 497 l 156 497 q 44 111 44 226 m 324 528 l 254 528 q 359 739 328 694 q 406 783 390 783 q 415 756 415 783 q 324 528 415 692 m 306 497 q 165 313 240 390 q 240 497 224 458 l 306 497 "},"u":{"ha":496,"x_min":31,"x_max":600,"o":"m 31 81 q 35 64 31 71 q 122 1 47 1 q 310 179 208 1 q 296 100 296 132 q 304 47 296 68 q 376 1 324 1 q 482 63 428 1 q 527 127 503 86 q 563 192 551 168 q 588 240 575 215 q 600 272 600 265 q 592 283 600 279 q 575 268 583 288 q 390 36 465 36 q 360 83 360 39 q 364 119 360 100 q 457 340 374 174 q 505 429 488 404 q 553 478 522 454 l 478 478 q 424 449 439 478 q 217 86 290 172 q 143 31 169 31 q 115 43 125 31 q 104 86 104 56 q 132 176 104 117 q 210 338 160 235 q 311 478 261 442 l 226 478 q 172 449 186 478 q 94 296 142 386 l 69 247 q 82 225 60 225 q 31 81 31 140 "},"v":{"ha":364,"x_min":49,"x_max":450,"o":"m 449 485 q 426 507 449 507 q 406 503 417 507 q 326 404 351 483 q 318 344 318 378 q 338 265 318 310 q 246 93 292 151 q 164 35 200 35 q 139 41 151 35 q 126 87 126 47 q 170 242 126 126 q 214 442 214 357 q 210 467 214 456 q 193 478 207 478 q 96 465 179 479 q 118 401 118 456 q 92 293 118 347 l 67 246 q 70 227 63 235 q 92 242 78 219 q 50 65 50 122 q 128 -10 50 -10 q 311 138 224 -10 q 442 460 371 239 l 449 485 "},"w":{"ha":661,"x_min":31,"x_max":699,"o":"m 699 485 q 676 508 699 508 q 658 504 668 508 q 583 406 607 486 q 575 343 575 378 q 594 267 575 308 q 397 25 497 25 q 390 25 393 25 q 353 76 353 26 q 408 258 353 117 q 496 426 433 322 q 536 467 508 449 q 551 478 549 475 l 467 478 q 414 449 426 478 q 369 356 410 436 q 339 294 358 333 q 303 224 319 254 q 266 161 286 194 q 226 101 246 128 q 183 52 207 75 q 143 29 160 29 q 116 42 126 29 q 106 87 106 56 q 133 176 106 118 q 210 338 160 235 q 311 478 261 442 l 226 478 q 172 449 186 478 q 94 296 163 429 l 69 247 q 82 225 60 225 q 31 81 31 140 q 35 64 31 71 q 65 17 40 35 q 121 0 90 0 q 306 188 203 0 q 293 106 293 143 q 295 69 293 90 q 315 23 297 49 q 383 -3 333 -3 q 581 164 490 -3 q 692 461 631 258 l 699 485 "},"x":{"ha":463,"x_min":-47,"x_max":567,"o":"m 238 285 q 151 103 208 192 q 51 -6 94 15 q 10 -17 28 -17 q -17 -8 -8 -17 q -34 -2 -26 0 q -44 -10 -42 -4 q -46 -19 -46 -15 q -43 -28 -46 -24 q 7 -49 -22 -49 q 221 164 111 -49 q 219 126 219 154 q 246 40 219 81 q 324 0 272 0 q 432 44 376 0 q 476 98 451 61 q 508 150 500 135 q 539 210 517 165 q 563 261 561 256 q 565 272 565 267 q 559 282 565 276 q 542 267 553 288 q 538 258 540 263 q 512 208 535 253 q 444 97 489 163 q 392 44 415 56 q 356 32 369 32 q 332 35 342 32 q 294 83 306 40 q 290 131 290 106 q 294 186 290 157 q 358 319 315 251 q 444 428 401 388 q 475 404 451 404 q 515 417 499 404 q 535 453 531 431 q 526 483 540 475 q 499 492 511 492 q 479 490 488 492 q 401 422 450 482 q 314 290 351 361 q 322 368 322 335 q 258 465 322 458 q 251 465 254 465 q 181 433 219 465 q 61 228 142 397 q 57 199 51 208 q 72 206 63 190 q 115 288 81 222 q 160 369 150 354 q 223 428 196 428 q 251 393 250 428 q 238 285 251 358 "},"y":{"ha":554,"x_min":-242,"x_max":657,"o":"m -114 -439 q 106 -356 4 -439 q 321 -69 214 -264 q 443 -17 397 -42 q 526 49 489 7 q 588 130 564 90 q 634 216 611 169 q 657 269 657 263 q 649 281 657 276 q 632 265 642 285 q 544 113 575 156 q 344 -25 475 14 q 401 138 364 29 q 462 311 438 246 q 507 415 486 376 q 564 478 528 453 l 489 478 q 435 449 450 478 q 217 86 315 201 q 143 31 169 31 q 115 43 125 31 q 104 86 104 56 q 135 182 104 117 q 260 428 210 342 q 297 467 272 450 q 311 478 308 475 l 226 478 q 172 449 186 478 q 94 296 142 386 l 69 247 q 82 225 60 225 q 56 175 71 207 q 44 148 53 167 q 35 121 36 129 q 32 93 35 113 q 35 64 29 74 q 122 1 47 1 q 232 58 178 1 q 367 257 286 115 q 247 -56 297 32 q 97 -94 214 -65 q -90 -156 -19 -122 q -221 -269 -185 -199 q -242 -351 -242 -315 q -208 -413 -242 -387 q -114 -439 -175 -439 m -194 -301 q -67 -186 -156 -225 q 222 -100 -7 -160 l 192 -151 q 31 -328 122 -246 q -142 -411 -61 -411 q -190 -397 -171 -411 q -210 -358 -210 -383 q -194 -301 -210 -332 "},"z":{"ha":474,"x_min":-271,"x_max":576,"o":"m -147 -431 q -83 -421 -118 -431 q 170 -272 64 -378 q 331 -17 276 -165 q 472 83 414 0 q 540 192 504 126 q 576 272 576 257 q 567 281 576 285 q 553 267 558 279 q 339 18 444 39 q 354 119 354 67 q 261 210 351 210 q 258 210 260 210 q 358 302 321 247 q 394 395 394 357 q 381 453 394 433 q 307 489 356 489 q 136 375 199 489 q 54 217 128 361 q 53 188 43 194 q 71 201 63 182 q 144 340 106 275 q 260 419 190 419 q 301 397 282 419 q 321 351 321 375 q 303 300 321 328 q 147 178 242 207 q 135 167 136 175 q 140 153 133 158 q 219 178 153 143 q 231 179 225 179 q 271 107 271 179 q 246 -15 271 65 q 156 -43 224 -22 q 56 -74 88 -64 q -34 -106 24 -85 q -124 -145 -92 -128 q -190 -188 -156 -162 q -247 -249 -224 -214 q -269 -321 -269 -283 q -238 -394 -269 -358 q -147 -431 -207 -431 m -212 -293 q -111 -171 -186 -214 q 43 -107 -54 -137 q 142 -78 79 -96 q 233 -50 204 -60 q 132 -221 199 -143 q -15 -349 65 -299 q -161 -400 -94 -400 q -200 -387 -179 -400 q -221 -347 -221 -375 q -212 -293 -221 -319 "},"{":{"ha":513,"x_min":10,"x_max":601,"o":"m 585 1008 l 579 1008 q 376 960 442 1008 q 303 840 328 922 q 282 769 289 799 q 266 692 275 740 q 254 631 257 643 q 189 490 233 524 q 29 442 147 454 q 11 412 11 419 q 21 404 11 404 q 111 392 81 404 q 178 294 178 363 q 173 233 178 257 q 153 146 168 208 q 130 44 138 83 q 122 -51 122 4 q 146 -133 122 -107 q 328 -182 192 -182 l 335 -182 q 349 -166 344 -182 q 339 -151 353 -150 q 214 -115 244 -151 q 196 -56 196 -94 q 204 25 196 -18 q 233 150 224 104 q 244 217 239 182 q 250 288 250 253 q 236 347 250 324 q 93 422 204 401 q 278 511 225 446 q 336 648 315 557 q 377 822 357 739 q 437 941 397 906 q 578 976 476 976 q 593 986 586 976 q 600 1002 600 996 q 585 1008 600 1008 "},"|":{"ha":674,"x_min":307,"x_max":367,"o":"m 367 -321 l 367 1040 l 307 1040 l 307 -321 l 367 -321 "},"}":{"ha":674,"x_min":26,"x_max":672,"o":"m 672 415 q 663 422 672 422 q 529 468 556 433 q 515 521 515 486 q 561 706 515 590 q 594 822 588 775 q 601 900 601 869 q 583 954 601 931 q 404 1003 547 1003 l 397 1003 q 378 978 378 985 q 389 971 378 971 q 514 933 489 971 q 525 885 525 918 q 514 815 525 853 q 478 697 503 778 q 461 638 469 674 q 449 578 453 603 q 444 524 444 553 q 454 478 444 496 q 588 403 483 421 q 407 326 467 379 q 339 224 368 290 q 294 96 310 157 q 194 -114 254 -67 q 47 -151 149 -151 q 26 -175 26 -151 q 36 -182 26 -181 l 43 -182 q 247 -135 179 -182 q 330 -30 297 -100 q 378 106 363 40 q 485 336 417 285 q 650 385 547 385 q 672 415 672 407 "},"~":{"ha":674,"x_min":219,"x_max":629,"o":"m 500 575 q 629 686 575 575 q 608 693 626 693 q 600 689 601 693 q 533 640 576 640 q 512 641 528 640 q 438 666 496 642 q 347 690 379 690 q 219 586 278 690 q 226 581 219 583 q 251 583 249 574 q 311 629 276 629 q 411 600 346 629 q 500 575 469 575 "},"":{"ha":360,"x_min":0,"x_max":0,"o":""},"":{"ha":557,"x_min":-61,"x_max":524,"o":"m -8 -414 q 64 -385 49 -414 l 417 288 l 418 297 l 404 299 q 173 -42 394 285 q -61 -401 -49 -368 l -58 -410 l -51 -412 l -8 -414 m 432 450 q 410 419 413 433 q 407 393 407 404 q 419 367 407 382 q 456 353 432 353 q 501 371 479 353 q 524 426 524 389 q 511 452 524 438 q 475 467 499 467 q 442 458 451 467 q 432 450 432 450 "},"":{"ha":439,"x_min":44,"x_max":469,"o":"m 207 761 q 294 848 249 817 q 367 879 340 879 q 408 858 394 879 q 415 819 419 842 q 397 836 413 828 q 364 844 382 844 q 321 826 339 844 q 303 781 303 808 q 322 734 303 753 q 370 715 340 715 q 422 741 400 715 q 443 803 443 767 q 424 867 443 839 q 371 906 404 896 q 413 1007 390 953 q 449 1094 435 1061 q 466 1137 463 1128 q 469 1153 469 1146 q 464 1167 469 1161 q 454 1174 458 1174 q 432 1147 443 1174 q 336 913 392 1050 l 328 913 q 324 913 326 913 q 229 882 279 913 q 144 810 179 851 q 83 707 108 769 q 51 605 57 644 q 46 535 46 565 q 67 471 46 506 q 158 418 93 424 q 131 353 154 404 q 49 93 49 168 q 101 6 49 24 q 114 4 107 4 q 127 15 121 4 q 114 31 133 26 q 85 82 85 36 q 172 364 85 158 q 196 418 193 411 q 374 526 299 422 q 374 547 381 535 q 357 544 368 560 q 203 442 274 442 q 126 547 126 442 q 207 761 126 651 "},"":{"ha":796,"x_min":33,"x_max":1136,"o":"m 421 333 l 446 342 q 508 349 478 349 q 568 346 538 349 q 534 286 565 342 q 492 213 503 231 q 445 140 481 196 q 356 40 410 85 q 286 92 306 78 q 223 125 267 106 q 140 144 179 144 q 67 123 100 144 q 33 58 33 101 q 89 -11 33 15 q 199 -37 144 -37 q 314 -10 254 -37 q 447 -64 347 -29 q 606 -112 547 -99 q 731 -125 665 -125 q 851 -97 797 -125 q 913 -1 906 -68 l 913 1 q 907 11 913 11 q 901 4 901 11 q 849 -84 901 -56 q 747 -112 796 -112 q 654 -102 697 -112 q 521 -53 611 -92 q 388 15 431 -15 q 674 332 560 114 q 761 326 729 326 q 822 338 793 326 q 826 353 826 339 q 821 367 826 367 q 794 360 815 367 q 747 356 774 356 q 689 360 719 356 q 747 490 722 432 q 816 610 772 547 q 928 729 860 674 q 1064 785 997 785 q 1117 739 1117 785 q 954 510 1117 644 q 946 499 946 504 q 954 493 946 493 q 969 500 963 493 q 1082 611 1028 542 q 1136 728 1136 681 q 1106 795 1136 775 q 1036 815 1076 815 q 583 374 836 815 q 500 378 553 378 q 408 358 447 378 q 404 342 404 356 q 411 329 404 329 l 421 333 m 145 93 q 293 3 185 75 q 188 -25 244 -25 q 83 7 131 -25 q 44 72 44 33 q 57 101 44 90 q 88 111 69 111 q 125 102 106 111 q 145 93 145 93 "},"":{"ha":932,"x_min":1,"x_max":908,"o":"m 235 361 q 251 294 235 326 l 1 58 l 301 240 q 416 208 351 208 q 540 242 481 208 l 757 65 l 610 293 q 672 438 672 363 q 654 507 672 476 l 908 744 l 606 564 q 495 597 561 597 q 367 564 429 597 l 153 736 l 297 511 q 235 361 235 449 m 353 298 q 314 399 314 338 q 358 503 314 461 q 458 544 403 544 q 553 504 513 544 q 594 403 594 464 q 549 301 594 343 q 447 258 503 258 q 372 278 392 258 q 353 298 353 298 "},"":{"ha":1003,"x_min":69,"x_max":1011,"o":"m 230 765 q 314 731 276 765 q 375 644 351 697 q 436 457 421 546 l 265 457 q 249 447 258 457 q 240 431 240 436 q 244 426 240 426 l 440 426 q 450 307 450 356 l 443 296 l 128 296 q 113 286 122 296 q 103 271 103 276 q 107 265 103 265 l 422 265 q 283 79 356 167 q 89 -43 181 -43 q 69 -52 69 -43 q 96 -61 69 -61 q 286 15 190 -61 q 493 265 374 86 l 632 265 q 647 275 638 265 q 657 290 657 285 q 653 296 657 296 l 513 296 l 586 426 l 725 426 q 741 436 732 426 q 750 451 750 446 q 747 457 750 457 l 603 457 q 614 476 606 463 q 919 836 818 836 q 971 813 949 836 q 993 761 993 790 l 990 744 q 1001 735 990 735 q 1011 767 1011 735 q 984 826 1011 799 q 922 854 957 854 q 846 829 886 854 q 774 773 806 804 q 703 691 743 742 q 645 614 663 640 q 611 562 628 588 q 583 516 594 536 q 561 479 571 496 q 540 450 551 463 q 528 428 528 438 l 500 385 q 378 711 490 578 q 233 783 315 783 q 138 728 175 783 q 100 610 100 672 q 136 499 100 547 q 143 494 140 494 q 153 504 153 494 q 117 617 117 569 q 150 715 117 664 q 207 765 183 765 q 230 765 230 765 "},"":{"ha":674,"x_min":233,"x_max":594,"o":"m 594 1040 l 522 1040 l 397 454 l 464 447 l 594 1040 m 432 300 l 367 306 l 233 -321 l 306 -321 l 432 300 "},"":{"ha":1311,"x_min":117,"x_max":1300,"o":"m 851 -57 q 926 -18 883 -44 q 1163 204 1082 75 q 1208 346 1208 276 q 1177 451 1208 394 q 1064 558 1146 508 q 892 645 1010 592 q 736 722 775 699 q 632 869 632 788 q 703 992 632 931 q 811 1053 749 1031 q 1029 1096 931 1096 q 1206 1035 1142 1096 q 1250 943 1250 992 q 1246 914 1250 929 q 1164 847 1231 856 q 1129 825 1126 843 q 1157 819 1132 813 q 1250 864 1215 836 q 1300 961 1300 907 q 1297 989 1300 975 q 1206 1095 1281 1060 q 1003 1131 1132 1131 q 758 1090 874 1131 q 561 940 622 1042 q 531 841 531 892 q 565 739 531 790 q 490 701 525 722 q 254 479 335 608 q 208 338 208 407 q 240 232 208 289 q 353 125 271 175 q 524 38 407 92 q 681 -39 642 -15 q 785 -186 785 -104 q 714 -308 785 -247 q 606 -369 668 -347 q 388 -412 486 -412 q 211 -351 275 -412 q 167 -260 167 -308 q 171 -231 167 -246 q 253 -164 186 -172 q 288 -142 290 -160 q 260 -136 285 -129 q 167 -181 201 -153 q 117 -278 117 -224 q 119 -306 117 -292 q 210 -412 136 -376 q 414 -447 285 -447 q 658 -407 543 -447 q 856 -258 794 -358 q 885 -158 885 -208 q 851 -57 885 -108 m 319 364 q 336 450 319 406 q 568 694 389 600 l 594 707 q 825 583 639 663 q 1013 486 967 522 q 1097 319 1097 414 q 1081 233 1097 278 q 849 -11 1028 83 l 822 -24 q 767 18 801 -4 q 591 101 732 40 q 404 197 450 161 q 319 364 319 269 "},"":{"ha":386,"x_min":53,"x_max":324,"o":"m 277 690 q 244 677 257 690 q 232 644 232 664 q 245 611 232 624 q 278 599 258 599 q 311 612 299 599 q 324 645 324 625 q 310 678 324 665 q 287 690 297 690 q 277 690 277 690 m 98 690 q 65 677 78 690 q 53 644 53 664 q 66 611 53 624 q 99 599 79 599 q 132 612 119 599 q 144 645 144 625 q 131 678 144 665 q 108 690 118 690 q 98 690 98 690 "},"":{"ha":996,"x_min":33,"x_max":967,"o":"m 94 321 q 249 643 94 507 q 556 761 382 761 q 809 663 714 761 q 904 435 904 564 q 750 114 904 250 q 439 -3 617 -3 q 189 95 283 -3 q 94 321 94 193 m 552 782 q 204 656 361 782 q 33 325 33 517 q 145 81 33 185 q 449 -22 257 -22 q 794 103 640 -22 q 967 436 967 243 q 855 677 967 572 q 648 782 743 782 q 552 782 552 782 m 554 453 q 574 444 563 444 q 603 458 586 444 q 635 528 635 489 q 615 579 635 558 q 551 600 596 600 q 392 504 463 600 q 332 396 357 458 q 307 282 307 333 q 336 206 307 239 q 432 172 365 172 q 613 282 544 172 q 617 299 618 292 q 608 306 615 307 q 592 293 600 304 q 444 193 525 193 q 391 219 408 193 q 374 286 374 246 q 442 474 374 374 q 568 574 510 574 q 596 543 596 574 q 554 453 596 499 "},"":{"ha":519,"x_min":69,"x_max":350,"o":"m 207 675 q 200 633 200 650 q 209 601 200 615 q 239 586 218 586 q 347 715 282 586 q 350 722 350 719 q 347 729 350 725 q 338 721 343 733 q 249 604 278 604 q 247 604 247 604 q 238 631 238 604 q 269 719 238 657 q 306 775 293 764 q 290 776 300 774 q 272 778 279 778 q 256 772 265 779 q 229 733 246 765 q 119 606 160 606 q 101 633 101 606 q 132 711 101 660 q 257 818 199 818 q 283 793 275 818 q 294 798 292 790 q 290 813 297 806 q 236 835 268 835 q 129 781 175 835 q 69 643 69 708 q 83 601 69 617 q 111 585 96 585 q 207 675 151 585 "},"":{"ha":626,"x_min":156,"x_max":663,"o":"m 663 413 l 661 422 l 653 426 q 439 300 640 426 q 357 249 363 251 q 377 149 360 236 q 410 33 394 61 l 421 29 l 431 33 l 438 47 l 439 236 q 542 308 443 239 q 663 413 640 378 m 463 413 l 461 422 l 451 426 q 238 300 436 426 q 156 249 161 251 q 175 155 161 226 q 208 33 189 83 q 219 29 213 29 l 229 33 l 236 47 l 238 236 q 303 281 240 239 q 463 413 440 375 "},"":{"ha":1122,"x_min":99,"x_max":929,"o":"m 821 19 q 858 50 854 19 l 929 385 l 140 385 q 114 367 129 385 q 99 336 99 349 q 126 318 99 318 l 851 318 l 794 50 q 801 29 793 39 q 821 19 810 19 "},"":{"ha":564,"x_min":204,"x_max":563,"o":"m 204 307 q 211 283 204 296 q 226 269 218 269 q 328 281 226 269 q 539 293 431 293 q 563 313 560 296 q 533 331 557 329 q 228 336 318 336 q 204 307 204 336 "},"":{"ha":996,"x_min":33,"x_max":967,"o":"m 552 782 q 204 656 361 782 q 33 325 33 517 q 145 81 33 185 q 449 -22 257 -22 q 794 103 640 -22 q 967 436 967 243 q 855 677 967 572 q 648 782 743 782 q 552 782 552 782 m 94 321 q 249 643 94 507 q 556 761 382 761 q 809 663 714 761 q 904 435 904 564 q 750 114 904 250 q 439 -3 617 -3 q 189 95 283 -3 q 94 321 94 193 m 428 239 q 531 399 476 290 q 533 375 531 397 q 572 238 544 286 q 668 175 608 175 q 729 198 707 175 q 793 306 751 221 q 792 315 796 313 q 782 306 789 317 q 682 199 735 199 q 628 243 657 199 q 564 415 581 314 q 731 449 658 415 q 808 538 808 486 q 714 622 808 594 q 683 628 704 625 q 657 633 663 632 q 656 651 661 651 q 636 636 651 651 q 538 643 592 643 q 404 632 483 643 q 269 575 325 621 q 214 472 214 529 q 239 410 214 433 q 303 388 264 388 q 375 421 343 388 q 396 456 393 436 q 393 475 399 475 q 391 464 392 475 q 365 428 390 453 q 306 403 340 403 q 259 422 276 403 q 242 457 242 440 q 243 483 242 474 q 296 559 253 524 q 412 610 339 594 q 538 625 485 625 q 624 622 592 625 q 556 525 593 589 q 519 461 543 503 q 466 365 496 419 q 389 256 436 311 q 328 208 360 222 q 267 193 297 193 q 221 207 236 193 q 207 234 207 221 q 218 265 207 247 q 251 282 229 282 q 285 277 272 282 q 301 275 297 272 q 296 282 306 278 q 244 292 268 292 q 203 283 221 292 q 169 238 169 267 q 269 174 169 174 q 428 239 369 174 m 742 506 q 628 440 701 450 l 561 433 q 661 615 593 501 q 713 605 697 610 q 744 588 728 600 q 760 553 760 575 q 742 506 760 532 "},"":{"ha":674,"x_min":254,"x_max":568,"o":"m 568 613 l 272 613 l 254 571 l 551 571 l 568 613 "},"":{"ha":449,"x_min":138,"x_max":315,"o":"m 226 1044 q 164 1018 190 1044 q 138 955 138 992 q 162 892 138 918 q 224 867 186 867 q 289 892 263 867 q 315 955 315 918 q 289 1018 315 992 q 244 1044 263 1044 q 226 1044 226 1044 m 228 888 q 183 902 206 888 q 161 949 161 917 q 180 999 161 981 q 226 1018 199 1018 q 271 999 253 1018 q 289 955 289 981 q 269 908 289 929 q 239 888 250 888 q 228 888 228 888 "},"":{"ha":636,"x_min":183,"x_max":674,"o":"m 229 404 q 197 364 201 400 q 213 338 199 336 q 305 344 233 340 q 410 350 376 347 q 360 156 360 163 q 379 139 360 139 q 394 140 386 139 q 428 163 425 147 q 447 286 429 182 q 460 353 456 328 q 644 361 643 361 q 674 379 674 361 q 669 392 674 385 q 649 399 664 399 l 468 399 q 508 600 500 569 q 500 631 515 631 q 469 599 479 631 q 446 499 463 572 q 422 400 429 425 l 229 404 m 207 97 q 183 68 183 97 q 190 44 183 57 q 206 31 197 31 q 207 31 206 31 q 574 49 361 49 q 597 63 597 50 q 597 68 597 65 q 568 86 592 86 l 207 97 "},"":{"ha":440,"x_min":-7,"x_max":454,"o":"m 18 338 l 79 385 q 219 342 143 342 q 363 447 281 342 q 370 476 376 471 q 347 462 364 482 q 297 422 331 442 q 242 403 264 403 q 191 416 221 403 q 146 444 161 429 l 158 456 q 336 611 261 542 q 424 710 394 667 q 454 788 454 754 q 428 843 454 822 q 363 864 403 864 q 243 814 296 864 q 167 697 190 764 q 175 678 163 685 q 196 692 188 672 q 247 776 221 744 q 319 819 274 807 q 353 815 339 825 q 368 778 368 806 q 147 478 368 674 q 66 408 129 460 q -1 354 3 357 q -7 338 -7 343 q -1 333 -7 333 q 18 338 6 333 "},"":{"ha":414,"x_min":6,"x_max":439,"o":"m 439 804 q 417 851 439 836 q 360 867 394 867 q 189 764 272 867 q 193 747 186 747 q 207 754 200 746 q 317 821 265 821 q 341 815 329 821 q 353 799 353 808 q 289 683 353 735 q 163 619 225 632 q 154 608 153 615 q 203 608 156 593 q 228 617 217 614 q 253 621 240 621 q 277 606 265 621 q 289 569 289 592 q 227 430 289 500 q 89 360 165 360 q 49 374 68 360 q 24 407 31 388 q 6 406 6 414 q 10 389 6 399 q 94 338 29 338 q 278 408 192 338 q 364 560 364 478 q 274 644 364 631 q 439 804 439 713 "},"":{"ha":371,"x_min":75,"x_max":347,"o":"m 85 574 q 218 627 100 574 q 343 697 336 681 q 347 716 347 706 q 333 733 347 726 q 299 740 318 740 q 261 726 281 740 q 199 681 242 711 q 119 624 156 651 q 79 592 82 596 q 76 583 76 588 q 80 576 76 578 q 85 574 83 574 "},"":{"ha":450,"x_min":-179,"x_max":574,"o":"m 372 -11 q 574 224 468 -11 l 571 226 l 563 226 q 453 50 515 121 q 375 3 410 3 q 351 31 351 3 q 447 263 351 85 l 556 472 l 551 474 q 515 446 540 446 q 474 456 490 446 l 471 456 q 364 250 436 378 q 149 7 228 7 q 114 44 114 7 q 196 250 114 103 q 265 369 226 299 q 328 467 303 439 l 325 469 q 258 440 290 440 q 236 447 246 440 l 233 447 q 158 317 194 389 q 122 243 146 292 q 89 176 99 194 l -179 -350 q -174 -357 -179 -351 q -133 -365 -156 -365 q -107 -361 -110 -365 l 72 31 q 139 -8 93 -8 q 232 39 185 -8 q 314 143 279 86 q 300 69 300 104 q 319 11 300 33 q 372 -11 338 -11 "},"":{"ha":560,"x_min":225,"x_max":839,"o":"m 276 556 q 410 504 314 504 l 225 0 l 318 0 l 625 839 l 693 839 l 386 0 l 479 0 l 786 839 l 814 839 l 839 908 l 600 908 q 451 886 510 908 q 344 813 393 864 q 276 709 296 763 q 257 618 257 656 q 276 556 257 581 "},"":{"ha":363,"x_min":172,"x_max":289,"o":"m 264 282 q 286 313 283 299 q 289 339 289 328 q 276 365 289 350 q 240 379 264 379 q 194 361 217 379 q 172 306 172 343 q 185 280 172 294 q 221 265 197 265 q 254 274 244 265 q 264 282 264 282 "},"":{"ha":526,"x_min":100,"x_max":453,"o":"m 304 -54 q 233 -58 261 -54 q 275 -22 233 -51 q 294 -10 293 -11 q 285 1 290 1 q 232 -35 279 1 q 178 -78 185 -71 q 171 -92 171 -85 q 179 -106 171 -100 q 194 -112 188 -112 q 233 -96 200 -112 q 302 -79 267 -79 q 369 -100 338 -79 q 401 -153 401 -121 q 382 -215 401 -186 q 256 -265 350 -265 q 129 -231 163 -265 q 107 -215 114 -215 q 100 -225 100 -215 q 165 -273 100 -257 q 287 -289 229 -289 q 381 -265 344 -289 q 453 -162 453 -217 q 400 -81 453 -107 q 326 -54 347 -54 q 304 -54 304 -54 "},"":{"ha":342,"x_min":44,"x_max":371,"o":"m 293 825 q 151 693 190 722 l 129 676 q 117 656 115 661 q 144 664 119 650 q 199 699 161 676 q 251 732 238 721 l 44 347 q 68 339 44 339 q 121 356 110 339 q 244 594 164 433 q 368 835 324 754 q 369 851 369 844 q 361 857 369 857 q 335 856 353 857 q 293 825 318 854 "},"":{"ha":379,"x_min":79,"x_max":343,"o":"m 132 593 q 190 617 160 593 q 278 618 222 579 q 342 722 306 638 q 343 728 343 725 q 340 733 343 731 q 333 729 336 735 q 318 697 322 704 q 307 674 314 689 q 292 651 300 660 q 276 631 285 642 q 256 616 267 621 q 228 611 246 611 q 203 628 211 611 q 260 703 243 664 q 276 771 276 743 q 265 817 276 799 q 228 836 253 836 q 225 836 226 836 q 153 802 192 836 q 98 726 115 768 q 81 656 81 683 q 92 611 81 629 q 129 593 104 593 q 132 593 131 593 m 215 661 q 216 665 215 663 q 217 669 217 668 q 195 689 217 689 q 171 660 174 689 q 182 625 171 643 q 142 608 161 608 q 117 637 117 608 q 140 715 117 665 q 190 789 164 764 q 235 814 217 814 q 258 772 258 814 q 215 661 258 729 "},"":{"ha":626,"x_min":38,"x_max":546,"o":"m 464 219 q 397 172 453 211 q 240 44 258 75 l 240 32 l 250 29 l 261 31 l 546 208 q 524 311 546 211 q 493 421 503 411 l 482 426 l 471 421 q 463 311 463 406 l 464 219 m 344 208 q 328 297 340 229 q 294 421 315 365 l 282 426 l 271 421 q 267 415 269 419 q 264 408 265 410 l 263 219 l 249 210 q 215 187 235 200 q 172 156 196 174 q 124 119 147 138 q 69 76 101 101 q 38 38 38 51 l 39 32 q 50 29 44 29 l 60 31 l 344 208 "},"":{"ha":864,"x_min":44,"x_max":850,"o":"m 733 472 q 614 329 704 432 l 557 269 q 478 185 510 224 l 472 158 l 676 163 q 631 77 671 153 q 590 -1 590 1 q 615 -6 603 -6 q 649 -1 628 -6 q 678 10 671 3 l 758 167 l 779 167 q 806 181 801 176 q 810 186 808 183 q 810 193 811 189 q 785 201 808 197 l 778 201 q 831 308 831 299 q 833 317 833 313 q 803 327 836 331 q 750 303 769 324 q 697 199 714 233 l 529 194 q 589 254 553 225 q 850 496 849 476 q 824 504 842 504 q 733 472 753 504 m 757 842 q 449 448 696 757 q 90 13 201 139 q 81 -5 78 -1 q 89 -8 85 -8 q 278 171 121 -8 q 394 308 336 239 q 524 467 453 378 q 642 614 596 556 q 748 746 689 672 q 815 830 807 819 q 824 846 824 840 q 797 858 824 858 q 757 842 771 858 m 293 825 q 151 693 190 722 l 129 676 q 117 656 115 661 q 144 664 119 650 q 199 699 161 676 q 251 732 238 721 l 44 347 q 68 339 44 339 q 121 356 110 339 q 244 594 164 433 q 368 835 324 754 q 369 851 369 844 q 361 857 369 857 q 335 856 353 857 q 293 825 318 854 "},"":{"ha":864,"x_min":39,"x_max":858,"o":"m 715 842 q 407 448 654 757 q 100 71 160 139 q 40 -1 40 3 q 42 -7 40 -6 q 236 171 63 -28 q 353 308 294 239 q 483 467 411 378 q 601 614 554 556 q 706 746 647 672 q 778 835 765 819 q 765 857 790 851 q 744 858 758 858 q 715 842 729 858 m 335 856 q 293 825 318 854 q 151 693 190 722 l 129 676 q 117 656 115 661 q 144 664 119 650 q 199 699 161 676 q 251 732 238 721 l 44 347 q 60 339 44 340 q 96 342 76 338 q 121 356 115 347 q 244 594 164 433 q 368 835 324 754 q 369 855 372 853 q 360 857 367 857 q 344 856 353 857 q 335 856 335 856 m 422 -10 l 483 38 q 624 -6 547 -6 q 767 100 685 -6 q 774 129 781 124 q 751 115 768 135 q 701 75 735 94 q 647 56 668 56 q 595 69 625 56 q 550 97 565 82 l 563 108 q 739 264 665 194 q 828 363 799 319 q 858 441 858 407 q 833 496 858 475 q 767 517 807 517 q 647 467 700 517 q 571 350 594 417 q 579 331 567 338 q 600 344 592 325 q 651 428 625 397 q 722 472 678 460 q 758 468 743 478 q 772 431 772 458 q 551 131 772 326 q 470 61 533 113 q 403 7 407 10 q 397 -9 397 -4 q 403 -14 397 -14 q 422 -10 410 -14 "},"":{"ha":864,"x_min":6,"x_max":850,"o":"m 733 472 q 614 329 704 432 l 557 269 q 478 185 510 224 l 472 158 l 676 163 q 631 77 671 153 q 590 -1 590 1 q 615 -6 603 -6 q 649 -1 628 -6 q 678 10 671 3 l 758 167 l 779 167 q 806 181 801 176 q 810 186 808 183 q 810 193 811 189 q 785 201 808 197 l 778 201 q 831 308 831 299 q 833 317 833 313 q 803 327 836 331 q 750 303 769 324 q 697 199 714 233 l 529 194 q 589 254 553 225 q 850 496 849 476 q 824 504 842 504 q 733 472 753 504 m 439 804 q 417 851 439 836 q 360 867 394 867 q 189 764 272 867 q 193 747 186 747 q 207 754 200 746 q 317 821 265 821 q 341 815 329 821 q 353 799 353 808 q 289 683 353 735 q 163 619 225 632 q 154 608 153 615 q 203 608 156 593 q 228 617 217 614 q 253 621 240 621 q 277 606 265 621 q 289 569 289 592 q 227 430 289 500 q 89 360 165 360 q 49 374 68 360 q 24 407 31 388 q 6 406 6 414 q 10 389 6 399 q 94 338 29 338 q 278 408 192 338 q 364 560 364 478 q 274 644 364 631 q 439 804 439 713 m 277 171 q 394 308 336 239 q 524 467 453 378 q 642 614 596 556 q 748 746 689 672 q 815 830 807 819 q 824 846 824 840 q 797 858 824 858 q 757 842 771 858 q 449 448 696 757 q 90 13 201 139 q 82 -3 82 3 q 88 -8 82 -8 q 112 3 94 -8 q 174 58 129 14 q 248 137 218 103 q 277 171 277 171 "},"":{"ha":550,"x_min":8,"x_max":524,"o":"m 158 -204 q 236 -109 168 -192 q 329 8 304 -26 q 390 104 354 42 q 438 215 426 167 q 428 233 440 229 q 411 225 417 238 q 333 79 379 140 q 210 -58 288 18 q 100 -169 132 -133 q 8 -351 8 -274 q 18 -392 8 -374 q 139 -454 54 -454 q 303 -401 213 -454 q 392 -318 372 -361 q 401 -271 401 -290 q 394 -237 401 -251 q 332 -199 379 -199 q 271 -222 301 -199 q 240 -281 240 -246 q 264 -328 240 -315 q 289 -333 274 -333 q 328 -322 304 -333 q 376 -272 369 -299 q 376 -279 376 -275 q 354 -326 376 -300 q 296 -369 332 -351 q 236 -390 260 -387 q 194 -392 213 -392 q 156 -383 176 -392 q 108 -319 108 -361 q 158 -204 108 -268 m 432 450 q 410 419 413 433 q 407 393 407 404 q 419 367 407 382 q 456 353 432 353 q 501 371 479 353 q 524 426 524 389 q 511 452 524 438 q 475 467 499 467 q 442 458 451 467 q 432 450 432 450 "},"":{"ha":989,"x_min":28,"x_max":1135,"o":"m 878 563 q 801 488 843 563 q 476 99 685 274 q 215 -24 328 -24 q 99 92 115 -24 q 97 119 97 104 q 137 290 97 192 q 235 481 176 389 q 326 603 293 572 q 618 560 458 560 q 1036 660 906 560 q 1135 814 1135 736 q 1074 937 1135 892 q 910 982 1014 982 q 565 897 729 982 q 268 668 400 811 q 153 749 199 699 q 118 818 118 785 q 125 850 118 833 q 126 878 132 867 q 101 874 115 892 q 82 811 82 860 q 114 729 82 763 q 244 640 156 682 q 122 461 176 567 q 29 142 29 275 q 125 -49 29 -8 q 180 -65 157 -65 q 213 -64 203 -65 q 397 -3 314 -54 q 696 267 556 99 q 658 176 672 235 q 643 58 643 118 q 671 -45 643 -1 q 753 -89 699 -89 q 864 -55 808 -89 q 957 31 919 -21 q 1086 253 1029 126 q 1085 278 1096 275 q 1063 258 1074 281 q 942 61 1021 163 q 786 -47 853 -47 q 747 -25 764 -47 q 729 38 729 -3 q 738 125 729 79 q 876 451 778 343 q 908 526 908 488 q 878 563 908 563 m 1081 835 q 986 675 1081 739 q 615 592 863 592 q 347 628 464 592 q 610 863 474 776 q 914 949 746 949 q 1035 919 989 949 q 1081 835 1081 889 m 1042 1019 q 942 1103 1042 1026 q 830 1181 843 1181 q 809 1172 817 1181 q 801 1153 801 1164 q 850 1096 801 1118 q 939 1049 858 1092 q 1029 1007 1019 1007 q 1042 1019 1042 1007 "},"":{"ha":989,"x_min":28,"x_max":1193,"o":"m 1106 1161 q 1028 1106 1099 1154 q 953 1049 958 1057 q 957 1032 947 1038 q 965 1032 957 1032 q 1077 1080 972 1032 q 1188 1139 1182 1128 q 1193 1159 1193 1150 q 1180 1174 1193 1168 q 1150 1181 1167 1181 q 1106 1161 1133 1181 m 878 563 q 801 488 843 563 q 476 99 685 274 q 215 -24 328 -24 q 99 92 115 -24 q 97 119 97 104 q 137 290 97 192 q 235 481 176 389 q 326 603 293 572 q 618 560 458 560 q 1036 660 906 560 q 1135 814 1135 736 q 1074 937 1135 892 q 910 982 1014 982 q 565 897 729 982 q 268 668 400 811 q 153 749 199 699 q 118 818 118 785 q 125 850 118 833 q 126 878 132 867 q 101 874 115 892 q 82 811 82 860 q 114 729 82 763 q 244 640 156 682 q 122 461 176 567 q 29 142 29 275 q 125 -49 29 -8 q 180 -65 157 -65 q 213 -64 203 -65 q 397 -3 314 -54 q 696 267 556 99 q 658 176 672 235 q 643 58 643 118 q 671 -45 643 -1 q 753 -89 699 -89 q 864 -55 808 -89 q 957 31 919 -21 q 1086 253 1029 126 q 1085 278 1096 275 q 1063 258 1074 281 q 942 61 1021 163 q 786 -47 853 -47 q 747 -25 764 -47 q 729 38 729 -3 q 738 125 729 79 q 876 451 778 343 q 908 526 908 488 q 878 563 908 563 m 1081 835 q 986 675 1081 739 q 615 592 863 592 q 347 628 464 592 q 610 863 474 776 q 914 949 746 949 q 1035 919 989 949 q 1081 835 1081 889 "},"":{"ha":989,"x_min":28,"x_max":1135,"o":"m 988 1176 l 781 1029 q 782 1022 775 1025 q 815 1029 801 1017 q 999 1128 833 1039 l 1063 1029 q 1082 1021 1068 1021 q 1090 1029 1094 1021 l 1040 1176 q 1026 1181 1039 1181 q 988 1176 1014 1181 m 878 563 q 801 488 843 563 q 476 99 685 274 q 215 -24 328 -24 q 99 92 115 -24 q 97 119 97 104 q 137 290 97 192 q 235 481 176 389 q 326 603 293 572 q 618 560 458 560 q 1036 660 906 560 q 1135 814 1135 736 q 1074 937 1135 892 q 910 982 1014 982 q 565 897 729 982 q 268 668 400 811 q 153 749 199 699 q 118 818 118 785 q 125 850 118 833 q 126 878 132 867 q 101 874 115 892 q 82 811 82 860 q 114 729 82 763 q 244 640 156 682 q 122 461 176 567 q 29 142 29 275 q 125 -49 29 -8 q 180 -65 157 -65 q 213 -64 203 -65 q 397 -3 314 -54 q 696 267 556 99 q 658 176 672 235 q 643 58 643 118 q 671 -45 643 -1 q 753 -89 699 -89 q 864 -55 808 -89 q 957 31 919 -21 q 1086 253 1029 126 q 1085 278 1096 275 q 1063 258 1074 281 q 942 61 1021 163 q 786 -47 853 -47 q 747 -25 764 -47 q 729 38 729 -3 q 738 125 729 79 q 876 451 778 343 q 908 526 908 488 q 878 563 908 563 m 1081 835 q 986 675 1081 739 q 615 592 863 592 q 347 628 464 592 q 610 863 474 776 q 914 949 746 949 q 1035 919 989 949 q 1081 835 1081 889 "},"":{"ha":989,"x_min":28,"x_max":1206,"o":"m 1076 1063 q 1206 1174 1151 1063 q 1185 1181 1203 1181 q 1176 1176 1178 1181 q 1110 1128 1153 1128 q 1088 1128 1104 1128 q 1014 1153 1072 1129 q 924 1178 956 1178 q 796 1074 854 1178 q 803 1068 796 1071 q 828 1071 825 1061 q 888 1117 853 1117 q 988 1088 922 1117 q 1076 1063 1046 1063 m 878 563 q 801 488 843 563 q 476 99 685 274 q 215 -24 328 -24 q 99 92 115 -24 q 97 119 97 104 q 137 290 97 192 q 235 481 176 389 q 326 603 293 572 q 618 560 458 560 q 1036 660 906 560 q 1135 814 1135 736 q 1074 937 1135 892 q 910 982 1014 982 q 565 897 729 982 q 268 668 400 811 q 153 749 199 699 q 118 818 118 785 q 125 850 118 833 q 126 878 132 867 q 101 874 115 892 q 82 811 82 860 q 114 729 82 763 q 244 640 156 682 q 122 461 176 567 q 29 142 29 275 q 125 -49 29 -8 q 180 -65 157 -65 q 213 -64 203 -65 q 397 -3 314 -54 q 696 267 556 99 q 658 176 672 235 q 643 58 643 118 q 671 -45 643 -1 q 753 -89 699 -89 q 864 -55 808 -89 q 957 31 919 -21 q 1086 253 1029 126 q 1085 278 1096 275 q 1063 258 1074 281 q 942 61 1021 163 q 786 -47 853 -47 q 747 -25 764 -47 q 729 38 729 -3 q 738 125 729 79 q 876 451 778 343 q 908 526 908 488 q 878 563 908 563 m 1081 835 q 986 675 1081 739 q 615 592 863 592 q 347 628 464 592 q 610 863 474 776 q 914 949 746 949 q 1035 919 989 949 q 1081 835 1081 889 "},"":{"ha":989,"x_min":28,"x_max":1163,"o":"m 1116 1181 q 1083 1167 1096 1181 q 1071 1134 1071 1154 q 1084 1101 1071 1114 q 1117 1089 1097 1089 q 1150 1102 1138 1089 q 1163 1135 1163 1115 q 1149 1168 1163 1156 q 1126 1181 1136 1181 q 1116 1181 1116 1181 m 937 1181 q 904 1167 917 1181 q 892 1134 892 1154 q 905 1101 892 1114 q 938 1089 918 1089 q 971 1102 958 1089 q 983 1135 983 1115 q 970 1168 983 1156 q 947 1181 957 1181 q 937 1181 937 1181 m 878 563 q 801 488 843 563 q 476 99 685 274 q 215 -24 328 -24 q 99 92 115 -24 q 97 119 97 104 q 137 290 97 192 q 235 481 176 389 q 326 603 293 572 q 618 560 458 560 q 1036 660 906 560 q 1135 814 1135 736 q 1074 937 1135 892 q 910 982 1014 982 q 565 897 729 982 q 268 668 400 811 q 153 749 199 699 q 118 818 118 785 q 125 850 118 833 q 126 878 132 867 q 101 874 115 892 q 82 811 82 860 q 114 729 82 763 q 244 640 156 682 q 122 461 176 567 q 29 142 29 275 q 125 -49 29 -8 q 180 -65 157 -65 q 213 -64 203 -65 q 397 -3 314 -54 q 696 267 556 99 q 658 176 672 235 q 643 58 643 118 q 671 -45 643 -1 q 753 -89 699 -89 q 864 -55 808 -89 q 957 31 919 -21 q 1086 253 1029 126 q 1085 278 1096 275 q 1063 258 1074 281 q 942 61 1021 163 q 786 -47 853 -47 q 747 -25 764 -47 q 729 38 729 -3 q 738 125 729 79 q 876 451 778 343 q 908 526 908 488 q 878 563 908 563 m 1081 835 q 986 675 1081 739 q 615 592 863 592 q 347 628 464 592 q 610 863 474 776 q 914 949 746 949 q 1035 919 989 949 q 1081 835 1081 889 "},"":{"ha":989,"x_min":28,"x_max":1186,"o":"m 1058 1067 q 1049 1104 1047 1082 q 1064 1141 1050 1126 q 1096 1157 1078 1156 q 1125 1144 1114 1158 q 1135 1107 1136 1129 q 1119 1069 1132 1085 q 1088 1053 1106 1053 q 1064 1060 1069 1053 q 1058 1067 1058 1067 m 1103 1179 q 1031 1153 1067 1179 q 1000 1093 1000 1129 q 1022 1049 1000 1068 q 1082 1029 1043 1029 q 1154 1054 1121 1029 q 1185 1109 1185 1078 q 1163 1160 1185 1140 q 1122 1179 1140 1179 q 1103 1179 1103 1179 m 878 563 q 801 488 843 563 q 476 99 685 274 q 215 -24 328 -24 q 99 92 115 -24 q 97 119 97 104 q 137 290 97 192 q 235 481 176 389 q 326 603 293 572 q 618 560 458 560 q 1036 660 906 560 q 1135 814 1135 736 q 1074 937 1135 892 q 910 982 1014 982 q 565 897 729 982 q 268 668 400 811 q 153 749 199 699 q 118 818 118 785 q 125 850 118 833 q 126 878 132 867 q 101 874 115 892 q 82 811 82 860 q 114 729 82 763 q 244 640 156 682 q 122 461 176 567 q 29 142 29 275 q 125 -49 29 -8 q 180 -65 157 -65 q 213 -64 203 -65 q 397 -3 314 -54 q 696 267 556 99 q 658 176 672 235 q 643 58 643 118 q 671 -45 643 -1 q 753 -89 699 -89 q 864 -55 808 -89 q 957 31 919 -21 q 1086 253 1029 126 q 1085 278 1096 275 q 1063 258 1074 281 q 942 61 1021 163 q 786 -47 853 -47 q 747 -25 764 -47 q 729 38 729 -3 q 738 125 729 79 q 876 451 778 343 q 908 526 908 488 q 878 563 908 563 m 1081 835 q 986 675 1081 739 q 615 592 863 592 q 347 628 464 592 q 610 863 474 776 q 914 949 746 949 q 1035 919 989 949 q 1081 835 1081 889 "},"":{"ha":1907,"x_min":25,"x_max":1878,"o":"m 1342 481 q 1401 506 1396 481 q 1376 548 1404 532 q 1301 574 1347 564 q 1208 596 1256 583 q 1122 638 1161 608 q 1071 713 1082 667 q 1194 897 1194 792 q 1183 954 1194 925 q 1372 1051 1268 1021 q 1561 1081 1476 1081 q 1747 1021 1701 1081 q 1774 963 1774 989 q 1768 919 1774 936 q 1707 822 1751 867 q 1610 771 1663 776 q 1558 749 1558 765 q 1575 739 1558 739 q 1618 744 1592 739 q 1793 827 1725 768 q 1861 950 1861 886 q 1806 1050 1861 1003 q 1536 1117 1722 1117 q 1369 1091 1482 1117 q 1153 1004 1257 1065 q 956 1074 1088 1074 q 278 711 604 1074 q 160 793 200 747 q 119 876 119 839 q 127 911 119 893 q 126 942 135 929 q 101 935 115 953 q 81 868 81 921 q 114 778 81 815 q 253 682 160 726 q 131 506 186 606 q 25 155 25 317 q 125 -49 25 -7 q 180 -67 157 -67 q 211 -65 203 -67 q 392 -6 310 -57 q 478 53 439 24 q 578 142 518 83 q 688 258 639 200 q 669 174 669 217 q 746 -24 669 53 q 1146 -158 881 -158 q 1499 -105 1328 -158 q 1774 36 1669 -51 q 1878 204 1878 125 q 1801 304 1878 267 q 1763 315 1781 315 q 1747 306 1746 315 q 1790 285 1750 294 q 1831 238 1831 275 q 1724 76 1831 168 q 1467 -65 1625 -6 q 1167 -125 1308 -125 q 942 -87 1026 -125 q 778 156 778 -15 q 886 386 778 288 q 1183 482 988 482 l 1342 481 m 1151 547 q 1013 524 1074 543 q 913 486 951 506 l 919 497 q 954 578 954 535 q 922 618 954 618 q 834 525 883 618 q 683 310 785 432 q 476 99 582 188 q 215 -24 328 -24 q 99 92 115 -24 q 97 119 97 104 q 150 323 97 192 q 343 653 203 454 q 648 614 464 614 q 978 667 832 614 q 1151 547 1029 588 m 1115 981 q 957 733 958 874 q 963 699 957 721 q 779 655 871 663 q 621 647 688 647 q 365 681 469 647 q 490 817 432 760 q 622 928 547 874 q 781 1010 696 982 q 969 1038 867 1038 q 1115 981 1071 1038 m 1138 913 q 1067 764 1138 828 l 1068 769 q 1138 913 1072 840 "},"":{"ha":986,"x_min":83,"x_max":1183,"o":"m 532 -185 q 461 -189 489 -185 q 501 -154 461 -181 q 521 -140 518 -143 q 533 -140 528 -140 q 860 -35 704 -140 q 985 85 940 22 q 1083 254 1031 147 q 1084 281 1093 275 q 1067 268 1075 286 q 967 98 1014 160 q 839 -12 921 36 q 510 -93 703 -93 q 369 -69 450 -93 q 239 17 288 -44 q 181 156 190 79 q 175 239 175 199 q 181 339 175 279 q 222 510 186 399 q 290 668 257 621 q 635 432 386 468 q 733 425 685 425 q 943 467 847 425 q 1153 664 1092 531 q 1182 793 1182 731 q 1151 914 1182 856 q 863 1078 1076 1054 q 788 1082 824 1082 q 546 1032 661 1082 q 285 824 396 967 q 267 984 267 921 q 272 1081 267 1047 q 264 1115 278 1115 q 255 1110 261 1115 q 246 1094 249 1106 q 228 948 228 1026 q 251 776 228 869 q 151 607 193 703 q 96 429 108 511 q 83 297 83 347 q 89 206 83 247 q 160 26 101 108 q 310 -94 219 -56 q 493 -139 401 -132 q 406 -207 414 -199 q 399 -223 399 -215 q 407 -237 399 -231 q 422 -243 415 -243 q 461 -226 428 -243 q 530 -210 494 -210 q 597 -231 565 -210 q 629 -284 629 -251 q 610 -346 629 -317 q 484 -396 578 -396 q 357 -361 390 -396 q 335 -346 342 -346 q 328 -356 328 -346 q 392 -403 328 -387 q 515 -419 457 -419 q 608 -396 572 -419 q 681 -292 681 -347 q 628 -211 681 -237 q 553 -185 575 -185 q 532 -185 532 -185 m 574 961 q 811 1029 693 1029 q 1010 978 929 1029 q 1118 783 1118 908 q 1012 560 1118 658 q 729 461 906 461 q 318 713 417 461 q 574 961 424 874 "},"":{"ha":1253,"x_min":26,"x_max":1199,"o":"m 1118 1032 q 1029 1110 1118 1039 q 924 1181 940 1181 q 901 1151 901 1181 q 946 1103 901 1122 q 1026 1061 951 1100 q 1106 1022 1100 1022 q 1118 1032 1118 1022 m 682 435 q 742 467 742 435 q 636 522 742 503 q 541 546 588 532 q 470 591 494 560 q 446 661 446 622 q 551 840 446 758 q 742 938 639 908 q 942 968 846 968 q 1083 931 1039 968 q 1115 867 1115 901 q 1089 786 1115 832 q 1028 722 1067 749 q 946 691 990 696 q 901 671 901 686 q 917 663 901 663 q 957 668 932 663 q 1128 744 1057 690 q 1199 857 1199 799 q 1153 939 1199 900 q 926 1000 1081 1000 q 710 967 836 1000 q 469 849 585 935 q 344 657 354 764 q 344 649 344 653 q 392 562 344 601 q 510 497 439 522 q 359 470 443 494 q 201 396 275 446 q 89 288 128 346 q 39 184 50 229 q 28 108 28 139 q 39 44 28 78 q 244 -135 88 -86 q 476 -162 333 -162 q 783 -112 619 -162 q 1055 22 947 -62 q 1163 185 1163 107 q 1100 271 1163 238 q 1061 281 1085 279 q 1040 269 1038 282 q 1075 252 1042 260 q 1108 213 1108 244 q 994 57 1108 146 q 749 -76 894 -21 q 472 -132 603 -132 q 263 -97 340 -132 q 156 -9 186 -62 q 126 108 126 44 q 247 347 126 244 q 533 436 350 436 l 682 435 "},"":{"ha":1253,"x_min":26,"x_max":1242,"o":"m 1047 1081 q 1011 1051 1015 1058 q 1017 1039 1007 1044 q 1024 1039 1017 1039 q 1131 1084 1032 1039 q 1235 1140 1231 1129 q 1240 1159 1240 1150 q 1228 1174 1240 1168 q 1201 1179 1217 1179 q 1168 1167 1185 1179 q 1115 1130 1151 1156 q 1063 1093 1079 1104 q 1047 1081 1047 1081 m 682 431 q 742 463 742 431 q 636 522 742 499 q 541 548 588 532 q 470 597 494 564 q 446 658 446 631 q 449 701 446 686 q 639 911 472 829 q 908 979 778 979 q 1081 940 1038 979 q 1114 876 1114 911 q 1114 867 1114 872 q 1025 722 1103 778 q 944 688 986 693 q 897 667 903 683 q 912 658 896 658 q 953 664 928 658 q 1126 744 1054 686 q 1197 864 1197 801 q 1151 949 1197 908 q 919 1013 1078 1013 q 706 982 829 1013 q 467 865 582 951 q 343 667 353 779 q 343 658 343 663 q 392 563 343 607 q 510 493 442 518 q 359 466 443 490 q 201 392 275 442 q 89 283 128 342 q 39 180 50 225 q 28 104 28 135 q 39 40 28 74 q 244 -139 88 -90 q 476 -167 333 -167 q 783 -117 619 -167 q 1055 18 947 -67 q 1163 181 1163 103 q 1100 267 1163 233 q 1061 276 1085 275 q 1040 265 1038 278 q 1075 248 1042 256 q 1108 208 1108 240 q 994 53 1108 142 q 749 -81 894 -25 q 472 -136 603 -136 q 263 -101 340 -136 q 156 -13 186 -67 q 126 104 126 40 q 247 343 126 240 q 533 432 350 432 l 682 431 "},"":{"ha":1253,"x_min":26,"x_max":1199,"o":"m 682 435 q 742 467 742 435 q 636 522 742 503 q 541 546 588 532 q 470 591 494 560 q 446 661 446 622 q 551 840 446 758 q 742 938 639 908 q 942 968 846 968 q 1083 931 1039 968 q 1115 867 1115 901 q 1089 786 1115 832 q 1028 722 1067 749 q 946 691 990 696 q 901 671 901 686 q 917 663 901 663 q 957 668 932 663 q 1128 744 1057 690 q 1199 857 1199 799 q 1153 939 1199 900 q 926 1000 1081 1000 q 710 967 836 1000 q 469 849 585 935 q 344 657 354 764 q 344 649 344 653 q 392 562 344 601 q 510 497 439 522 q 359 470 443 494 q 201 396 275 446 q 89 288 128 346 q 39 184 50 229 q 28 108 28 139 q 39 44 28 78 q 244 -135 88 -86 q 476 -162 333 -162 q 783 -112 619 -162 q 1055 22 947 -62 q 1163 185 1163 107 q 1100 271 1163 238 q 1061 281 1085 279 q 1040 269 1038 282 q 1075 252 1042 260 q 1108 213 1108 244 q 994 57 1108 146 q 749 -76 894 -21 q 472 -132 603 -132 q 263 -97 340 -132 q 156 -9 186 -62 q 126 108 126 44 q 247 347 126 244 q 533 436 350 436 l 682 435 m 1022 1131 l 1085 1036 q 1102 1029 1090 1029 q 1114 1032 1114 1029 q 1113 1036 1114 1035 l 1064 1176 q 1050 1181 1064 1181 q 1011 1176 1036 1181 l 807 1036 q 804 1031 804 1035 q 818 1028 804 1028 q 845 1037 832 1028 q 1022 1131 858 1046 "},"":{"ha":1253,"x_min":26,"x_max":1199,"o":"m 1103 1181 q 1071 1167 1083 1181 q 1058 1134 1058 1154 q 1072 1101 1058 1114 q 1105 1089 1085 1089 q 1138 1102 1125 1089 q 1150 1135 1150 1115 q 1137 1168 1150 1156 q 1114 1181 1124 1181 q 1103 1181 1103 1181 m 924 1181 q 892 1167 904 1181 q 879 1134 879 1154 q 892 1101 879 1114 q 926 1089 906 1089 q 958 1102 946 1089 q 971 1135 971 1115 q 958 1168 971 1156 q 934 1181 944 1181 q 924 1181 924 1181 m 682 438 q 742 469 742 438 q 636 525 742 506 q 541 549 588 535 q 470 594 494 563 q 446 664 446 625 q 551 843 446 761 q 742 941 639 911 q 942 971 846 971 q 1083 933 1039 971 q 1115 869 1115 904 q 1089 789 1115 835 q 1028 725 1067 751 q 946 694 990 699 q 901 674 901 689 q 917 665 901 665 q 957 671 932 665 q 1128 747 1057 693 q 1199 860 1199 801 q 1153 942 1199 903 q 926 1003 1081 1003 q 710 970 836 1003 q 469 852 585 938 q 344 660 354 767 q 344 651 344 656 q 392 565 344 604 q 510 500 439 525 q 359 473 443 497 q 201 399 275 449 q 89 290 128 349 q 39 187 50 232 q 28 111 28 142 q 39 47 28 81 q 244 -132 88 -83 q 476 -160 333 -160 q 783 -110 619 -160 q 1055 25 947 -60 q 1163 188 1163 110 q 1100 274 1163 240 q 1061 283 1085 282 q 1040 272 1038 285 q 1075 255 1042 263 q 1108 215 1108 247 q 994 60 1108 149 q 749 -74 894 -18 q 472 -129 603 -129 q 263 -94 340 -129 q 156 -6 186 -60 q 126 111 126 47 q 247 350 126 247 q 533 439 350 439 l 682 438 "},"":{"ha":1258,"x_min":-19,"x_max":1710,"o":"m 1621 978 q 1583 970 1606 978 q 1527 924 1560 963 q 1482 858 1494 885 q 690 381 769 738 q 685 326 685 351 q 743 199 685 244 q 852 153 801 153 q 947 169 903 153 q 1083 292 1036 203 q 1110 381 1110 340 q 1092 457 1110 422 q 1065 457 1079 478 q 1063 444 1060 449 q 1074 396 1074 435 q 1028 261 1074 318 q 955 206 997 222 q 876 189 913 189 q 807 225 839 189 q 775 319 775 261 q 783 381 775 347 q 903 589 810 497 q 1108 719 975 663 q 1460 822 1239 776 q 1251 374 1349 631 q 1088 67 1196 222 q 949 -102 1024 -26 q 768 -243 874 -178 q 547 -337 663 -308 q 458 -352 492 -351 q 392 -353 424 -353 q 300 -339 360 -353 q 86 -225 161 -308 q 26 -65 26 -158 q 108 156 26 57 q 204 236 161 218 q 219 253 224 246 q 203 256 217 256 q 101 195 165 253 q 9 63 38 138 q -19 -65 -19 -11 q -10 -153 -19 -119 q 97 -308 17 -250 q 415 -396 215 -396 q 1122 -42 846 -396 q 1251 172 1197 56 q 1332 382 1306 288 q 1503 829 1408 654 q 1608 858 1560 839 q 1668 935 1668 881 q 1621 978 1668 978 m 1526 864 q 1598 933 1582 933 q 1617 917 1614 933 q 1526 864 1621 883 m 1710 1035 q 1621 1111 1710 1042 q 1517 1181 1532 1181 q 1494 1154 1494 1181 q 1538 1104 1494 1128 q 1617 1063 1543 1101 q 1697 1024 1692 1024 q 1710 1035 1710 1024 "},"":{"ha":1258,"x_min":-26,"x_max":1661,"o":"m 1554 885 q 1628 918 1597 899 q 1661 982 1661 940 q 1614 1021 1660 1021 q 1576 1013 1599 1021 q 1520 967 1553 1006 q 1475 901 1488 928 q 683 424 763 781 q 678 369 678 394 q 736 242 678 288 q 845 196 794 196 q 940 213 896 196 q 1076 335 1029 246 q 1103 424 1103 383 q 1085 500 1103 465 q 1058 500 1072 521 q 1056 488 1053 492 q 1067 439 1067 478 q 1022 304 1067 361 q 948 249 990 265 q 869 232 906 232 q 800 268 832 232 q 768 363 768 304 q 776 424 768 390 q 894 633 803 540 q 1101 764 968 706 q 1453 865 1232 819 q 1244 417 1342 674 q 1081 108 1189 265 q 942 -59 1017 17 q 761 -200 867 -135 q 540 -294 656 -265 q 451 -309 485 -308 q 385 -310 417 -310 q 292 -296 353 -310 q 79 -182 154 -265 q 19 -22 19 -115 q 101 197 19 100 q 197 279 154 261 q 213 294 217 289 q 196 299 210 299 q 94 238 158 296 q 2 106 31 181 q -26 -22 -26 32 q -17 -111 -26 -76 q 90 -267 10 -207 q 408 -353 208 -353 q 1115 1 839 -353 q 1244 215 1190 99 q 1325 425 1299 331 q 1496 872 1401 697 l 1554 885 m 1519 907 q 1591 976 1575 976 q 1610 960 1607 976 q 1519 907 1614 926 m 1357 1013 q 1490 1066 1372 1013 q 1615 1136 1608 1119 q 1619 1155 1619 1144 q 1605 1172 1619 1165 q 1572 1179 1590 1179 q 1533 1165 1553 1179 q 1471 1120 1514 1150 q 1391 1063 1428 1090 q 1351 1031 1354 1035 q 1349 1022 1349 1026 q 1352 1015 1349 1017 q 1357 1013 1356 1013 "},"":{"ha":1258,"x_min":-26,"x_max":1721,"o":"m 1554 885 q 1628 918 1597 899 q 1661 982 1661 940 q 1614 1021 1660 1021 q 1576 1013 1599 1021 q 1520 967 1553 1006 q 1475 901 1488 928 q 683 424 763 781 q 678 369 678 394 q 736 242 678 288 q 845 196 794 196 q 940 213 896 196 q 1076 335 1029 246 q 1103 424 1103 383 q 1085 500 1103 465 q 1058 500 1072 521 q 1056 488 1053 492 q 1067 439 1067 478 q 1022 304 1067 361 q 948 249 990 265 q 869 232 906 232 q 800 268 832 232 q 768 363 768 304 q 776 424 768 390 q 894 633 803 540 q 1101 764 968 706 q 1453 865 1232 819 q 1244 417 1342 674 q 1081 108 1189 265 q 942 -59 1017 17 q 761 -200 867 -135 q 540 -294 656 -265 q 451 -309 485 -308 q 385 -310 417 -310 q 292 -296 353 -310 q 79 -182 154 -265 q 19 -22 19 -115 q 101 197 19 100 q 197 279 154 261 q 213 294 217 289 q 196 299 210 299 q 94 238 158 296 q 2 106 31 181 q -26 -22 -26 32 q -17 -111 -26 -76 q 90 -267 10 -207 q 408 -353 208 -353 q 1115 1 839 -353 q 1244 215 1190 99 q 1325 425 1299 331 q 1496 872 1401 697 l 1554 885 m 1519 907 q 1591 976 1575 976 q 1610 960 1607 976 q 1519 907 1614 926 m 1444 1029 q 1628 1128 1463 1039 l 1692 1029 q 1708 1021 1696 1021 q 1721 1024 1721 1021 q 1719 1029 1721 1028 l 1669 1176 q 1656 1181 1669 1181 q 1617 1176 1642 1181 l 1410 1029 q 1407 1024 1407 1028 q 1421 1021 1407 1021 q 1444 1029 1435 1021 "},"":{"ha":1258,"x_min":-26,"x_max":1760,"o":"m 1554 885 q 1628 918 1597 899 q 1661 982 1661 940 q 1614 1021 1660 1021 q 1576 1013 1599 1021 q 1520 967 1553 1006 q 1475 901 1488 928 q 683 424 763 781 q 678 369 678 394 q 736 242 678 288 q 845 196 794 196 q 940 213 896 196 q 1076 335 1029 246 q 1103 424 1103 383 q 1085 500 1103 465 q 1058 500 1072 521 q 1056 488 1053 492 q 1067 439 1067 478 q 1022 304 1067 361 q 948 249 990 265 q 869 232 906 232 q 800 268 832 232 q 768 363 768 304 q 776 424 768 390 q 894 633 803 540 q 1101 764 968 706 q 1453 865 1232 819 q 1244 417 1342 674 q 1081 108 1189 265 q 942 -59 1017 17 q 761 -200 867 -135 q 540 -294 656 -265 q 451 -309 485 -308 q 385 -310 417 -310 q 292 -296 353 -310 q 79 -182 154 -265 q 19 -22 19 -115 q 101 197 19 100 q 197 279 154 261 q 213 294 217 289 q 196 299 210 299 q 94 238 158 296 q 2 106 31 181 q -26 -22 -26 32 q -17 -111 -26 -76 q 90 -267 10 -207 q 408 -353 208 -353 q 1115 1 839 -353 q 1244 215 1190 99 q 1325 425 1299 331 q 1496 872 1401 697 l 1554 885 m 1519 907 q 1591 976 1575 976 q 1610 960 1607 976 q 1519 907 1614 926 m 1713 1172 q 1681 1159 1693 1172 q 1668 1126 1668 1146 q 1681 1093 1668 1106 q 1715 1081 1694 1081 q 1747 1094 1735 1081 q 1760 1127 1760 1107 q 1747 1160 1760 1147 q 1723 1172 1733 1172 q 1713 1172 1713 1172 m 1534 1172 q 1501 1159 1514 1172 q 1489 1126 1489 1146 q 1502 1093 1489 1106 q 1535 1081 1515 1081 q 1568 1094 1556 1081 q 1581 1127 1581 1107 q 1567 1160 1581 1147 q 1544 1172 1554 1172 q 1534 1172 1534 1172 "},"":{"ha":1426,"x_min":3,"x_max":1425,"o":"m 964 -53 q 1138 -22 1053 -53 q 1331 114 1253 19 q 1425 407 1425 226 q 1363 676 1425 553 q 1136 929 1285 831 l 1201 1024 q 1238 1057 1217 1043 q 1263 1081 1258 1071 q 1257 1090 1268 1090 q 1171 1049 1231 1090 q 1111 1004 1131 1021 l 1076 964 q 708 1056 901 1056 q 588 1047 649 1056 q 154 838 276 1001 q 97 686 97 763 q 111 611 97 649 q 250 476 144 513 l 322 464 q 436 494 379 464 q 543 649 529 547 q 531 670 546 667 q 515 661 517 674 q 450 547 511 608 q 385 508 418 517 q 326 500 353 500 q 264 510 300 500 q 163 647 163 542 q 232 811 163 725 q 560 999 344 953 q 707 1014 635 1014 q 1038 921 882 1014 q 928 775 983 858 q 847 638 907 746 q 742 442 786 529 q 599 443 678 443 q 576 426 581 443 q 581 392 572 408 q 599 376 589 375 l 713 389 q 510 100 603 190 q 295 203 356 182 q 175 225 235 225 q 36 168 86 225 q 4 101 4 132 q 14 46 4 69 q 235 -54 56 -54 q 521 50 392 -54 q 897 -49 683 -22 q 964 -53 931 -53 m 835 439 q 960 645 867 490 q 1103 876 1053 800 q 1288 638 1225 781 q 1338 397 1338 525 q 1333 329 1338 364 q 1193 75 1317 179 q 943 -14 1086 -14 q 896 -11 919 -14 q 554 75 706 7 q 807 397 658 164 q 910 400 871 400 q 933 419 931 403 q 904 438 928 436 l 835 439 m 474 72 q 225 -11 358 -11 q 106 49 135 -11 q 94 95 94 71 q 119 150 94 119 q 184 181 143 181 q 268 165 225 181 q 474 72 311 150 "},"":{"ha":1443,"x_min":0,"x_max":1657,"o":"m 593 465 q 507 276 593 372 q 257 157 400 157 q 96 278 142 163 q 83 369 83 321 q 135 579 83 465 q 439 919 229 789 q 606 999 532 978 q 718 1021 681 1021 q 776 1018 756 1021 q 875 933 846 1007 q 889 847 889 897 q 875 731 889 796 q 710 267 831 533 q 524 -97 590 1 q 524 -107 522 -103 q 561 -129 526 -129 q 639 -89 619 -129 q 696 33 642 -83 q 961 526 844 353 q 1376 925 1158 821 q 1481 956 1435 956 q 1549 897 1549 956 q 1546 874 1549 886 q 1385 479 1533 792 q 1212 94 1236 167 q 1188 -49 1188 22 q 1410 -242 1188 -242 q 1453 -227 1426 -242 q 1479 -194 1479 -212 q 1463 -176 1479 -176 q 1413 -192 1446 -176 q 1350 -207 1381 -207 q 1275 -143 1294 -207 q 1265 -78 1265 -114 q 1326 157 1265 25 q 1476 450 1388 289 q 1610 715 1564 611 q 1656 890 1656 818 q 1615 992 1656 963 q 1513 1022 1574 1022 q 1369 983 1451 1022 q 1040 694 1224 917 q 857 444 942 576 l 814 375 q 869 503 811 376 q 892 553 888 543 q 910 596 896 563 q 931 645 925 629 q 953 712 936 661 q 969 838 969 763 q 931 975 969 921 q 796 1057 882 1044 q 718 1061 764 1061 q 611 1049 672 1061 q 194 808 392 1003 q 46 597 90 707 q 1 403 1 486 q 6 346 1 372 q 94 187 26 243 q 244 131 161 131 q 394 158 326 131 q 601 336 526 211 q 646 472 646 413 q 636 522 646 499 q 544 583 614 583 q 461 567 474 583 q 459 556 456 561 q 476 553 463 551 q 500 554 489 554 q 593 465 593 554 m 1600 1176 q 1549 1136 1581 1136 q 1464 1158 1518 1136 q 1392 1178 1415 1178 q 1285 1092 1333 1178 q 1289 1088 1286 1090 q 1311 1089 1308 1081 q 1360 1126 1331 1126 q 1442 1103 1390 1126 q 1517 1082 1490 1082 q 1624 1175 1624 1082 q 1613 1181 1624 1181 q 1600 1176 1603 1181 "},"":{"ha":1089,"x_min":50,"x_max":1246,"o":"m 1017 1025 q 922 1106 1017 1032 q 811 1181 828 1181 q 788 1151 788 1181 q 833 1099 788 1122 q 919 1053 842 1094 q 1004 1013 996 1013 q 1017 1025 1017 1013 m 728 7 q 894 178 824 81 q 995 368 965 276 q 1031 525 1025 460 q 1238 733 1156 604 q 1246 753 1246 746 q 1235 762 1246 760 q 1217 749 1224 764 q 1036 574 1175 665 q 1036 601 1036 588 q 899 933 1036 817 q 554 1049 763 1049 q 193 929 346 1049 q 50 650 50 817 q 53 608 50 629 q 160 433 63 499 q 119 213 119 324 q 175 13 119 103 q 417 -111 250 -111 q 728 7 575 -111 m 954 603 q 951 529 954 567 q 581 411 779 436 q 465 403 519 403 q 256 443 343 403 q 436 710 313 569 q 560 814 499 781 q 653 847 621 847 q 700 842 686 847 q 721 840 714 838 q 727 849 728 843 q 717 860 726 854 q 641 886 674 886 q 589 882 608 886 q 344 724 460 853 q 185 490 239 606 q 125 651 125 542 q 215 878 125 778 q 492 1018 322 993 q 571 1025 532 1025 q 804 950 704 1025 q 954 603 954 838 m 943 481 q 918 382 938 438 q 771 122 868 240 q 553 -50 674 4 q 431 -78 493 -78 q 307 -49 369 -78 q 192 200 192 8 q 235 394 192 282 q 454 357 329 357 q 943 481 711 357 "},"":{"ha":1089,"x_min":50,"x_max":1246,"o":"m 728 7 q 894 178 824 81 q 995 368 965 276 q 1031 525 1025 460 q 1238 733 1156 604 q 1246 753 1246 746 q 1235 762 1246 760 q 1217 749 1224 764 q 1036 574 1175 665 q 1036 601 1036 588 q 899 933 1036 817 q 554 1049 763 1049 q 193 929 346 1049 q 50 650 50 817 q 53 608 50 629 q 160 433 63 499 q 119 213 119 324 q 175 13 119 103 q 417 -111 250 -111 q 728 7 575 -111 m 954 603 q 951 529 954 567 q 581 411 779 436 q 465 403 519 403 q 256 443 343 403 q 436 710 313 569 q 560 814 499 781 q 653 847 621 847 q 700 842 686 847 q 721 840 714 838 q 727 849 728 843 q 717 860 726 854 q 641 886 674 886 q 589 882 608 886 q 344 724 460 853 q 185 490 239 606 q 125 651 125 542 q 215 878 125 778 q 492 1018 322 993 q 571 1025 532 1025 q 804 950 704 1025 q 954 603 954 838 m 943 481 q 918 382 938 438 q 771 122 868 240 q 553 -50 674 4 q 431 -78 493 -78 q 307 -49 369 -78 q 192 200 192 8 q 235 394 192 282 q 454 357 329 357 q 943 481 711 357 m 840 1013 q 974 1066 856 1013 q 1099 1136 1092 1119 q 1103 1155 1103 1144 q 1088 1172 1103 1165 q 1055 1179 1074 1179 q 1017 1165 1036 1179 q 954 1120 997 1150 q 874 1063 911 1090 q 835 1031 838 1035 q 832 1022 832 1026 q 835 1015 832 1017 q 840 1013 839 1013 "},"":{"ha":1089,"x_min":50,"x_max":1246,"o":"m 882 1178 l 711 1056 q 713 1050 710 1053 q 739 1056 728 1046 q 890 1138 754 1064 l 943 1056 q 961 1050 949 1050 q 967 1056 969 1050 l 925 1178 q 914 1181 925 1181 q 882 1178 903 1181 m 728 7 q 894 178 824 81 q 995 368 965 276 q 1031 525 1025 460 q 1238 733 1156 604 q 1246 753 1246 746 q 1235 762 1246 760 q 1217 749 1224 764 q 1036 574 1175 665 q 1036 601 1036 588 q 899 933 1036 817 q 554 1049 763 1049 q 193 929 346 1049 q 50 650 50 817 q 53 608 50 629 q 160 433 63 499 q 119 213 119 324 q 175 13 119 103 q 417 -111 250 -111 q 728 7 575 -111 m 954 603 q 951 529 954 567 q 581 411 779 436 q 465 403 519 403 q 256 443 343 403 q 436 710 313 569 q 560 814 499 781 q 653 847 621 847 q 700 842 686 847 q 721 840 714 838 q 727 849 728 843 q 717 860 726 854 q 641 886 674 886 q 589 882 608 886 q 344 724 460 853 q 185 490 239 606 q 125 651 125 542 q 215 878 125 778 q 492 1018 322 993 q 571 1025 532 1025 q 804 950 704 1025 q 954 603 954 838 m 943 481 q 918 382 938 438 q 771 122 868 240 q 553 -50 674 4 q 431 -78 493 -78 q 307 -49 369 -78 q 192 200 192 8 q 235 394 192 282 q 454 357 329 357 q 943 481 711 357 "},"":{"ha":1089,"x_min":50,"x_max":1246,"o":"m 728 7 q 894 178 824 81 q 995 368 965 276 q 1031 525 1025 460 q 1238 733 1156 604 q 1246 753 1246 746 q 1235 762 1246 760 q 1217 749 1224 764 q 1036 574 1175 665 q 1036 601 1036 588 q 899 933 1036 817 q 554 1049 763 1049 q 193 929 346 1049 q 50 650 50 817 q 53 608 50 629 q 160 433 63 499 q 119 213 119 324 q 175 13 119 103 q 417 -111 250 -111 q 728 7 575 -111 m 954 603 q 951 529 954 567 q 581 411 779 436 q 465 403 519 403 q 256 443 343 403 q 436 710 313 569 q 560 814 499 781 q 653 847 621 847 q 700 842 686 847 q 721 840 714 838 q 727 849 728 843 q 717 860 726 854 q 641 886 674 886 q 589 882 608 886 q 344 724 460 853 q 185 490 239 606 q 125 651 125 542 q 215 878 125 778 q 492 1018 322 993 q 571 1025 532 1025 q 804 950 704 1025 q 954 603 954 838 m 943 481 q 918 382 938 438 q 771 122 868 240 q 553 -50 674 4 q 431 -78 493 -78 q 307 -49 369 -78 q 192 200 192 8 q 235 394 192 282 q 454 357 329 357 q 943 481 711 357 m 608 1090 q 658 1128 629 1128 q 739 1104 688 1128 q 814 1083 788 1083 q 919 1175 878 1083 l 917 1178 q 903 1182 908 1182 q 896 1178 897 1182 q 842 1138 876 1138 q 824 1138 838 1138 q 765 1158 811 1139 q 705 1177 719 1176 q 686 1178 690 1178 q 582 1093 629 1178 q 590 1086 582 1089 q 601 1086 594 1086 q 608 1090 608 1086 "},"":{"ha":1089,"x_min":50,"x_max":1246,"o":"m 934 1181 q 901 1167 914 1181 q 889 1134 889 1154 q 902 1101 889 1114 q 935 1089 915 1089 q 968 1102 956 1089 q 981 1135 981 1115 q 967 1168 981 1156 q 944 1181 954 1181 q 934 1181 934 1181 m 755 1181 q 722 1167 735 1181 q 710 1134 710 1154 q 723 1101 710 1114 q 756 1089 736 1089 q 789 1102 776 1089 q 801 1135 801 1115 q 788 1168 801 1156 q 765 1181 775 1181 q 755 1181 755 1181 m 728 7 q 894 178 824 81 q 995 368 965 276 q 1031 525 1025 460 q 1238 733 1156 604 q 1246 753 1246 746 q 1235 762 1246 760 q 1217 749 1224 764 q 1036 574 1175 665 q 1036 601 1036 588 q 899 933 1036 817 q 554 1049 763 1049 q 193 929 346 1049 q 50 650 50 817 q 53 608 50 629 q 160 433 63 499 q 119 213 119 324 q 175 13 119 103 q 417 -111 250 -111 q 728 7 575 -111 m 954 603 q 951 529 954 567 q 581 411 779 436 q 465 403 519 403 q 256 443 343 403 q 436 710 313 569 q 560 814 499 781 q 653 847 621 847 q 700 842 686 847 q 721 840 714 838 q 727 849 728 843 q 717 860 726 854 q 641 886 674 886 q 589 882 608 886 q 344 724 460 853 q 185 490 239 606 q 125 651 125 542 q 215 878 125 778 q 492 1018 322 993 q 571 1025 532 1025 q 804 950 704 1025 q 954 603 954 838 m 943 481 q 918 382 938 438 q 771 122 868 240 q 553 -50 674 4 q 431 -78 493 -78 q 307 -49 369 -78 q 192 200 192 8 q 235 394 192 282 q 454 357 329 357 q 943 481 711 357 "},"":{"ha":422,"x_min":115,"x_max":361,"o":"m 361 396 q 356 413 361 401 q 346 425 350 425 l 243 314 l 185 432 q 170 419 181 431 q 158 404 160 408 l 218 288 l 115 176 q 122 160 115 172 q 131 147 128 149 l 233 258 l 292 140 q 306 153 296 142 q 318 168 317 164 l 258 285 l 361 396 "},"":{"ha":1071,"x_min":68,"x_max":1264,"o":"m 849 1008 q 565 1076 731 1076 q 242 978 400 1076 q 112 842 156 924 q 68 675 68 760 q 71 635 68 656 q 178 460 81 525 q 138 250 138 349 q 144 164 138 206 q 261 -36 171 29 l 201 -144 l 246 -164 l 304 -60 l 321 -67 q 435 -85 381 -85 q 542 -71 490 -85 q 747 33 651 -40 q 913 205 842 107 q 1013 394 983 303 q 1049 551 1043 486 q 1256 760 1174 631 q 1264 779 1264 772 q 1253 788 1264 786 q 1235 775 1242 790 q 1054 600 1193 692 q 1054 626 1054 614 q 892 979 1054 858 l 963 1104 l 915 1126 l 849 1008 m 828 971 l 524 429 q 485 428 504 428 q 274 469 357 428 q 454 736 331 596 q 578 840 517 807 q 672 874 639 874 q 718 869 704 874 q 739 867 732 864 q 745 875 746 869 q 735 886 744 881 q 659 913 692 913 q 606 908 626 913 q 363 750 478 879 q 203 517 257 632 q 143 676 143 568 q 178 826 143 749 q 292 956 214 903 q 579 1051 432 1051 q 828 971 724 1051 m 325 -22 l 557 388 q 961 507 769 406 q 936 408 956 464 q 789 150 886 268 q 569 -24 692 32 q 449 -51 510 -51 q 325 -22 388 -51 m 972 625 q 969 556 972 592 q 583 435 786 457 l 867 935 q 972 625 972 824 m 211 211 q 253 421 211 319 q 472 383 346 383 q 497 383 485 383 l 285 4 q 211 211 211 71 "},"":{"ha":1308,"x_min":-7,"x_max":1397,"o":"m 1369 669 q 1292 596 1333 669 q 1202 419 1290 594 q 1058 163 1114 243 l 1021 111 q 825 -28 908 -28 q 747 89 747 -28 q 775 243 747 151 q 845 424 803 335 q 933 622 888 514 q 1013 929 1013 806 q 878 1153 1013 1094 q 733 1181 811 1181 q 425 1092 585 1181 q 131 853 240 990 q -6 503 -6 682 q 108 238 -6 325 q 261 186 175 186 q 442 244 347 186 q 622 461 569 321 q 646 572 646 525 q 626 654 646 619 q 540 703 597 703 q 465 686 503 703 q 424 658 428 669 q 455 658 421 650 q 511 665 489 665 q 606 561 606 665 q 550 399 606 490 q 279 226 449 226 q 76 368 135 226 q 50 508 50 431 q 86 678 50 585 q 422 1046 174 900 q 738 1143 590 1143 q 885 1108 819 1143 q 939 975 939 1076 q 917 821 939 907 q 824 578 896 735 q 710 298 753 421 q 667 99 667 175 q 708 -26 667 24 q 799 -64 740 -64 q 969 8 879 -64 q 1164 249 1065 86 q 1146 83 1146 163 q 1148 13 1146 56 q 1175 -69 1150 -29 q 1246 -118 1200 -110 l 1263 -118 q 1293 -97 1293 -114 q 1268 -86 1293 -86 l 1253 -86 q 1201 10 1201 -86 q 1211 115 1201 57 q 1363 536 1247 329 q 1397 629 1397 597 q 1369 669 1397 656 m 1394 1006 q 1289 1097 1394 1014 q 1165 1181 1183 1181 q 1139 1147 1139 1181 q 1190 1089 1139 1114 q 1285 1039 1199 1085 q 1381 993 1372 993 q 1394 1006 1394 993 "},"":{"ha":1308,"x_min":-7,"x_max":1404,"o":"m 747 89 q 775 243 747 151 q 845 424 803 335 q 933 622 888 514 q 1013 929 1013 806 q 878 1153 1013 1094 q 733 1181 811 1181 q 425 1092 585 1181 q 131 853 240 990 q -6 503 -6 682 q 108 238 -6 325 q 261 186 175 186 q 442 244 347 186 q 622 461 569 321 q 646 572 646 525 q 626 654 646 619 q 540 703 597 703 q 465 686 503 703 q 424 658 428 669 q 455 658 421 650 q 511 665 489 665 q 606 561 606 665 q 550 399 606 490 q 279 226 449 226 q 76 368 135 226 q 50 508 50 431 q 86 678 50 585 q 422 1046 174 900 q 738 1143 590 1143 q 885 1108 819 1143 q 939 975 939 1076 q 917 821 939 907 q 824 578 896 735 q 710 298 753 421 q 667 99 667 175 q 708 -26 667 24 q 799 -64 740 -64 q 969 8 879 -64 q 1164 249 1065 86 q 1146 83 1146 163 q 1148 13 1146 56 q 1175 -69 1150 -29 q 1246 -118 1200 -110 l 1263 -118 q 1293 -97 1293 -114 q 1268 -86 1293 -86 l 1253 -86 q 1201 10 1201 -86 q 1211 115 1201 57 q 1353 519 1247 329 q 1392 603 1378 564 q 1369 669 1408 650 q 1292 596 1333 669 q 1202 419 1290 594 q 1058 163 1114 243 l 1021 111 q 825 -28 908 -28 q 747 89 747 -28 m 1142 931 q 1275 984 1157 931 q 1400 1054 1393 1038 q 1404 1073 1404 1063 q 1390 1090 1404 1083 q 1356 1097 1375 1097 q 1318 1083 1338 1097 q 1256 1038 1299 1068 q 1176 981 1213 1008 q 1136 949 1139 953 q 1133 940 1133 944 q 1137 933 1133 935 q 1142 931 1140 931 "},"":{"ha":1308,"x_min":-7,"x_max":1433,"o":"m 747 89 q 775 243 747 151 q 845 424 803 335 q 933 622 888 514 q 1013 929 1013 806 q 878 1153 1013 1094 q 733 1181 811 1181 q 425 1092 585 1181 q 131 853 240 990 q -6 503 -6 682 q 108 238 -6 325 q 261 186 175 186 q 442 244 347 186 q 622 461 569 321 q 646 572 646 525 q 626 654 646 619 q 540 703 597 703 q 465 686 503 703 q 424 658 428 669 q 455 658 421 650 q 511 665 489 665 q 606 561 606 665 q 550 399 606 490 q 279 226 449 226 q 76 368 135 226 q 50 508 50 431 q 86 678 50 585 q 422 1046 174 900 q 738 1143 590 1143 q 885 1108 819 1143 q 939 975 939 1076 q 917 821 939 907 q 824 578 896 735 q 710 298 753 421 q 667 99 667 175 q 708 -26 667 24 q 799 -64 740 -64 q 969 8 879 -64 q 1164 249 1065 86 q 1146 83 1146 163 q 1148 13 1146 56 q 1175 -69 1150 -29 q 1246 -118 1200 -110 l 1263 -118 q 1293 -97 1293 -114 q 1268 -86 1293 -86 l 1253 -86 q 1201 10 1201 -86 q 1211 115 1201 57 q 1353 519 1247 329 q 1392 603 1378 564 q 1369 669 1408 650 q 1292 596 1333 669 q 1202 419 1290 594 q 1058 163 1114 243 l 1021 111 q 825 -28 908 -28 q 747 89 747 -28 m 1157 1029 q 1340 1128 1175 1039 l 1404 1029 q 1421 1021 1408 1021 q 1433 1024 1433 1021 q 1432 1029 1433 1028 l 1382 1176 q 1368 1181 1381 1181 q 1329 1176 1356 1181 l 1122 1029 q 1119 1024 1119 1028 q 1133 1021 1119 1021 q 1157 1029 1147 1021 "},"":{"ha":1308,"x_min":-7,"x_max":1397,"o":"m 1369 669 q 1292 596 1333 669 q 1202 419 1290 594 q 1058 163 1114 243 l 1021 111 q 825 -28 908 -28 q 747 89 747 -28 q 775 243 747 151 q 845 424 803 335 q 933 622 888 514 q 1013 929 1013 806 q 878 1153 1013 1094 q 733 1181 811 1181 q 425 1092 585 1181 q 131 853 240 990 q -6 503 -6 682 q 108 238 -6 325 q 261 186 175 186 q 442 244 347 186 q 622 461 569 321 q 646 572 646 525 q 626 654 646 619 q 540 703 597 703 q 465 686 503 703 q 424 658 428 669 q 455 658 421 650 q 511 665 489 665 q 606 561 606 665 q 550 399 606 490 q 279 226 449 226 q 76 368 135 226 q 50 508 50 431 q 86 678 50 585 q 422 1046 174 900 q 738 1143 590 1143 q 885 1108 819 1143 q 939 975 939 1076 q 917 821 939 907 q 824 578 896 735 q 710 298 753 421 q 667 99 667 175 q 708 -26 667 24 q 799 -64 740 -64 q 969 8 879 -64 q 1164 249 1065 86 q 1146 83 1146 163 q 1148 13 1146 56 q 1175 -69 1150 -29 q 1246 -118 1200 -110 l 1263 -118 q 1293 -97 1293 -114 q 1268 -86 1293 -86 l 1253 -86 q 1201 10 1201 -86 q 1211 115 1201 57 q 1363 536 1247 329 q 1397 629 1397 597 q 1369 669 1397 656 m 1335 1044 q 1303 1031 1315 1044 q 1290 998 1290 1018 q 1303 965 1290 978 q 1337 953 1317 953 q 1369 966 1357 953 q 1382 999 1382 979 q 1369 1032 1382 1019 q 1345 1044 1356 1044 q 1335 1044 1335 1044 m 1156 1044 q 1124 1031 1136 1044 q 1111 998 1111 1018 q 1124 965 1111 978 q 1158 953 1138 953 q 1190 966 1178 953 q 1203 999 1203 979 q 1190 1032 1203 1019 q 1166 1044 1176 1044 q 1156 1044 1156 1044 "},"":{"ha":1397,"x_min":25,"x_max":1558,"o":"m 1365 671 q 1335 658 1356 671 q 1310 624 1314 646 q 1111 192 1243 403 q 953 10 1032 65 q 829 -39 886 -39 q 768 -11 789 -39 q 747 49 747 17 q 753 110 747 81 q 969 585 790 279 q 1085 933 1085 776 q 1054 1052 1085 996 q 950 1142 1024 1108 q 788 1169 879 1169 q 586 1126 696 1169 q 388 1025 482 1086 q 210 875 293 964 q 76 681 128 786 q 25 469 25 575 q 92 282 25 364 q 303 185 168 185 q 394 206 344 185 q 643 428 558 274 q 686 569 686 508 q 675 626 686 600 q 578 688 650 688 q 514 679 547 688 q 482 660 481 671 q 507 656 483 651 q 547 661 531 661 q 633 565 633 661 q 572 393 633 492 q 310 221 464 221 q 224 239 265 221 q 114 378 142 276 q 104 444 104 408 q 153 651 104 531 q 301 871 200 764 q 753 1131 503 1083 q 818 1138 788 1138 q 951 1101 896 1138 q 1006 981 1006 1065 q 961 778 1006 896 q 858 567 922 671 q 653 81 653 232 q 695 -33 653 8 q 814 -75 738 -75 q 972 -19 890 -75 q 1254 358 1128 86 q 1064 -179 1200 154 q 464 -268 679 -179 q 296 -429 296 -337 q 400 -535 296 -500 q 533 -553 454 -553 q 725 -510 611 -553 q 941 -390 839 -467 q 1110 -214 1043 -314 q 1449 -184 1383 -211 q 1536 -120 1514 -157 q 1558 -62 1558 -83 q 1549 -24 1558 -42 q 1541 -19 1546 -17 q 1539 -39 1536 -21 q 1453 -142 1526 -107 q 1374 -163 1422 -156 q 1292 -172 1326 -171 q 1205 -175 1258 -174 q 1131 -178 1151 -176 q 1269 150 1201 -51 q 1363 469 1336 351 q 1390 629 1390 588 q 1365 671 1390 671 m 371 -443 q 486 -326 371 -393 q 1044 -214 681 -214 q 896 -376 986 -308 q 710 -478 806 -443 q 510 -512 615 -512 q 376 -465 406 -512 q 371 -443 371 -454 m 1244 924 q 1378 977 1260 924 q 1503 1047 1496 1031 q 1507 1066 1507 1056 q 1492 1083 1507 1076 q 1459 1090 1478 1090 q 1421 1076 1440 1090 q 1358 1031 1401 1061 q 1278 974 1315 1001 q 1239 942 1242 946 q 1236 933 1236 938 q 1240 926 1236 928 q 1244 924 1243 924 "},"":{"ha":467,"x_min":15,"x_max":814,"o":"m 789 690 q 678 794 754 751 q 510 853 601 838 l 585 1042 q 597 1107 597 1081 q 568 1160 597 1133 q 540 1169 563 1165 q 513 1181 518 1172 q 451 913 514 1126 q 286 482 389 699 q 140 210 240 386 q 15 11 40 35 q 48 8 26 13 q 74 4 69 4 q 94 4 79 4 q 128 18 110 4 q 169 76 147 32 l 274 289 q 304 288 289 288 q 492 311 403 288 q 643 372 581 335 q 749 463 706 410 q 813 619 813 542 q 789 690 813 649 m 478 345 q 286 317 396 319 l 331 407 q 431 638 353 439 l 500 826 q 646 776 596 804 q 738 614 738 721 q 715 533 738 583 q 626 426 692 482 q 519 358 560 371 q 478 345 478 345 "},"":{"ha":607,"x_min":-558,"x_max":708,"o":"m 447 26 q 517 99 488 54 q 546 185 546 143 q 454 401 546 256 q 439 449 439 425 q 449 491 439 474 q 478 528 458 508 q 515 559 497 547 q 556 586 533 571 q 682 794 682 674 q 660 889 682 850 q 582 947 638 928 q 483 967 526 967 q 403 943 439 967 q 283 792 339 900 q 86 299 151 472 q 8 96 56 215 q -184 -258 -85 -137 q -408 -411 -283 -379 q -439 -415 -424 -415 q -519 -375 -504 -415 q -475 -392 -500 -392 q -426 -370 -450 -392 q -403 -307 -403 -349 q -419 -274 -403 -293 q -470 -256 -436 -256 q -531 -286 -504 -256 q -557 -354 -557 -317 q -557 -361 -557 -357 q -432 -453 -550 -453 q -242 -386 -340 -453 q -90 -250 -154 -325 q 31 -53 -25 -175 q 126 181 88 69 q 228 481 165 292 q 321 756 290 669 q 402 886 351 842 q 499 931 453 931 q 544 922 521 931 q 622 796 622 896 q 609 723 622 768 q 567 643 596 678 q 502 576 538 608 q 447 525 467 544 q 418 479 428 506 q 408 429 408 453 q 438 303 408 406 q 461 185 461 219 q 400 36 461 83 q 358 76 374 49 q 342 138 342 103 l 342 147 q 326 183 342 172 q 290 191 311 193 q 252 165 269 189 q 235 116 235 142 q 239 72 235 90 q 358 -6 260 -6 q 415 8 383 -6 q 515 11 464 -6 q 571 44 547 21 l 600 75 q 628 110 614 88 q 651 147 642 132 q 672 188 660 163 q 690 226 685 213 q 702 252 696 239 q 708 268 708 265 q 696 278 708 279 q 686 271 689 278 q 582 89 611 125 q 472 24 528 24 q 447 26 465 24 m 296 74 q 321 128 296 103 q 376 24 325 56 q 349 18 365 18 q 297 56 308 18 q 296 74 296 65 "},"":{"ha":486,"x_min":32,"x_max":589,"o":"m 501 376 q 467 378 490 374 q 439 382 444 382 q 393 363 411 382 q 349 293 375 344 q 131 38 214 38 q 96 92 96 38 q 150 236 96 146 q 243 367 193 311 q 390 461 331 461 q 457 411 442 461 q 481 422 475 408 q 472 451 486 436 q 364 496 428 496 q 314 489 340 496 q 150 388 217 465 q 32 111 32 247 q 74 11 32 40 q 114 -3 92 -3 q 306 176 194 -3 q 292 92 292 126 q 304 36 292 57 q 369 -3 329 -3 q 585 256 457 -3 q 589 272 589 265 q 578 281 589 285 q 565 267 571 279 q 453 82 510 153 q 388 33 414 33 q 367 60 367 33 q 376 131 367 88 q 431 263 385 175 q 501 376 476 351 m 449 564 q 343 656 449 572 q 219 739 238 739 q 193 706 193 739 q 244 647 193 672 q 340 597 253 643 q 435 551 426 551 q 449 564 449 551 "},"":{"ha":486,"x_min":32,"x_max":589,"o":"m 501 376 q 467 378 490 374 q 439 382 444 382 q 393 363 411 382 q 349 293 375 344 q 131 38 214 38 q 96 92 96 38 q 150 236 96 146 q 243 367 193 311 q 390 461 331 461 q 457 411 442 461 q 481 422 475 408 q 472 451 486 436 q 364 496 428 496 q 314 489 340 496 q 150 388 217 465 q 32 111 32 247 q 74 11 32 40 q 114 -3 92 -3 q 306 176 194 -3 q 292 92 292 126 q 304 36 292 57 q 369 -3 329 -3 q 585 256 457 -3 q 589 272 589 265 q 578 281 589 285 q 565 267 571 279 q 453 82 510 153 q 388 33 414 33 q 367 60 367 33 q 376 131 367 88 q 431 263 385 175 q 501 376 476 351 m 313 547 q 446 601 328 547 q 571 671 564 654 q 575 690 575 679 q 560 707 575 700 q 527 714 546 714 q 489 699 508 714 q 426 655 469 685 q 347 597 383 625 q 307 565 310 569 q 304 556 304 561 q 308 549 304 551 q 313 547 311 547 "},"":{"ha":486,"x_min":32,"x_max":589,"o":"m 501 376 q 467 378 490 374 q 439 382 444 382 q 393 363 411 382 q 349 293 375 344 q 131 38 214 38 q 96 92 96 38 q 150 236 96 146 q 243 367 193 311 q 390 461 331 461 q 457 411 442 461 q 481 422 475 408 q 472 451 486 436 q 364 496 428 496 q 314 489 340 496 q 150 388 217 465 q 32 111 32 247 q 74 11 32 40 q 114 -3 92 -3 q 306 176 194 -3 q 292 92 292 126 q 304 36 292 57 q 369 -3 329 -3 q 585 256 457 -3 q 589 272 589 265 q 578 281 589 285 q 565 267 571 279 q 453 82 510 153 q 388 33 414 33 q 367 60 367 33 q 376 131 367 88 q 431 263 385 175 q 501 376 476 351 m 294 569 q 478 668 313 579 l 542 569 q 559 561 547 561 q 571 565 571 561 q 569 569 571 568 l 519 717 q 506 719 519 719 q 467 717 492 719 l 260 569 q 257 565 257 568 q 271 561 257 561 q 294 569 285 561 "},"":{"ha":486,"x_min":32,"x_max":621,"o":"m 501 376 q 467 378 490 374 q 439 382 444 382 q 393 363 411 382 q 349 293 375 344 q 131 38 214 38 q 96 92 96 38 q 150 236 96 146 q 243 367 193 311 q 390 461 331 461 q 457 411 442 461 q 481 422 475 408 q 472 451 486 436 q 364 496 428 496 q 314 489 340 496 q 150 388 217 465 q 32 111 32 247 q 74 11 32 40 q 114 -3 92 -3 q 306 176 194 -3 q 292 92 292 126 q 304 36 292 57 q 369 -3 329 -3 q 585 256 457 -3 q 588 276 590 269 q 578 281 586 283 q 565 267 571 279 q 453 82 510 153 q 388 33 414 33 q 367 60 367 33 q 376 131 367 88 q 431 263 385 175 q 501 376 476 351 m 492 613 q 621 724 567 613 q 600 731 618 731 q 592 726 593 731 q 525 678 568 678 q 503 678 519 678 q 429 703 488 679 q 339 728 371 728 q 211 624 269 728 q 218 618 211 621 q 243 621 240 611 q 303 667 268 667 q 403 638 338 667 q 492 613 461 613 "},"":{"ha":486,"x_min":32,"x_max":589,"o":"m 501 376 q 467 378 490 374 q 439 382 444 382 q 393 363 411 382 q 349 293 375 344 q 131 38 214 38 q 96 92 96 38 q 150 236 96 146 q 243 367 193 311 q 390 461 331 461 q 457 411 442 461 q 481 422 475 408 q 472 451 486 436 q 364 496 428 496 q 314 489 340 496 q 150 388 217 465 q 32 111 32 247 q 74 11 32 40 q 114 -3 92 -3 q 306 176 194 -3 q 292 92 292 126 q 304 36 292 57 q 369 -3 329 -3 q 585 256 457 -3 q 589 272 589 265 q 578 281 589 285 q 565 267 571 279 q 453 82 510 153 q 388 33 414 33 q 367 60 367 33 q 376 131 367 88 q 431 263 385 175 q 501 376 476 351 m 523 683 q 490 670 503 683 q 478 637 478 657 q 491 604 478 617 q 524 592 504 592 q 557 605 544 592 q 569 638 569 618 q 556 671 569 658 q 533 683 543 683 q 523 683 523 683 m 344 683 q 311 670 324 683 q 299 637 299 657 q 312 604 299 617 q 345 592 325 592 q 378 605 365 592 q 390 638 390 618 q 377 671 390 658 q 354 683 364 683 q 344 683 344 683 "},"":{"ha":486,"x_min":32,"x_max":589,"o":"m 501 376 q 467 378 490 374 q 439 382 444 382 q 393 363 411 382 q 349 293 375 344 q 131 38 214 38 q 96 92 96 38 q 150 236 96 146 q 243 367 193 311 q 390 461 331 461 q 457 411 442 461 q 481 422 475 408 q 472 451 486 436 q 364 496 428 496 q 314 489 340 496 q 150 388 217 465 q 32 111 32 247 q 74 11 32 40 q 114 -3 92 -3 q 306 176 194 -3 q 292 92 292 126 q 304 36 292 57 q 369 -3 329 -3 q 585 256 457 -3 q 589 272 589 265 q 578 281 589 285 q 565 267 571 279 q 453 82 510 153 q 388 33 414 33 q 367 60 367 33 q 376 131 367 88 q 431 263 385 175 q 501 376 476 351 m 399 645 q 389 682 388 660 q 404 719 390 704 q 436 735 418 733 q 465 722 454 736 q 475 685 476 707 q 459 647 472 663 q 428 631 446 631 q 404 638 410 631 q 399 645 399 645 m 444 757 q 371 731 407 757 q 340 671 340 707 q 362 626 340 646 q 422 607 383 607 q 494 632 461 607 q 525 687 525 656 q 503 738 525 718 q 462 757 481 757 q 444 757 444 757 "},"":{"ha":606,"x_min":32,"x_max":711,"o":"m 407 214 q 491 233 436 214 q 576 275 546 251 q 676 433 676 353 q 653 478 676 458 q 597 496 628 496 q 476 446 546 496 l 472 451 q 364 496 428 496 q 314 489 340 496 q 150 388 217 465 q 32 111 32 247 q 74 11 32 40 q 114 -3 92 -3 q 306 176 194 -3 q 304 143 304 160 q 360 21 304 60 q 442 -6 397 -6 q 617 92 546 -6 q 680 201 649 133 q 711 274 711 268 q 706 281 711 279 q 682 261 692 283 q 453 24 579 24 q 399 55 414 24 q 383 126 383 86 q 407 214 383 167 m 451 425 q 349 293 389 369 q 131 38 214 38 q 96 92 96 38 q 150 236 96 146 q 243 367 193 311 q 392 461 329 461 q 451 425 435 461 m 639 436 q 563 299 639 364 q 486 255 529 271 q 418 238 443 239 l 447 296 q 499 368 476 340 q 617 464 578 464 q 639 436 639 464 "},"":{"ha":361,"x_min":24,"x_max":475,"o":"m 335 319 q 358 310 344 310 q 390 328 371 310 q 429 408 429 361 q 406 465 429 440 q 332 489 383 489 q 146 379 226 489 q 77 254 107 326 q 47 121 47 182 q 81 33 47 71 q 193 -6 115 -6 l 194 -6 q 106 -72 118 -58 q 94 -92 94 -85 q 103 -106 94 -100 q 117 -112 111 -112 q 156 -96 122 -112 q 225 -79 189 -79 q 293 -100 261 -79 q 325 -153 325 -121 q 306 -215 325 -186 q 180 -265 274 -265 q 53 -231 86 -265 q 31 -215 38 -215 q 24 -225 24 -215 q 88 -273 24 -257 q 211 -289 153 -289 q 304 -265 269 -289 q 376 -162 376 -217 q 324 -81 376 -107 q 227 -54 271 -54 q 157 -58 183 -54 q 200 -22 157 -51 q 218 -10 217 -11 l 215 -4 q 369 81 314 4 q 419 155 401 122 q 456 226 438 188 q 474 270 474 264 q 467 280 474 276 q 450 264 460 283 q 404 176 421 206 q 355 103 388 147 q 286 40 322 60 q 208 19 250 19 q 145 50 165 19 q 125 130 125 81 q 150 240 125 179 q 201 339 175 301 q 350 458 285 458 q 383 418 383 458 q 335 319 383 378 "},"":{"ha":342,"x_min":42,"x_max":446,"o":"m 140 214 q 225 233 169 214 q 311 275 281 251 q 411 435 411 351 q 388 478 411 458 q 333 494 363 494 q 272 481 304 494 q 154 392 206 453 q 73 262 103 332 q 43 129 43 192 q 82 31 43 67 q 176 -6 121 -6 q 351 92 281 -6 q 415 201 383 133 q 446 274 446 268 q 440 281 446 279 q 417 261 426 283 q 188 24 314 24 q 138 47 156 24 q 121 108 121 69 q 140 214 121 167 m 374 436 q 297 299 374 364 q 219 254 264 271 q 150 238 174 238 q 233 368 186 310 q 351 464 313 464 q 374 436 374 464 m 399 551 q 293 643 399 560 q 169 726 188 726 q 143 694 143 726 q 194 635 143 661 q 290 585 203 631 q 385 539 376 539 q 399 551 399 539 "},"":{"ha":342,"x_min":42,"x_max":551,"o":"m 140 214 q 225 233 169 214 q 311 275 281 251 q 411 435 411 351 q 388 478 411 458 q 333 494 363 494 q 272 481 304 494 q 154 392 206 453 q 73 262 103 332 q 43 129 43 192 q 82 31 43 67 q 176 -6 121 -6 q 351 92 281 -6 q 442 260 383 133 q 440 281 449 276 q 417 261 426 283 q 188 24 314 24 q 138 47 156 24 q 121 108 121 69 q 140 214 121 167 m 374 436 q 297 299 374 364 q 219 254 264 271 q 150 238 174 238 q 233 368 186 310 q 351 464 313 464 q 374 436 374 464 m 289 547 q 422 601 304 547 q 547 671 540 654 q 551 690 551 679 q 537 707 551 700 q 503 714 522 714 q 465 699 485 714 q 403 655 446 685 q 323 597 360 625 q 283 565 286 569 q 281 556 281 561 q 284 549 281 551 q 289 547 288 547 "},"":{"ha":342,"x_min":42,"x_max":510,"o":"m 140 214 q 225 233 169 214 q 311 275 281 251 q 411 435 411 351 q 388 478 411 458 q 333 494 363 494 q 272 481 304 494 q 154 392 206 453 q 73 262 103 332 q 43 129 43 192 q 82 31 43 67 q 176 -6 121 -6 q 351 92 281 -6 q 442 260 383 133 q 440 281 449 276 q 417 261 426 283 q 188 24 314 24 q 138 47 156 24 q 121 108 121 69 q 140 214 121 167 m 374 436 q 297 299 374 364 q 219 254 264 271 q 150 238 174 238 q 233 368 186 310 q 351 464 313 464 q 374 436 374 464 m 233 569 q 417 668 251 579 l 481 569 q 498 561 486 561 q 510 565 510 561 q 508 569 510 568 l 458 717 q 444 719 458 719 q 406 717 431 719 l 199 569 q 196 565 196 568 q 210 561 196 561 q 233 569 224 561 "},"":{"ha":342,"x_min":42,"x_max":494,"o":"m 140 214 q 225 233 169 214 q 311 275 281 251 q 411 435 411 351 q 388 478 411 458 q 333 494 363 494 q 272 481 304 494 q 154 392 206 453 q 73 262 103 332 q 43 129 43 192 q 82 31 43 67 q 176 -6 121 -6 q 351 92 281 -6 q 442 260 383 133 q 440 281 449 276 q 417 261 426 283 q 188 24 314 24 q 138 47 156 24 q 121 108 121 69 q 140 214 121 167 m 374 436 q 297 299 374 364 q 219 254 264 271 q 150 238 174 238 q 233 368 186 310 q 351 464 313 464 q 374 436 374 464 m 448 657 q 415 644 428 657 q 403 610 403 631 q 416 578 403 590 q 449 565 429 565 q 482 578 469 565 q 494 612 494 592 q 481 644 494 632 q 458 657 468 657 q 448 657 448 657 m 269 657 q 236 644 249 657 q 224 610 224 631 q 237 578 224 590 q 270 565 250 565 q 303 578 290 565 q 315 612 315 592 q 302 644 315 632 q 279 657 289 657 q 269 657 269 657 "},"":{"ha":233,"x_min":14,"x_max":333,"o":"m 220 65 q 266 133 240 88 q 300 196 292 179 q 321 238 308 213 q 333 270 333 264 q 329 279 333 276 q 310 267 321 288 q 179 57 235 111 l 125 31 q 81 69 81 31 q 106 158 81 104 q 250 428 143 254 q 288 467 263 450 q 301 478 299 475 l 231 478 q 190 470 199 478 q 156 411 182 463 l 35 181 q 14 102 14 143 q 38 31 14 61 q 100 0 61 0 q 169 21 139 0 q 210 53 200 42 q 220 65 220 65 m 331 567 q 225 658 331 575 q 101 742 119 742 q 75 708 75 742 q 126 650 75 675 q 222 600 135 646 q 317 554 308 554 q 331 567 331 554 "},"":{"ha":233,"x_min":14,"x_max":529,"o":"m 220 65 q 266 133 240 88 q 300 196 292 179 q 323 242 308 213 q 329 280 338 272 q 310 267 321 288 q 179 57 235 111 l 125 31 q 81 69 81 31 q 106 158 81 104 q 250 428 143 254 q 288 467 263 450 q 301 478 299 475 l 231 478 q 190 470 199 478 q 156 411 182 463 l 35 181 q 14 102 14 143 q 38 31 14 61 q 100 0 61 0 q 169 21 139 0 q 210 53 200 42 q 220 65 220 65 m 267 576 q 400 630 282 576 q 525 700 518 683 q 529 719 529 708 q 515 736 529 729 q 481 743 500 743 q 443 728 463 743 q 381 684 424 714 q 301 626 338 654 q 261 594 264 599 q 258 585 258 590 q 262 578 258 581 q 267 576 265 576 "},"":{"ha":233,"x_min":14,"x_max":440,"o":"m 220 65 q 266 133 240 88 q 300 196 292 179 q 323 242 308 213 q 329 280 338 272 q 310 267 321 288 q 179 57 235 111 l 125 31 q 81 69 81 31 q 106 158 81 104 q 250 428 143 254 q 288 467 263 450 q 301 478 299 475 l 231 478 q 190 470 199 478 q 156 411 182 463 l 35 181 q 14 102 14 143 q 38 31 14 61 q 100 0 61 0 q 169 21 139 0 q 210 53 200 42 q 220 65 220 65 m 164 564 q 347 663 182 574 l 411 564 q 428 556 417 556 q 440 559 440 556 q 439 564 440 563 l 389 711 q 375 714 389 714 q 336 711 361 714 l 129 564 q 126 559 126 563 q 140 556 126 556 q 164 564 154 556 "},"":{"ha":233,"x_min":14,"x_max":419,"o":"m 220 65 q 266 133 240 88 q 300 196 292 179 q 323 242 308 213 q 329 280 338 272 q 310 267 321 288 q 179 57 235 111 l 125 31 q 81 69 81 31 q 106 158 81 104 q 250 428 143 254 q 288 467 263 450 q 301 478 299 475 l 231 478 q 190 470 199 478 q 156 411 182 463 l 35 181 q 14 102 14 143 q 38 31 14 61 q 100 0 61 0 q 169 21 139 0 q 210 53 200 42 q 220 65 220 65 m 373 642 q 340 628 353 642 q 328 595 328 615 q 341 563 328 575 q 374 550 354 550 q 407 563 394 550 q 419 597 419 576 q 406 629 419 617 q 383 642 393 642 q 373 642 373 642 m 194 642 q 161 628 174 642 q 149 595 149 615 q 162 563 149 575 q 195 550 175 550 q 228 563 215 550 q 240 597 240 576 q 227 629 240 617 q 204 642 214 642 q 194 642 194 642 "},"":{"ha":539,"x_min":50,"x_max":524,"o":"m 197 831 q 322 768 269 831 l 217 710 q 206 683 201 697 q 226 657 211 668 q 248 650 242 646 q 292 683 254 654 q 353 726 331 711 q 415 478 415 619 q 400 347 415 415 l 400 368 q 381 426 400 404 q 325 447 361 447 q 167 372 246 447 q 50 124 50 264 q 72 34 50 75 q 140 -7 93 -7 q 231 15 186 -7 q 367 153 308 56 q 465 522 465 321 q 404 763 465 672 q 499 823 475 808 q 522 844 522 838 q 519 854 522 850 q 485 857 507 869 l 376 799 q 223 864 314 864 q 132 835 132 864 q 147 825 132 825 l 197 831 m 344 222 q 150 10 229 10 q 111 65 111 10 q 219 356 111 211 q 332 433 278 433 q 381 360 381 433 q 344 222 381 286 "},"":{"ha":465,"x_min":-54,"x_max":607,"o":"m 499 456 q 483 458 492 458 q 374 417 449 458 q 245 328 299 376 q 126 200 192 281 q 294 461 243 433 q 260 463 283 458 q 232 467 238 467 q 186 450 203 467 q 33 172 150 415 q -54 -10 -32 35 q -14 -3 -44 -4 q 27 2 17 -1 q 46 19 38 6 q 239 294 139 203 q 329 357 306 357 q 353 342 353 357 q 338 303 353 328 q 261 158 275 203 q 247 83 247 114 q 261 33 247 51 q 338 -6 288 -6 q 440 51 389 -6 q 564 256 490 107 q 563 282 574 276 q 544 268 553 288 q 354 28 425 28 q 328 64 328 28 q 499 456 328 156 m 478 568 q 607 679 553 568 q 586 686 604 686 q 578 682 579 686 q 511 633 554 633 q 490 634 506 633 q 415 659 474 635 q 325 683 357 683 q 197 579 256 683 q 204 574 197 576 q 229 576 226 567 q 289 622 254 622 q 389 593 324 622 q 478 568 447 568 "},"":{"ha":465,"x_min":39,"x_max":569,"o":"m 332 486 q 188 418 264 486 q 71 253 113 350 q 40 128 40 186 q 142 0 40 0 q 260 47 196 0 q 349 11 292 11 q 414 32 379 11 q 443 56 428 40 q 469 83 458 71 q 492 117 479 96 q 513 150 506 138 q 531 184 521 163 q 546 214 542 206 q 558 242 550 222 l 567 261 q 569 271 569 267 q 556 281 569 282 q 546 274 549 281 q 530 240 543 268 q 508 196 517 211 q 482 148 500 181 q 422 72 464 115 q 351 35 389 35 q 286 69 304 35 q 403 233 364 143 q 433 358 433 300 q 332 486 433 486 m 347 443 q 399 375 399 443 q 364 236 399 307 q 310 138 333 172 q 313 159 313 149 q 301 182 313 169 q 271 194 289 194 q 222 135 225 194 q 244 67 222 99 q 167 29 201 29 q 118 93 118 29 q 167 257 118 157 q 258 393 207 343 q 347 443 310 443 m 429 567 q 324 658 429 575 q 200 742 218 742 q 174 708 174 742 q 225 650 174 675 q 320 600 233 646 q 415 554 407 554 q 429 567 429 554 "},"":{"ha":465,"x_min":39,"x_max":618,"o":"m 332 486 q 188 418 264 486 q 71 253 113 350 q 40 128 40 186 q 142 0 40 0 q 260 47 196 0 q 349 11 292 11 q 414 32 379 11 q 443 56 428 40 q 469 83 458 71 q 492 117 479 96 q 513 150 506 138 q 531 184 521 163 q 546 214 542 206 q 558 242 550 222 l 567 261 q 567 276 571 271 q 556 281 564 282 q 546 274 549 281 q 530 240 543 268 q 508 196 517 211 q 482 148 500 181 q 422 72 464 115 q 351 35 389 35 q 286 69 304 35 q 403 233 364 143 q 433 358 433 300 q 332 486 433 486 m 347 443 q 399 375 399 443 q 364 236 399 307 q 310 138 333 172 q 313 159 313 149 q 301 182 313 169 q 271 194 289 194 q 222 135 225 194 q 244 67 222 99 q 167 29 201 29 q 118 93 118 29 q 167 257 118 157 q 258 393 207 343 q 347 443 310 443 m 356 581 q 489 634 371 581 q 614 704 607 688 q 618 723 618 713 q 603 740 618 733 q 570 747 589 747 q 532 733 551 747 q 469 688 513 718 q 390 631 426 658 q 350 599 353 603 q 347 590 347 594 q 351 583 347 585 q 356 581 354 581 "},"":{"ha":465,"x_min":39,"x_max":569,"o":"m 332 486 q 188 418 264 486 q 71 253 113 350 q 40 128 40 186 q 142 0 40 0 q 260 47 196 0 q 349 11 292 11 q 414 32 379 11 q 443 56 428 40 q 469 83 458 71 q 492 117 479 96 q 513 150 506 138 q 531 184 521 163 q 546 214 542 206 q 558 242 550 222 l 567 261 q 569 271 569 267 q 556 281 569 282 q 546 274 549 281 q 530 240 543 268 q 508 196 517 211 q 482 148 500 181 q 422 72 464 115 q 351 35 389 35 q 286 69 304 35 q 403 233 364 143 q 433 358 433 300 q 332 486 433 486 m 347 443 q 399 375 399 443 q 364 236 399 307 q 310 138 333 172 q 313 159 313 149 q 301 182 313 169 q 271 194 289 194 q 222 135 225 194 q 244 67 222 99 q 167 29 201 29 q 118 93 118 29 q 167 257 118 157 q 258 393 207 343 q 347 443 310 443 m 257 569 q 440 668 275 579 l 504 569 q 522 561 510 561 q 533 565 533 561 q 532 569 533 568 l 482 717 q 468 719 481 719 q 429 717 456 719 l 222 569 q 219 565 219 568 q 233 561 219 561 q 257 569 247 561 "},"":{"ha":465,"x_min":39,"x_max":601,"o":"m 332 486 q 188 418 264 486 q 71 253 113 350 q 40 128 40 186 q 142 0 40 0 q 260 47 196 0 q 349 11 292 11 q 414 32 379 11 q 443 56 428 40 q 469 83 458 71 q 492 117 479 96 q 513 150 506 138 q 531 184 521 163 q 546 214 542 206 q 558 242 550 222 l 567 261 q 567 276 571 271 q 556 281 564 282 q 546 274 549 281 q 530 240 543 268 q 508 196 517 211 q 482 148 500 181 q 422 72 464 115 q 351 35 389 35 q 286 69 304 35 q 403 233 364 143 q 433 358 433 300 q 332 486 433 486 m 347 443 q 399 375 399 443 q 364 236 399 307 q 310 138 333 172 q 313 159 313 149 q 301 182 313 169 q 271 194 289 194 q 222 135 225 194 q 244 67 222 99 q 167 29 201 29 q 118 93 118 29 q 167 257 118 157 q 258 393 207 343 q 347 443 310 443 m 472 599 q 601 710 547 599 q 581 717 599 717 q 572 713 574 717 q 506 664 549 664 q 484 665 500 664 q 410 690 468 665 q 319 714 351 714 q 192 610 250 714 q 199 604 192 607 q 224 607 221 597 q 283 653 249 653 q 383 624 318 653 q 472 599 442 599 "},"":{"ha":465,"x_min":39,"x_max":569,"o":"m 332 486 q 188 418 264 486 q 71 253 113 350 q 40 128 40 186 q 142 0 40 0 q 260 47 196 0 q 349 11 292 11 q 414 32 379 11 q 443 56 428 40 q 469 83 458 71 q 492 117 479 96 q 513 150 506 138 q 531 184 521 163 q 546 214 542 206 q 558 242 550 222 l 567 261 q 569 271 569 267 q 556 281 569 282 q 546 274 549 281 q 530 240 543 268 q 508 196 517 211 q 482 148 500 181 q 422 72 464 115 q 351 35 389 35 q 286 69 304 35 q 403 233 364 143 q 433 358 433 300 q 332 486 433 486 m 347 443 q 399 375 399 443 q 364 236 399 307 q 310 138 333 172 q 313 159 313 149 q 301 182 313 169 q 271 194 289 194 q 222 135 225 194 q 244 67 222 99 q 167 29 201 29 q 118 93 118 29 q 167 257 118 157 q 258 393 207 343 q 347 443 310 443 m 495 681 q 463 667 475 681 q 450 634 450 654 q 463 601 450 614 q 497 589 476 589 q 529 602 517 589 q 542 635 542 615 q 528 668 542 656 q 505 681 515 681 q 495 681 495 681 m 316 681 q 283 667 296 681 q 271 634 271 654 q 284 601 271 614 q 317 589 297 589 q 350 602 338 589 q 363 635 363 615 q 349 668 363 656 q 326 681 336 681 q 316 681 316 681 "},"":{"ha":557,"x_min":89,"x_max":571,"o":"m 386 308 q 410 349 406 325 q 400 389 414 372 q 363 406 386 406 q 319 389 339 406 q 296 349 299 372 q 306 308 292 325 q 343 292 319 292 q 376 300 367 292 q 386 308 386 308 m 327 -3 q 351 38 347 14 q 340 78 354 61 q 303 94 326 94 q 260 78 279 94 q 236 38 240 61 q 246 -3 232 14 q 283 -19 260 -19 q 317 -11 307 -19 q 327 -3 327 -3 m 571 207 l 571 232 l 568 233 l 90 233 l 89 232 l 89 207 l 90 206 l 568 206 l 571 207 "},"":{"ha":465,"x_min":40,"x_max":569,"o":"m 108 4 l 69 -64 l 94 -75 l 138 0 l 139 0 q 142 0 140 0 q 260 47 196 0 q 349 11 292 11 q 414 32 379 11 q 443 56 428 40 q 469 83 458 71 q 492 117 479 96 q 513 150 506 138 q 531 184 521 163 q 546 214 542 206 q 558 242 550 222 l 567 261 q 569 271 569 267 q 556 281 569 282 q 546 274 549 281 q 530 240 543 268 q 508 196 517 211 q 482 148 500 181 q 422 72 464 115 q 351 35 389 35 q 286 69 304 35 q 398 222 364 143 q 432 365 432 300 q 399 461 432 429 l 436 525 l 410 538 l 375 476 q 332 486 356 486 q 188 418 264 486 q 71 253 113 350 q 40 125 40 186 q 108 4 40 25 m 131 44 q 117 107 117 63 q 160 245 117 151 q 256 390 204 339 q 347 442 307 442 q 356 442 351 442 l 131 44 m 310 138 q 313 159 313 149 q 301 182 313 169 q 271 194 289 194 q 243 186 253 194 l 381 429 q 397 385 397 411 q 310 138 397 267 m 222 135 q 244 67 222 99 q 164 31 199 31 q 154 31 158 31 l 222 150 l 222 135 "},"":{"ha":496,"x_min":31,"x_max":600,"o":"m 31 81 q 35 64 31 71 q 122 1 47 1 q 310 179 208 1 q 296 100 296 132 q 304 47 296 68 q 376 1 324 1 q 482 63 428 1 q 527 127 503 86 q 563 192 551 168 q 588 240 575 215 q 600 272 600 265 q 592 283 600 279 q 575 268 583 288 q 390 36 465 36 q 360 83 360 39 q 364 119 360 100 q 457 340 374 174 q 505 429 488 404 q 553 478 522 454 l 478 478 q 424 449 439 478 q 217 86 290 172 q 143 31 169 31 q 115 43 125 31 q 104 86 104 56 q 132 176 104 117 q 210 338 160 235 q 311 478 261 442 l 226 478 q 172 449 186 478 q 94 296 142 386 l 69 247 q 82 225 60 225 q 31 81 31 140 m 453 571 q 347 663 453 579 q 224 746 242 746 q 197 713 197 746 q 249 654 197 681 q 344 604 257 650 q 439 558 431 558 q 453 571 453 558 "},"":{"ha":496,"x_min":31,"x_max":607,"o":"m 31 81 q 35 64 31 71 q 122 1 47 1 q 310 179 208 1 q 296 100 296 132 q 304 47 296 68 q 376 1 324 1 q 482 63 428 1 q 527 127 503 86 q 563 192 551 168 q 590 246 575 215 q 594 282 604 276 q 575 268 583 288 q 390 36 465 36 q 360 83 360 39 q 364 119 360 100 q 457 340 374 174 q 505 429 488 404 q 553 478 522 454 l 478 478 q 424 449 439 478 q 217 86 290 172 q 143 31 169 31 q 115 43 125 31 q 104 86 104 56 q 132 176 104 117 q 210 338 160 235 q 311 478 261 442 l 226 478 q 172 449 186 478 q 94 296 142 386 l 69 247 q 82 225 60 225 q 31 81 31 140 m 344 564 q 478 617 360 564 q 603 688 596 671 q 607 706 607 696 q 592 724 607 717 q 559 731 578 731 q 521 716 540 731 q 458 672 501 701 q 378 614 415 642 q 339 582 342 586 q 336 573 336 578 q 340 566 336 568 q 344 564 343 564 "},"":{"ha":496,"x_min":31,"x_max":600,"o":"m 31 81 q 35 64 31 71 q 122 1 47 1 q 310 179 208 1 q 296 100 296 132 q 304 47 296 68 q 376 1 324 1 q 482 63 428 1 q 527 127 503 86 q 563 192 551 168 q 588 240 575 215 q 600 272 600 265 q 592 283 600 279 q 575 268 583 288 q 390 36 465 36 q 360 83 360 39 q 364 119 360 100 q 457 340 374 174 q 505 429 488 404 q 553 478 522 454 l 478 478 q 424 449 439 478 q 217 86 290 172 q 143 31 169 31 q 115 43 125 31 q 104 86 104 56 q 132 176 104 117 q 210 338 160 235 q 311 478 261 442 l 226 478 q 172 449 186 478 q 94 296 142 386 l 69 247 q 82 225 60 225 q 31 81 31 140 m 290 585 q 474 683 308 594 l 538 585 q 555 576 543 576 q 567 580 567 576 q 565 585 567 583 l 515 732 q 501 736 514 736 q 463 732 489 736 l 256 585 q 253 580 253 583 q 267 576 253 576 q 290 585 281 576 "},"":{"ha":496,"x_min":31,"x_max":600,"o":"m 31 81 q 35 64 31 71 q 122 1 47 1 q 310 179 208 1 q 296 100 296 132 q 304 47 296 68 q 376 1 324 1 q 482 63 428 1 q 527 127 503 86 q 563 192 551 168 q 588 240 575 215 q 600 272 600 265 q 592 283 600 279 q 575 268 583 288 q 390 36 465 36 q 360 83 360 39 q 364 119 360 100 q 457 340 374 174 q 505 429 488 404 q 553 478 522 454 l 478 478 q 424 449 439 478 q 217 86 290 172 q 143 31 169 31 q 115 43 125 31 q 104 86 104 56 q 132 176 104 117 q 210 338 160 235 q 311 478 261 442 l 226 478 q 172 449 186 478 q 94 296 142 386 l 69 247 q 82 225 60 225 q 31 81 31 140 m 327 708 q 294 695 307 708 q 282 662 282 682 q 295 629 282 642 q 328 617 308 617 q 361 630 349 617 q 374 663 374 643 q 360 696 374 683 q 337 708 347 708 q 327 708 327 708 m 506 708 q 474 695 486 708 q 461 662 461 682 q 474 629 461 642 q 508 617 488 617 q 540 630 528 617 q 553 663 553 643 q 540 696 553 683 q 516 708 526 708 q 506 708 506 708 "},"":{"ha":554,"x_min":-242,"x_max":657,"o":"m -114 -439 q 106 -356 4 -439 q 321 -69 214 -264 q 443 -17 397 -42 q 526 49 489 7 q 588 130 564 90 q 634 216 611 169 q 657 269 657 263 q 649 281 657 276 q 632 265 642 285 q 544 113 575 156 q 344 -25 475 14 q 401 138 364 29 q 462 311 438 246 q 507 415 486 376 q 564 478 528 453 l 489 478 q 435 449 450 478 q 217 86 315 201 q 143 31 169 31 q 115 43 125 31 q 104 86 104 56 q 135 182 104 117 q 260 428 210 342 q 297 467 272 450 q 311 478 308 475 l 226 478 q 172 449 186 478 q 94 296 142 386 l 69 247 q 82 225 60 225 q 56 175 71 207 q 44 148 53 167 q 35 121 36 129 q 32 93 35 113 q 35 64 29 74 q 122 1 47 1 q 232 58 178 1 q 367 257 286 115 q 247 -56 297 32 q 97 -94 214 -65 q -90 -156 -19 -122 q -221 -269 -185 -199 q -242 -351 -242 -315 q -208 -413 -242 -387 q -114 -439 -175 -439 m -194 -301 q -67 -186 -156 -225 q 222 -100 -7 -160 l 192 -151 q 31 -328 122 -246 q -142 -411 -61 -411 q -190 -397 -171 -411 q -210 -358 -210 -383 q -194 -301 -210 -332 m 367 574 q 500 627 382 574 q 625 697 618 681 q 629 716 629 706 q 615 733 629 726 q 581 740 600 740 q 543 726 563 740 q 481 681 524 711 q 401 624 438 651 q 361 592 364 596 q 358 583 358 588 q 362 576 358 578 q 367 574 365 574 "},"":{"ha":535,"x_min":-204,"x_max":526,"o":"m 458 389 q 418 267 458 342 q 263 74 356 151 q 172 25 204 25 q 122 43 140 25 q 308 358 243 268 q 421 449 372 449 q 449 430 440 449 q 458 389 458 411 m 438 486 q 349 441 399 486 q 211 253 299 396 l 386 724 q 399 789 399 763 q 369 842 399 815 q 342 851 364 847 q 314 863 319 854 q 242 561 315 808 q 67 97 169 314 q -79 -174 21 1 q -204 -374 -179 -350 q -172 -376 -193 -372 q -145 -381 -150 -381 q -125 -381 -140 -381 q -91 -367 -110 -381 q -50 -308 -72 -353 l 111 22 q 198 -3 158 -3 q 268 6 238 -3 q 405 99 349 31 q 493 240 461 167 q 525 375 525 314 q 456 483 525 465 q 438 486 447 486 "},"":{"ha":554,"x_min":-242,"x_max":657,"o":"m -114 -439 q 106 -356 4 -439 q 321 -69 214 -264 q 443 -17 397 -42 q 526 49 489 7 q 588 130 564 90 q 634 216 611 169 q 657 269 657 263 q 649 281 657 276 q 632 265 642 285 q 544 113 575 156 q 344 -25 475 14 q 401 138 364 29 q 462 311 438 246 q 507 415 486 376 q 564 478 528 453 l 489 478 q 435 449 450 478 q 217 86 315 201 q 143 31 169 31 q 115 43 125 31 q 104 86 104 56 q 135 182 104 117 q 260 428 210 342 q 297 467 272 450 q 311 478 308 475 l 226 478 q 172 449 186 478 q 94 296 142 386 l 69 247 q 82 225 60 225 q 56 175 71 207 q 44 148 53 167 q 35 121 36 129 q 32 93 35 113 q 35 64 29 74 q 122 1 47 1 q 232 58 178 1 q 367 257 286 115 q 247 -56 297 32 q 97 -94 214 -65 q -90 -156 -19 -122 q -221 -269 -185 -199 q -242 -351 -242 -315 q -208 -413 -242 -387 q -114 -439 -175 -439 m -194 -301 q -67 -186 -156 -225 q 222 -100 -7 -160 l 192 -151 q 31 -328 122 -246 q -142 -411 -61 -411 q -190 -397 -171 -411 q -210 -358 -210 -383 q -194 -301 -210 -332 m 480 690 q 447 677 460 690 q 435 644 435 664 q 448 611 435 624 q 481 599 461 599 q 514 612 501 599 q 526 645 526 625 q 513 678 526 665 q 490 690 500 690 q 480 690 480 690 m 301 690 q 268 677 281 690 q 256 644 256 664 q 269 611 256 624 q 302 599 282 599 q 335 612 322 599 q 347 645 347 625 q 334 678 347 665 q 311 690 321 690 q 301 690 301 690 "},"":{"ha":989,"x_min":25,"x_max":1200,"o":"m 922 618 q 834 525 883 618 q 683 310 785 432 q 476 99 582 188 q 215 -24 328 -24 q 99 92 115 -24 q 97 119 97 104 q 150 323 97 192 q 343 653 203 454 q 648 614 464 614 q 965 661 832 614 q 1100 733 1053 692 q 1194 897 1194 813 q 1130 1024 1194 975 q 956 1074 1065 1074 q 278 711 604 1074 q 160 793 200 747 q 119 876 119 839 q 127 911 119 893 q 126 942 135 929 q 101 935 115 953 q 81 868 81 921 q 114 778 81 815 q 253 682 160 726 q 131 506 186 606 q 25 155 25 317 q 125 -49 25 -7 q 180 -65 157 -65 q 213 -64 203 -65 q 397 -3 314 -54 q 696 267 556 99 q 658 176 672 235 q 643 58 643 118 q 671 -45 643 -1 q 753 -89 699 -89 q 864 -55 808 -89 q 957 31 919 -21 q 1086 253 1029 126 q 1085 278 1096 275 q 1063 258 1074 281 q 942 61 1021 163 q 786 -47 853 -47 q 747 -25 764 -47 q 729 46 729 -3 q 807 326 729 171 q 919 497 858 429 q 954 578 954 535 q 922 618 954 618 m 1138 914 q 1036 739 1138 810 q 621 647 906 647 q 365 681 469 647 q 490 817 432 760 q 622 928 547 874 q 781 1010 696 982 q 953 1038 867 1038 q 1088 1006 1039 1038 q 1138 914 1138 974 m 1200 1181 l 904 1181 l 886 1139 l 1183 1139 l 1200 1181 "},"":{"ha":486,"x_min":32,"x_max":597,"o":"m 501 376 q 467 378 490 374 q 439 382 444 382 q 393 363 411 382 q 349 293 375 344 q 131 38 214 38 q 96 92 96 38 q 150 236 96 146 q 243 367 193 311 q 390 461 331 461 q 457 411 442 461 q 481 422 475 408 q 472 451 486 436 q 364 496 428 496 q 314 489 340 496 q 150 388 217 465 q 32 111 32 247 q 74 11 32 40 q 114 -3 92 -3 q 306 176 194 -3 q 292 92 292 126 q 304 36 292 57 q 369 -3 329 -3 q 585 256 457 -3 q 588 276 590 269 q 578 281 586 283 q 565 267 571 279 q 453 82 510 153 q 388 33 414 33 q 367 60 367 33 q 376 131 367 88 q 431 263 385 175 q 501 376 476 351 m 597 642 l 301 642 l 283 600 l 581 600 l 597 642 "},"":{"ha":989,"x_min":28,"x_max":1207,"o":"m 1206 1167 q 1203 1174 1206 1171 q 1175 1165 1189 1183 q 1142 1126 1154 1138 q 1103 1103 1129 1114 q 1029 1092 1078 1092 q 944 1126 981 1092 q 930 1149 936 1135 q 919 1172 924 1163 q 910 1181 915 1181 q 886 1146 886 1181 q 933 1064 886 1088 q 1025 1044 971 1044 q 1131 1076 1079 1044 q 1206 1167 1206 1125 m 878 563 q 801 488 843 563 q 476 99 685 274 q 215 -24 328 -24 q 99 92 115 -24 q 97 119 97 104 q 137 290 97 192 q 235 481 176 389 q 326 603 293 572 q 618 560 458 560 q 1036 660 906 560 q 1135 814 1135 736 q 1074 937 1135 892 q 910 982 1014 982 q 565 897 729 982 q 268 668 400 811 q 153 749 199 699 q 118 818 118 785 q 125 850 118 833 q 126 878 132 867 q 101 874 115 892 q 82 811 82 860 q 114 729 82 763 q 244 640 156 682 q 122 461 176 567 q 29 142 29 275 q 125 -49 29 -8 q 180 -65 157 -65 q 213 -64 203 -65 q 397 -3 314 -54 q 696 267 556 99 q 658 176 672 235 q 643 58 643 118 q 671 -45 643 -1 q 753 -89 699 -89 q 864 -55 808 -89 q 957 31 919 -21 q 1086 253 1029 126 q 1085 278 1096 275 q 1063 258 1074 281 q 942 61 1021 163 q 786 -47 853 -47 q 747 -25 764 -47 q 729 38 729 -3 q 738 125 729 79 q 876 451 778 343 q 908 526 908 488 q 878 563 908 563 m 1081 835 q 986 675 1081 739 q 615 592 863 592 q 347 628 464 592 q 610 863 474 776 q 914 949 746 949 q 1035 919 989 949 q 1081 835 1081 889 "},"":{"ha":486,"x_min":32,"x_max":642,"o":"m 501 376 q 467 378 490 374 q 439 382 444 382 q 393 363 411 382 q 349 293 375 344 q 131 38 214 38 q 96 92 96 38 q 150 236 96 146 q 243 367 193 311 q 390 461 331 461 q 457 411 442 461 q 481 422 475 408 q 472 451 486 436 q 364 496 428 496 q 314 489 340 496 q 150 388 217 465 q 32 111 32 247 q 74 11 32 40 q 114 -3 92 -3 q 306 176 194 -3 q 292 92 292 126 q 304 36 292 57 q 369 -3 329 -3 q 585 256 457 -3 q 588 276 590 269 q 578 281 586 283 q 565 267 571 279 q 453 82 510 153 q 388 33 414 33 q 367 60 367 33 q 376 131 367 88 q 431 263 385 175 q 501 376 476 351 m 640 733 q 638 740 640 738 q 610 732 624 750 q 576 692 589 704 q 538 669 564 681 q 464 658 513 658 q 379 693 415 658 q 365 715 371 701 q 354 738 358 729 q 344 747 350 747 q 321 713 321 747 q 367 631 321 654 q 460 611 406 611 q 564 643 514 611 q 640 733 640 692 "},"":{"ha":989,"x_min":25,"x_max":1194,"o":"m 922 618 q 834 525 883 618 q 683 310 785 432 q 476 99 582 188 q 215 -24 328 -24 q 99 92 115 -24 q 97 119 97 104 q 150 323 97 192 q 343 653 203 454 q 648 614 464 614 q 965 661 832 614 q 1100 733 1053 692 q 1194 897 1194 813 q 1130 1024 1194 975 q 956 1074 1065 1074 q 278 711 604 1074 q 160 793 200 747 q 119 876 119 839 q 127 911 119 893 q 126 942 135 929 q 101 935 115 953 q 81 868 81 921 q 114 778 81 815 q 253 682 160 726 q 131 506 186 606 q 25 155 25 317 q 125 -49 25 -7 q 180 -65 157 -65 q 213 -64 203 -65 q 397 -3 314 -54 q 696 267 556 99 q 658 176 672 235 q 643 58 643 118 q 671 -45 643 -1 q 753 -89 699 -89 q 813 -78 782 -89 q 712 -187 756 -128 q 668 -292 668 -247 q 742 -350 668 -350 q 818 -324 779 -350 q 863 -272 857 -297 q 861 -265 864 -267 q 849 -267 858 -262 q 778 -308 807 -308 q 738 -263 738 -308 q 790 -151 739 -218 q 903 -36 842 -85 l 903 -26 q 957 31 938 3 q 1086 253 1029 126 q 1085 278 1096 275 q 1063 258 1074 281 q 942 61 1021 163 q 786 -47 853 -47 q 747 -25 764 -47 q 729 46 729 -3 q 807 326 729 171 q 919 497 858 429 q 954 578 954 535 q 922 618 954 618 m 1138 914 q 1036 739 1138 810 q 621 647 906 647 q 365 681 469 647 q 490 817 432 760 q 622 928 547 874 q 781 1010 696 982 q 953 1038 867 1038 q 1088 1006 1039 1038 q 1138 914 1138 974 "},"":{"ha":486,"x_min":32,"x_max":589,"o":"m 501 376 q 467 378 490 374 q 439 382 444 382 q 393 363 411 382 q 349 293 375 344 q 131 38 214 38 q 96 92 96 38 q 150 236 96 146 q 243 367 193 311 q 390 461 331 461 q 457 411 442 461 q 481 422 475 408 q 472 451 486 436 q 364 496 428 496 q 314 489 340 496 q 150 388 217 465 q 32 111 32 247 q 74 11 32 40 q 114 -3 92 -3 q 306 176 194 -3 q 292 108 292 131 q 294 74 292 85 q 360 -1 307 4 q 252 -115 300 -51 q 204 -225 204 -179 q 278 -283 204 -283 q 354 -257 315 -283 q 399 -206 393 -231 q 397 -198 400 -200 q 385 -200 394 -196 q 314 -242 343 -242 q 274 -198 274 -242 q 321 -92 275 -154 q 425 19 367 -29 q 585 256 494 71 q 589 272 589 265 q 578 281 589 285 q 565 267 571 279 q 453 82 510 153 q 388 33 414 33 q 367 60 367 33 q 376 131 367 88 q 431 263 385 175 q 501 376 476 351 "},"":{"ha":986,"x_min":89,"x_max":1172,"o":"m 732 515 q 892 535 817 515 q 1135 692 1061 578 q 1171 796 1171 747 q 1146 888 1171 844 q 858 1024 1078 1004 q 783 1028 821 1028 q 550 989 663 1028 q 294 826 403 938 q 276 951 276 903 q 281 1023 276 1000 q 281 1051 286 1046 q 267 1051 275 1056 q 257 1038 260 1046 q 239 923 239 985 q 263 789 239 861 q 162 639 206 732 q 104 458 118 546 q 90 317 90 369 q 94 225 90 264 q 162 33 104 121 q 319 -98 219 -56 q 526 -140 418 -140 q 863 -32 707 -140 q 985 85 940 22 q 1083 254 1031 147 q 1084 281 1093 275 q 1067 268 1075 286 q 967 98 1014 160 q 839 -12 921 36 q 510 -93 703 -93 q 374 -71 450 -93 q 224 45 272 -39 q 176 228 176 129 q 201 442 176 328 q 253 615 224 544 q 300 704 283 686 q 732 515 415 515 m 326 739 q 562 926 431 865 q 802 986 693 986 q 986 954 911 986 q 1107 790 1107 900 q 1022 633 1107 704 q 729 543 911 543 q 326 739 424 543 m 1113 1144 q 1115 1157 1115 1151 q 1076 1181 1115 1181 q 1042 1166 1061 1181 q 928 1085 1022 1151 q 895 1058 897 1063 q 893 1051 893 1054 q 907 1043 893 1043 q 1010 1087 914 1043 q 1113 1144 1107 1131 "},"":{"ha":361,"x_min":47,"x_max":600,"o":"m 335 319 q 358 310 344 310 q 390 328 371 310 q 429 408 429 361 q 406 465 429 440 q 332 489 383 489 q 146 379 226 489 q 77 254 107 326 q 47 121 47 182 q 81 33 47 71 q 193 -6 115 -6 q 364 72 301 -6 q 417 150 399 115 q 469 254 436 185 q 469 279 479 275 q 450 264 460 283 q 404 176 421 206 q 355 103 388 147 q 286 40 322 60 q 208 19 250 19 q 145 50 165 19 q 125 130 125 81 q 150 240 125 179 q 201 339 175 301 q 350 458 285 458 q 383 418 383 458 q 335 319 383 378 m 338 582 q 471 635 353 582 q 596 706 589 689 q 600 724 600 714 q 585 742 600 735 q 552 749 571 749 q 514 734 533 749 q 451 690 494 719 q 372 632 408 660 q 332 600 335 604 q 329 591 329 596 q 333 584 329 586 q 338 582 336 582 "},"":{"ha":986,"x_min":89,"x_max":1172,"o":"m 999 1178 l 822 1060 q 824 1053 821 1057 q 854 1060 842 1047 q 1008 1133 871 1068 l 1067 1044 q 1085 1036 1072 1036 q 1092 1044 1094 1036 l 1046 1178 q 1033 1181 1044 1181 q 999 1178 1022 1181 m 732 515 q 892 535 817 515 q 1135 692 1061 578 q 1171 796 1171 747 q 1146 888 1171 844 q 858 1024 1078 1004 q 783 1028 821 1028 q 550 989 663 1028 q 294 826 403 938 q 276 951 276 903 q 282 1026 276 1000 q 275 1053 288 1053 q 257 1038 263 1053 q 239 923 239 985 q 263 789 239 861 q 162 639 206 732 q 104 458 118 546 q 90 317 90 369 q 94 225 90 264 q 162 33 104 121 q 319 -98 219 -56 q 526 -140 418 -140 q 863 -32 707 -140 q 985 85 940 22 q 1083 254 1031 147 q 1084 281 1093 275 q 1067 268 1075 286 q 967 98 1014 160 q 839 -12 921 36 q 510 -93 703 -93 q 374 -71 450 -93 q 224 45 272 -39 q 176 228 176 129 q 201 442 176 328 q 253 615 224 544 q 300 704 283 686 q 732 515 415 515 m 326 739 q 562 926 431 865 q 802 986 693 986 q 986 954 911 986 q 1107 790 1107 900 q 1022 633 1107 704 q 729 543 911 543 q 326 739 424 543 "},"":{"ha":361,"x_min":47,"x_max":489,"o":"m 335 319 q 358 310 344 310 q 390 328 371 310 q 429 408 429 361 q 406 465 429 440 q 332 489 383 489 q 146 379 226 489 q 77 254 107 326 q 47 121 47 182 q 81 33 47 71 q 193 -6 115 -6 q 364 72 301 -6 q 417 150 399 115 q 469 254 436 185 q 469 279 479 275 q 450 264 460 283 q 404 176 421 206 q 355 103 388 147 q 286 40 322 60 q 208 19 250 19 q 145 50 165 19 q 125 130 125 81 q 150 240 125 179 q 201 339 175 301 q 350 458 285 458 q 383 418 383 458 q 335 319 383 378 m 213 561 q 396 660 231 571 l 460 561 q 477 553 465 553 q 489 556 489 553 q 488 561 489 560 l 438 708 q 424 711 436 711 q 385 708 411 711 l 178 561 q 175 556 175 560 q 189 553 175 553 q 213 561 203 553 "},"":{"ha":986,"x_min":89,"x_max":1172,"o":"m 1014 1181 q 970 1153 992 1181 q 949 1103 949 1126 q 977 1075 949 1075 q 1026 1097 1006 1075 q 1047 1139 1047 1118 q 1014 1181 1047 1181 m 732 515 q 892 535 817 515 q 1135 692 1061 578 q 1171 796 1171 747 q 1146 888 1171 844 q 858 1024 1078 1004 q 783 1028 821 1028 q 550 989 663 1028 q 294 826 403 938 q 276 951 276 903 q 282 1026 276 1000 q 275 1053 288 1053 q 257 1038 263 1053 q 239 923 239 985 q 263 789 239 861 q 162 639 206 732 q 104 458 118 546 q 90 317 90 369 q 94 225 90 264 q 162 33 104 121 q 319 -98 219 -56 q 526 -140 418 -140 q 863 -32 707 -140 q 985 85 940 22 q 1083 254 1031 147 q 1084 281 1093 275 q 1067 268 1075 286 q 967 98 1014 160 q 839 -12 921 36 q 510 -93 703 -93 q 374 -71 450 -93 q 224 45 272 -39 q 176 228 176 129 q 201 442 176 328 q 253 615 224 544 q 300 704 283 686 q 732 515 415 515 m 326 739 q 562 926 431 865 q 802 986 693 986 q 986 954 911 986 q 1107 790 1107 900 q 1022 633 1107 704 q 729 543 911 543 q 326 739 424 543 "},"":{"ha":361,"x_min":47,"x_max":475,"o":"m 335 319 q 358 310 344 310 q 390 328 371 310 q 429 408 429 361 q 406 465 429 440 q 332 489 383 489 q 146 379 226 489 q 77 254 107 326 q 47 121 47 182 q 81 33 47 71 q 193 -6 115 -6 q 364 72 301 -6 q 417 150 399 115 q 455 224 436 185 q 474 270 474 264 q 467 280 474 276 q 450 264 460 283 q 404 176 421 206 q 355 103 388 147 q 286 40 322 60 q 208 19 250 19 q 145 50 165 19 q 125 130 125 81 q 150 240 125 179 q 201 339 175 301 q 350 458 285 458 q 383 418 383 458 q 335 319 383 378 m 413 679 q 369 652 390 679 q 347 601 347 625 q 376 574 347 574 q 425 595 404 574 q 446 636 446 617 q 413 679 446 679 "},"":{"ha":986,"x_min":82,"x_max":1158,"o":"m 1115 1171 q 932 1072 1097 1161 l 868 1171 q 856 1179 864 1179 q 849 1179 849 1179 q 840 1171 836 1179 l 890 1024 q 904 1019 892 1019 q 943 1024 917 1019 l 1150 1171 q 1153 1176 1153 1172 q 1139 1179 1153 1179 q 1115 1171 1125 1179 m 718 475 q 878 494 803 475 q 1121 651 1047 538 q 1157 756 1157 707 q 1132 847 1157 804 q 844 983 1064 964 q 769 988 807 988 q 536 947 649 988 q 281 786 389 897 q 263 911 263 863 q 268 986 263 960 q 261 1013 274 1013 q 243 997 249 1013 q 225 883 225 944 q 249 749 225 821 q 149 603 192 692 q 95 434 107 514 q 83 304 83 354 q 89 211 83 254 q 160 28 101 113 q 319 -98 219 -56 q 526 -140 418 -140 q 863 -32 707 -140 q 985 85 940 22 q 1083 254 1031 147 q 1084 281 1093 275 q 1067 268 1075 286 q 967 98 1014 160 q 839 -12 921 36 q 510 -93 703 -93 q 361 -66 450 -93 q 222 43 272 -39 q 172 222 172 125 q 192 415 172 318 q 241 579 213 513 q 286 664 269 646 q 718 475 401 475 m 313 699 q 548 885 417 825 q 788 946 679 946 q 972 914 897 946 q 1093 750 1093 860 q 1008 593 1093 664 q 715 503 897 503 q 313 699 410 503 "},"":{"ha":361,"x_min":47,"x_max":633,"o":"m 335 319 q 358 310 344 310 q 390 328 371 310 q 429 408 429 361 q 406 465 429 440 q 332 489 383 489 q 146 379 226 489 q 77 254 107 326 q 47 121 47 182 q 81 33 47 71 q 193 -6 115 -6 q 364 72 301 -6 q 417 150 399 115 q 469 254 436 185 q 469 279 479 275 q 450 264 460 283 q 404 176 421 206 q 355 103 388 147 q 286 40 322 60 q 208 19 250 19 q 145 50 165 19 q 125 130 125 81 q 150 240 125 179 q 201 339 175 301 q 350 458 285 458 q 383 418 383 458 q 335 319 383 378 m 596 775 q 413 676 578 765 l 349 775 q 332 783 344 783 q 319 780 319 783 q 321 775 319 776 l 371 628 q 385 625 372 625 q 424 628 397 625 l 631 775 q 633 780 633 776 q 619 783 633 783 q 596 775 606 783 "},"":{"ha":1426,"x_min":3,"x_max":1431,"o":"m 924 -47 q 1058 -37 992 -47 q 1303 69 1199 -18 q 1425 371 1425 174 q 1363 619 1425 506 q 1136 854 1285 763 q 1197 940 1160 894 q 1258 986 1235 986 q 1267 990 1264 986 q 1268 999 1271 993 q 1249 1004 1265 1004 q 1176 974 1222 1004 q 1076 886 1131 944 q 711 971 901 971 q 588 963 650 971 q 157 772 279 921 q 97 629 97 701 q 110 563 97 596 q 250 435 143 469 q 333 424 286 424 q 436 453 381 424 q 543 594 529 501 q 531 614 546 611 q 515 606 517 617 q 450 501 513 558 q 385 465 418 472 q 325 457 351 457 q 264 465 299 457 q 163 593 163 494 q 228 740 163 663 q 560 918 340 875 q 706 932 635 932 q 1038 846 881 932 q 892 658 965 771 q 769 450 819 546 q 649 251 718 354 q 510 88 579 149 q 301 181 369 158 q 175 203 233 203 q 38 151 89 203 q 4 88 4 118 q 14 38 4 58 q 235 -56 56 -56 q 521 42 393 -56 q 924 -47 689 -47 m 554 64 q 756 288 640 131 q 949 572 833 396 q 1103 804 1064 747 q 1288 583 1225 715 q 1338 363 1338 481 q 1233 103 1338 196 q 881 -12 1101 -12 q 554 64 692 -12 m 474 61 q 226 -15 360 -15 q 106 39 136 -15 q 94 82 94 60 q 118 133 94 104 q 183 161 142 161 q 274 145 224 161 q 474 61 325 129 m 1393 1172 q 1210 1081 1375 1164 l 1146 1172 q 1128 1179 1140 1179 q 1117 1176 1117 1179 q 1118 1172 1117 1174 l 1168 1036 q 1182 1033 1169 1033 q 1221 1036 1194 1033 l 1428 1172 q 1431 1177 1431 1174 q 1417 1181 1431 1181 q 1393 1172 1404 1181 "},"":{"ha":910,"x_min":36,"x_max":921,"o":"m 372 81 q 386 147 372 107 q 597 581 422 256 q 767 864 735 835 q 731 866 754 863 q 705 869 708 869 q 685 869 701 869 q 651 856 669 869 q 613 797 632 843 q 451 468 546 646 q 363 493 403 493 q 294 483 324 493 q 157 392 214 460 q 69 249 100 324 q 38 114 38 175 q 106 6 38 24 q 137 1 121 1 q 169 8 153 1 q 308 160 228 26 q 301 99 301 132 q 324 33 301 67 q 383 0 346 0 q 608 258 497 0 q 611 278 614 272 q 601 282 608 285 q 590 271 593 279 q 582 254 586 263 q 408 36 474 36 q 372 81 372 36 m 440 446 q 258 139 328 236 q 142 42 189 42 q 113 60 122 42 q 104 100 104 78 q 144 224 104 149 q 299 415 206 338 q 390 464 357 464 q 440 446 422 464 m 921 796 q 906 849 921 826 q 866 871 892 871 q 820 854 840 871 q 797 814 800 838 q 807 774 793 790 q 843 757 821 757 q 883 771 865 757 q 849 695 878 726 q 778 650 819 664 q 767 639 767 646 q 771 632 767 632 q 781 635 775 632 q 878 694 836 653 q 921 796 921 735 "},"":{"ha":1426,"x_min":3,"x_max":1425,"o":"m 521 50 q 928 -47 689 -47 q 1167 -4 1046 -47 q 1339 119 1268 32 q 1425 407 1425 226 q 1363 676 1425 553 q 1136 929 1285 831 q 1197 1022 1160 972 q 1258 1072 1235 1072 q 1267 1076 1264 1072 q 1268 1085 1271 1079 q 1250 1092 1265 1092 q 1176 1059 1222 1092 q 1076 964 1131 1026 q 708 1056 901 1056 q 588 1047 649 1056 q 154 838 276 1001 q 97 686 97 763 q 111 611 97 649 q 250 476 144 513 l 322 464 q 436 494 379 464 q 543 649 529 547 q 531 670 546 667 q 515 661 517 674 q 450 547 511 608 q 385 508 418 517 q 326 500 353 500 q 264 510 300 500 q 163 647 163 542 q 232 811 163 725 q 560 999 344 953 q 707 1014 635 1014 q 1038 921 882 1014 q 928 775 983 858 q 847 638 907 746 q 742 442 786 529 q 599 443 678 443 q 576 426 581 443 q 581 392 572 408 q 599 376 589 375 l 713 389 q 510 100 603 190 q 295 203 356 182 q 175 225 235 225 q 36 168 86 225 q 4 101 4 132 q 14 46 4 69 q 235 -54 56 -54 q 521 50 392 -54 m 554 75 q 807 397 658 164 q 910 400 871 400 q 933 419 931 403 q 904 438 928 436 l 835 439 q 960 645 867 490 q 1103 876 1053 800 q 1288 638 1225 781 q 1338 397 1338 525 q 1233 117 1338 218 q 883 -8 1103 -8 q 554 75 694 -8 m 474 72 q 225 -11 358 -11 q 106 49 135 -11 q 94 95 94 71 q 119 150 94 119 q 184 181 143 181 q 268 165 225 181 q 474 72 311 150 "},"":{"ha":510,"x_min":36,"x_max":790,"o":"m 372 81 q 638 656 372 179 q 767 660 697 660 q 790 679 788 663 q 761 697 785 696 q 663 700 721 697 q 767 864 743 842 q 731 866 754 863 q 705 869 708 869 q 685 869 701 869 q 651 856 669 869 q 613 797 632 843 l 568 701 q 456 703 521 703 q 433 685 438 703 q 438 651 429 668 q 456 636 446 635 l 542 646 q 451 468 483 529 q 363 493 403 493 q 294 483 324 493 q 157 392 214 460 q 69 249 100 324 q 38 114 38 175 q 106 6 38 24 q 137 1 121 1 q 169 8 153 1 q 308 160 228 26 q 301 99 301 132 q 324 33 301 67 q 383 0 346 0 q 608 258 497 0 q 611 278 614 272 q 601 282 608 285 q 590 271 593 279 q 582 254 586 263 q 408 36 474 36 q 372 81 372 36 m 440 446 q 258 139 328 236 q 142 42 189 42 q 113 60 122 42 q 104 100 104 78 q 144 224 104 149 q 299 415 206 338 q 390 464 357 464 q 440 446 422 464 "},"":{"ha":1217,"x_min":31,"x_max":1200,"o":"m 1190 1181 l 894 1181 l 876 1139 l 1174 1139 l 1190 1181 m 686 451 q 746 483 746 451 q 639 542 746 519 q 545 569 592 553 q 474 618 499 585 q 450 692 450 651 q 554 872 450 793 q 740 965 640 939 q 940 990 839 990 q 1083 951 1040 990 q 1117 888 1117 922 q 1117 878 1117 883 q 1028 733 1106 789 q 947 699 989 704 q 900 678 906 694 q 915 669 899 669 q 956 675 931 669 q 1128 755 1057 697 q 1200 875 1200 813 q 1154 960 1200 919 q 910 1024 1081 1024 q 794 1013 863 1024 q 419 839 549 971 q 347 679 347 765 q 397 583 347 628 q 514 514 446 539 q 363 487 447 511 q 206 413 279 463 q 93 304 132 363 q 43 201 54 246 q 32 125 32 156 q 44 61 32 94 q 249 -118 92 -69 q 481 -146 338 -146 q 788 -96 624 -146 q 1059 39 951 -46 q 1167 201 1167 124 q 1104 288 1167 254 q 1065 297 1089 296 q 1044 286 1042 299 q 1079 269 1046 276 q 1113 229 1113 261 q 999 74 1113 163 q 753 -60 899 -4 q 476 -115 607 -115 q 267 -81 344 -115 q 160 8 190 -46 q 131 125 131 61 q 251 364 131 261 q 538 453 354 453 l 686 451 "},"":{"ha":342,"x_min":42,"x_max":513,"o":"m 140 214 q 225 233 169 214 q 311 275 281 251 q 411 435 411 351 q 388 478 411 458 q 333 494 363 494 q 272 481 304 494 q 154 392 206 453 q 73 262 103 332 q 43 129 43 192 q 82 31 43 67 q 176 -6 121 -6 q 351 92 281 -6 q 442 260 383 133 q 440 281 449 276 q 417 261 426 283 q 188 24 314 24 q 138 47 156 24 q 121 108 121 69 q 140 214 121 167 m 374 436 q 297 299 374 364 q 219 254 264 271 q 150 238 174 238 q 233 368 186 310 q 351 464 313 464 q 374 436 374 464 m 513 664 l 217 664 l 199 622 l 496 622 l 513 664 "},"":{"ha":1217,"x_min":31,"x_max":1200,"o":"m 686 453 q 746 485 746 453 q 639 544 746 521 q 545 570 592 554 q 474 619 499 586 q 450 693 450 653 q 554 875 450 794 q 740 966 640 940 q 940 992 839 992 q 1083 953 1040 992 q 1117 889 1117 924 q 1117 881 1117 885 q 1028 733 1106 790 q 947 701 989 706 q 900 679 906 696 q 915 671 899 671 q 956 676 931 671 q 1128 756 1057 699 q 1200 876 1200 814 q 1154 961 1200 921 q 910 1025 1081 1025 q 794 1014 863 1025 q 419 840 549 972 q 347 681 347 767 q 397 585 347 629 q 514 515 446 540 q 363 488 447 513 q 206 414 279 464 q 93 306 132 364 q 43 202 54 247 q 32 126 32 157 q 44 63 32 96 q 249 -117 92 -68 q 481 -144 338 -144 q 788 -94 624 -144 q 1059 40 951 -44 q 1167 203 1167 125 q 1104 289 1167 256 q 1065 299 1089 297 q 1044 288 1042 300 q 1079 270 1046 278 q 1113 231 1113 263 q 999 75 1113 164 q 753 -58 899 -3 q 476 -114 607 -114 q 267 -79 344 -114 q 160 9 190 -44 q 131 126 131 63 q 251 365 131 263 q 538 454 354 454 l 686 453 m 1061 1181 q 1017 1153 1039 1181 q 996 1103 996 1126 q 1024 1075 996 1075 q 1074 1097 1053 1075 q 1094 1139 1094 1118 q 1061 1181 1094 1181 "},"":{"ha":342,"x_min":42,"x_max":446,"o":"m 140 214 q 225 233 169 214 q 311 275 281 251 q 411 435 411 351 q 388 478 411 458 q 333 494 363 494 q 272 481 304 494 q 154 392 206 453 q 73 262 103 332 q 43 129 43 192 q 82 31 43 67 q 176 -6 121 -6 q 351 92 281 -6 q 415 201 383 133 q 446 274 446 268 q 440 281 446 279 q 417 261 426 283 q 188 24 314 24 q 138 47 156 24 q 121 108 121 69 q 140 214 121 167 m 374 436 q 297 299 374 364 q 219 254 264 271 q 150 238 174 238 q 233 368 186 310 q 351 464 313 464 q 374 436 374 464 m 408 711 q 365 684 386 711 q 343 633 343 657 q 372 606 343 606 q 421 627 400 606 q 442 669 442 649 q 408 711 442 711 "},"":{"ha":1217,"x_min":28,"x_max":1208,"o":"m 683 521 q 743 553 743 521 q 636 611 743 589 q 542 638 589 622 q 472 688 496 654 q 447 761 447 721 q 553 949 447 863 q 747 1052 642 1021 q 951 1083 853 1083 q 1092 1044 1050 1083 q 1125 981 1125 1015 q 1125 972 1125 976 q 1036 825 1114 882 q 956 792 997 797 q 908 771 914 788 q 923 763 907 763 q 964 768 939 763 q 1137 848 1065 790 q 1208 968 1208 906 q 1158 1056 1208 1013 q 993 1114 1108 1100 q 936 1117 965 1117 q 715 1083 843 1117 q 471 959 588 1049 q 344 757 354 869 q 344 749 344 753 q 393 653 344 697 q 511 583 442 608 q 360 556 444 581 q 203 482 276 532 q 90 374 129 432 q 40 270 51 315 q 29 194 29 225 q 42 131 29 164 q 246 -49 89 0 q 450 -76 335 -76 l 468 -76 q 338 -197 403 -119 q 272 -329 272 -275 q 344 -387 272 -387 q 422 -361 383 -387 q 467 -310 461 -335 q 465 -302 468 -304 q 453 -304 463 -300 q 382 -346 411 -346 q 342 -301 342 -346 q 394 -190 343 -256 q 506 -75 444 -124 q 811 -18 664 -67 q 1061 112 958 31 q 1164 271 1164 193 q 1101 357 1164 324 q 1063 367 1086 365 q 1042 356 1039 368 q 1076 338 1043 346 q 1110 299 1110 331 q 996 143 1110 232 q 750 10 896 65 q 473 -46 604 -46 q 265 -11 342 -46 q 158 77 188 24 q 128 194 128 131 q 249 433 128 331 q 535 522 351 522 l 683 521 "},"":{"ha":342,"x_min":42,"x_max":446,"o":"m 140 214 q 225 233 169 214 q 311 275 281 251 q 411 435 411 351 q 388 478 411 458 q 333 494 363 494 q 272 481 304 494 q 154 392 206 453 q 73 262 103 332 q 43 129 43 192 q 82 31 43 67 q 176 -6 121 -6 q 208 -3 189 -6 q 104 -114 150 -53 q 58 -221 58 -175 q 131 -279 58 -279 q 208 -253 169 -279 q 253 -201 247 -226 q 251 -194 254 -196 q 239 -196 249 -192 q 168 -237 197 -237 q 128 -194 128 -237 q 174 -89 129 -150 q 275 19 218 -28 q 331 65 296 31 q 355 95 342 76 q 375 126 368 114 q 394 160 382 138 q 411 193 407 183 q 427 228 415 203 q 442 261 439 254 q 446 274 446 268 q 440 281 446 279 q 417 261 426 283 q 188 24 314 24 q 138 47 156 24 q 121 108 121 69 q 140 214 121 167 m 374 436 q 297 299 374 364 q 219 254 264 271 q 150 238 174 238 q 233 368 186 310 q 351 464 313 464 q 374 436 374 464 "},"":{"ha":1217,"x_min":26,"x_max":1203,"o":"m 682 431 q 742 463 742 431 q 636 522 742 499 q 541 548 588 532 q 470 597 494 564 q 446 658 446 631 q 449 701 446 686 q 639 911 472 829 q 908 979 778 979 q 1081 940 1038 979 q 1114 876 1114 911 q 1114 867 1114 872 q 1025 722 1103 778 q 944 688 986 693 q 897 667 903 683 q 912 658 896 658 q 953 664 928 658 q 1126 744 1054 686 q 1197 864 1197 801 q 1151 949 1197 908 q 919 1013 1078 1013 q 706 982 829 1013 q 467 865 582 951 q 343 667 353 779 q 343 658 343 663 q 392 563 343 607 q 510 493 442 518 q 359 466 443 490 q 201 392 275 442 q 89 283 128 342 q 39 180 50 225 q 28 104 28 135 q 39 40 28 74 q 244 -139 88 -90 q 476 -167 333 -167 q 783 -117 619 -167 q 1055 18 947 -67 q 1163 181 1163 103 q 1100 267 1163 233 q 1061 276 1085 275 q 1040 265 1038 278 q 1075 248 1042 256 q 1108 208 1108 240 q 994 53 1108 142 q 749 -81 894 -25 q 472 -136 603 -136 q 263 -101 340 -136 q 156 -13 186 -67 q 126 104 126 40 q 247 343 126 240 q 533 432 350 432 l 682 431 m 1001 1090 l 943 1167 q 933 1174 939 1174 q 921 1173 926 1174 q 918 1167 915 1172 l 964 1053 q 976 1050 964 1050 q 1011 1053 989 1050 l 1200 1167 q 1201 1171 1201 1168 q 1189 1174 1201 1174 q 1168 1167 1176 1174 q 1001 1090 1151 1158 "},"":{"ha":342,"x_min":42,"x_max":607,"o":"m 140 214 q 225 233 169 214 q 311 275 281 251 q 411 435 411 351 q 388 478 411 458 q 333 494 363 494 q 272 481 304 494 q 154 392 206 453 q 73 262 103 332 q 43 129 43 192 q 82 31 43 67 q 176 -6 121 -6 q 351 92 281 -6 q 442 260 383 133 q 440 281 449 276 q 417 261 426 283 q 188 24 314 24 q 138 47 156 24 q 121 108 121 69 q 140 214 121 167 m 374 436 q 297 299 374 364 q 219 254 264 271 q 150 238 174 238 q 233 368 186 310 q 351 464 313 464 q 374 436 374 464 m 569 746 q 386 647 551 736 l 322 746 q 306 754 318 754 q 293 751 293 754 q 294 746 293 747 l 344 599 q 358 594 344 594 q 397 599 372 594 l 604 746 q 607 751 607 747 q 593 754 607 754 q 569 746 579 754 "},"":{"ha":1008,"x_min":-57,"x_max":1111,"o":"m 958 1178 l 793 1060 q 794 1054 792 1057 q 821 1060 810 1050 q 967 1139 835 1067 l 1018 1060 q 1035 1053 1022 1051 q 1040 1060 1043 1054 l 1000 1178 q 990 1181 1000 1181 q 958 1178 979 1181 m 181 632 q 107 319 107 469 q 149 127 107 211 q 278 14 192 43 q 556 28 385 -28 q 702 97 618 47 q 853 210 786 146 l 847 186 q 707 -156 810 18 q 406 -178 540 -158 q 151 -251 272 -197 q -46 -406 -8 -322 q -56 -444 -56 -426 q 46 -543 -56 -506 q 132 -556 81 -556 q 257 -536 183 -556 q 531 -408 390 -501 q 757 -192 672 -314 q 793 -192 776 -192 q 1069 -217 974 -192 q 1110 -211 1110 -226 q 1081 -192 1110 -199 q 776 -156 943 -157 q 906 88 860 -18 q 965 303 951 194 q 963 333 968 319 q 919 369 951 369 q 800 240 856 369 q 700 139 779 192 q 521 60 621 86 q 422 47 471 47 q 325 60 372 47 q 188 299 188 104 q 258 585 188 429 q 404 518 318 542 q 573 494 490 494 q 733 511 656 494 q 1018 681 932 553 q 1063 796 1063 744 q 1044 886 1063 847 q 832 1022 994 996 q 757 1028 796 1028 q 499 965 633 1028 q 228 721 322 883 q 201 671 208 688 q 138 842 138 750 q 192 997 138 921 q 199 1018 203 1013 q 176 1007 192 1025 q 100 819 100 917 q 181 632 100 722 m 788 988 q 838 983 814 988 q 1008 825 1008 956 q 938 679 1008 753 q 604 535 822 558 q 531 532 576 532 q 409 551 485 532 q 274 618 333 571 q 553 919 368 819 q 788 988 679 988 m 15 -454 q 128 -331 15 -403 q 429 -215 271 -239 q 685 -193 539 -197 q 381 -442 572 -354 q 131 -512 229 -512 q 82 -507 104 -512 q 15 -454 15 -493 "},"":{"ha":544,"x_min":-147,"x_max":647,"o":"m -17 -439 q 174 -368 78 -439 q 333 -204 269 -297 q 429 -17 396 -111 q 541 73 500 17 q 643 256 582 129 q 647 272 647 265 q 638 281 647 283 q 624 271 628 279 q 607 234 619 263 q 578 176 594 206 q 535 111 563 147 q 444 29 508 75 q 474 220 474 136 q 463 367 474 304 q 436 360 456 361 q 401 349 417 358 q 374 301 385 339 q 322 197 363 264 q 233 85 281 129 q 153 42 185 42 q 133 46 143 42 q 106 106 106 61 q 151 235 106 151 q 240 360 189 301 q 406 463 332 463 q 464 411 446 463 q 476 394 467 403 q 493 397 485 385 q 501 421 501 408 q 479 451 501 433 q 357 493 419 493 q 310 486 333 493 q 157 388 222 465 q 38 125 38 244 q 110 6 38 36 q 269 83 189 -17 q 376 246 338 167 q 379 208 379 233 q 343 -22 379 83 q 236 -60 310 -36 q -26 -172 76 -112 q -147 -332 -147 -243 q -17 -439 -147 -439 m -118 -358 q -111 -322 -118 -343 q -25 -212 -90 -256 q 281 -79 64 -154 l 329 -62 q 250 -203 301 -131 q 125 -339 182 -293 q 41 -387 92 -364 q -50 -411 -10 -411 q -118 -358 -118 -411 m 249 540 q 432 639 267 550 l 496 540 q 513 532 501 532 q 525 535 525 532 q 524 540 525 539 l 474 688 q 460 692 472 692 q 421 688 447 692 l 214 540 q 211 535 211 539 q 225 532 211 532 q 249 540 239 532 "},"":{"ha":1008,"x_min":-57,"x_max":1111,"o":"m 922 1071 q 1078 1167 1032 1071 q 1072 1177 1079 1172 q 1053 1168 1064 1182 q 1008 1123 1029 1136 q 942 1110 988 1110 q 868 1138 897 1110 q 850 1169 858 1147 q 840 1181 847 1181 q 822 1153 822 1181 q 858 1086 822 1104 q 922 1071 889 1071 m 181 632 q 107 319 107 469 q 149 127 107 211 q 278 14 192 43 q 556 28 385 -28 q 702 97 618 47 q 853 210 786 146 l 847 186 q 707 -156 810 18 q 406 -178 540 -158 q 151 -251 272 -197 q -46 -406 -8 -322 q -56 -444 -56 -426 q 46 -543 -56 -506 q 132 -556 81 -556 q 257 -536 183 -556 q 531 -408 390 -501 q 757 -192 672 -314 q 793 -192 776 -192 q 1069 -217 974 -192 q 1110 -211 1110 -226 q 1081 -192 1110 -199 q 776 -156 943 -157 q 906 88 860 -18 q 965 303 951 194 q 963 333 968 319 q 919 369 951 369 q 800 240 856 369 q 700 139 779 192 q 521 60 621 86 q 422 47 471 47 q 325 60 372 47 q 188 299 188 104 q 258 585 188 429 q 404 518 318 542 q 577 494 490 494 q 746 514 664 494 q 1011 690 935 560 q 1047 804 1047 751 q 1026 901 1047 857 q 810 1040 971 1014 q 742 1046 776 1046 q 492 976 621 1046 q 228 721 325 888 q 201 671 208 688 q 138 842 138 750 q 192 997 138 921 q 199 1018 203 1013 q 176 1007 192 1025 q 100 819 100 917 q 181 632 100 722 m 774 1004 q 815 1001 794 1004 q 988 871 961 978 q 993 829 993 850 q 928 682 993 756 q 531 532 796 532 q 409 551 485 532 q 274 618 333 571 q 544 929 368 819 q 774 1004 667 1004 m 15 -454 q 128 -331 15 -403 q 429 -215 271 -239 q 685 -193 539 -197 q 381 -442 572 -354 q 131 -512 229 -512 q 82 -507 104 -512 q 15 -454 15 -493 "},"":{"ha":544,"x_min":-147,"x_max":647,"o":"m -17 -439 q 174 -368 78 -439 q 333 -204 269 -297 q 429 -17 396 -111 q 541 73 500 17 q 643 256 582 129 q 647 272 647 265 q 638 281 647 283 q 624 271 628 279 q 607 234 619 263 q 578 176 594 206 q 535 111 563 147 q 444 29 508 75 q 474 220 474 136 q 463 367 474 304 q 436 360 456 361 q 401 349 417 358 q 374 301 385 339 q 322 197 363 264 q 233 85 281 129 q 153 42 185 42 q 133 46 143 42 q 106 106 106 61 q 151 235 106 151 q 240 360 189 301 q 406 463 332 463 q 464 411 446 463 q 476 394 467 403 q 493 397 485 385 q 501 421 501 408 q 479 451 501 433 q 357 493 419 493 q 310 486 333 493 q 157 388 222 465 q 38 125 38 244 q 110 6 38 36 q 269 83 189 -17 q 376 246 338 167 q 379 208 379 233 q 343 -22 379 83 q 236 -60 310 -36 q -26 -172 76 -112 q -147 -332 -147 -243 q -17 -439 -147 -439 m -118 -358 q -111 -322 -118 -343 q -25 -212 -90 -256 q 281 -79 64 -154 l 329 -62 q 250 -203 301 -131 q 125 -339 182 -293 q 41 -387 92 -364 q -50 -411 -10 -411 q -118 -358 -118 -411 m 603 747 q 600 754 603 751 q 572 746 586 764 q 539 706 551 718 q 501 683 526 694 q 426 672 475 672 q 342 707 378 672 q 327 729 333 715 q 317 752 321 743 q 307 761 313 761 q 283 726 283 761 q 331 644 283 668 q 422 625 368 625 q 528 657 476 625 q 603 747 603 706 "},"":{"ha":1008,"x_min":-57,"x_max":1111,"o":"m 181 632 q 107 319 107 469 q 149 127 107 211 q 278 14 192 43 q 556 28 385 -28 q 702 97 618 47 q 853 210 786 146 l 847 186 q 707 -156 810 18 q 406 -178 540 -158 q 151 -251 272 -197 q -46 -406 -8 -322 q -56 -444 -56 -426 q 46 -543 -56 -506 q 132 -556 81 -556 q 257 -536 183 -556 q 531 -408 390 -501 q 757 -192 672 -314 q 793 -192 776 -192 q 1069 -217 974 -192 q 1110 -211 1110 -226 q 1081 -192 1110 -199 q 776 -156 943 -157 q 906 88 860 -18 q 965 303 951 194 q 963 333 968 319 q 919 369 951 369 q 800 240 856 369 q 700 139 779 192 q 521 60 621 86 q 422 47 471 47 q 325 60 372 47 q 188 299 188 104 q 258 585 188 429 q 404 518 318 542 q 577 494 490 494 q 746 514 664 494 q 1011 690 935 560 q 1047 804 1047 751 q 1026 901 1047 857 q 810 1040 971 1014 q 742 1046 776 1046 q 492 976 621 1046 q 228 721 325 888 q 201 671 208 688 q 138 842 138 750 q 192 997 138 921 q 199 1018 203 1013 q 176 1007 192 1025 q 100 819 100 917 q 181 632 100 722 m 774 1004 q 815 1001 794 1004 q 988 871 961 978 q 993 829 993 850 q 928 682 993 756 q 531 532 796 532 q 409 551 485 532 q 274 618 333 571 q 544 929 368 819 q 774 1004 667 1004 m 15 -454 q 128 -331 15 -403 q 429 -215 271 -239 q 685 -193 539 -197 q 381 -442 572 -354 q 131 -512 229 -512 q 82 -507 104 -512 q 15 -454 15 -493 m 899 1181 q 863 1158 881 1181 q 846 1118 846 1136 q 869 1096 846 1096 q 908 1113 892 1096 q 925 1146 925 1129 q 899 1181 925 1181 "},"":{"ha":544,"x_min":-147,"x_max":647,"o":"m -17 -439 q 174 -368 78 -439 q 333 -204 269 -297 q 429 -17 396 -111 q 541 73 500 17 q 643 256 582 129 q 647 272 647 265 q 638 281 647 283 q 624 271 628 279 q 607 234 619 263 q 578 176 594 206 q 535 111 563 147 q 444 29 508 75 q 474 220 474 136 q 463 367 474 304 q 436 360 456 361 q 401 349 417 358 q 374 301 385 339 q 322 197 363 264 q 233 85 281 129 q 153 42 185 42 q 133 46 143 42 q 106 106 106 61 q 151 235 106 151 q 240 360 189 301 q 406 463 332 463 q 464 411 446 463 q 476 394 467 403 q 493 397 485 385 q 501 421 501 408 q 479 451 501 433 q 357 493 419 493 q 310 486 333 493 q 157 388 222 465 q 38 125 38 244 q 110 6 38 36 q 269 83 189 -17 q 376 246 338 167 q 379 208 379 233 q 343 -22 379 83 q 236 -60 310 -36 q -26 -172 76 -112 q -147 -332 -147 -243 q -17 -439 -147 -439 m -118 -358 q -111 -322 -118 -343 q -25 -212 -90 -256 q 281 -79 64 -154 l 329 -62 q 250 -203 301 -131 q 125 -339 182 -293 q 41 -387 92 -364 q -50 -411 -10 -411 q -118 -358 -118 -411 m 460 728 q 416 701 438 728 q 394 650 394 674 q 423 622 394 622 q 472 644 451 622 q 493 686 493 665 q 460 728 493 728 "},"":{"ha":776,"x_min":-57,"x_max":1111,"o":"m 492 -378 q 460 -390 475 -378 q 444 -419 446 -401 q 451 -448 442 -436 q 476 -460 461 -460 q 507 -450 492 -460 q 431 -536 499 -515 q 422 -546 421 -539 q 426 -549 424 -549 q 432 -547 429 -549 q 503 -502 471 -535 q 536 -424 536 -469 q 492 -378 536 -378 m 181 736 q 107 424 107 574 q 149 231 107 315 q 278 118 192 147 q 391 100 326 100 q 556 131 456 100 q 702 201 618 151 q 853 314 786 250 l 847 290 q 707 -51 810 122 q 406 -74 540 -54 q 151 -147 272 -93 q -46 -301 -8 -218 q -56 -340 -56 -322 q 46 -439 -56 -401 q 132 -451 81 -451 q 257 -433 183 -451 q 531 -303 390 -397 q 757 -87 672 -210 q 793 -87 776 -87 q 1069 -112 974 -87 q 1110 -107 1110 -122 q 1081 -87 1110 -94 q 776 -51 943 -53 q 906 192 860 86 q 965 407 951 299 q 963 438 968 424 q 919 474 951 474 q 800 344 856 474 q 700 243 779 296 q 521 164 621 190 q 422 150 471 150 q 325 164 372 150 q 188 403 188 208 q 258 689 188 533 q 404 622 318 646 q 577 599 490 599 q 746 618 664 599 q 1011 794 935 664 q 1047 908 1047 856 q 1026 1006 1047 961 q 810 1144 971 1118 q 742 1150 776 1150 q 492 1081 621 1150 q 228 825 325 992 q 201 775 208 792 q 138 946 138 854 q 192 1101 138 1025 q 199 1122 203 1117 q 176 1111 192 1129 q 100 924 100 1021 q 181 736 100 826 m 774 1108 q 815 1106 794 1108 q 988 975 961 1082 q 993 933 993 954 q 928 786 993 860 q 531 636 796 636 q 409 656 485 636 q 274 722 333 675 q 544 1033 368 924 q 774 1108 667 1108 m 15 -350 q 128 -226 15 -299 q 429 -111 271 -135 q 685 -89 539 -93 q 381 -339 572 -250 q 131 -408 229 -408 q 82 -403 104 -408 q 15 -350 15 -389 "},"":{"ha":544,"x_min":-147,"x_max":647,"o":"m -17 -439 q 174 -368 78 -439 q 333 -204 269 -297 q 429 -17 396 -111 q 541 73 500 17 q 643 256 582 129 q 647 272 647 265 q 638 281 647 283 q 624 271 628 279 q 607 234 619 263 q 578 176 594 206 q 535 111 563 147 q 444 29 508 75 q 474 220 474 136 q 463 367 474 304 q 436 360 456 361 q 401 349 417 358 q 374 301 385 339 q 322 197 363 264 q 233 85 281 129 q 153 42 185 42 q 133 46 143 42 q 106 106 106 61 q 151 235 106 151 q 240 360 189 301 q 406 463 332 463 q 464 411 446 463 q 476 394 467 403 q 493 397 485 385 q 501 421 501 408 q 479 451 501 433 q 357 493 419 493 q 310 486 333 493 q 157 388 222 465 q 38 125 38 244 q 110 6 38 36 q 269 83 189 -17 q 376 246 338 167 q 379 208 379 233 q 343 -22 379 83 q 236 -60 310 -36 q -26 -172 76 -112 q -147 -332 -147 -243 q -17 -439 -147 -439 m -118 -358 q -111 -322 -118 -343 q -25 -212 -90 -256 q 281 -79 64 -154 l 329 -62 q 250 -203 301 -131 q 125 -339 182 -293 q 41 -387 92 -364 q -50 -411 -10 -411 q -118 -358 -118 -411 m 365 658 q 380 616 365 633 q 418 599 394 599 q 460 613 442 599 q 481 649 478 628 q 472 686 483 671 q 440 701 460 701 q 403 689 421 701 q 497 797 411 768 q 508 807 508 800 q 504 813 508 813 q 496 811 500 813 q 406 754 447 794 q 365 658 365 714 "},"":{"ha":1918,"x_min":6,"x_max":2135,"o":"m 1842 724 q 1747 493 1775 574 q 1545 505 1710 493 q 1276 517 1381 517 q 1349 712 1281 526 q 1456 969 1418 897 q 1563 999 1506 969 q 1619 1072 1619 1028 q 1568 1115 1619 1115 q 1533 1109 1556 1115 q 1480 1065 1511 1103 q 1433 1000 1449 1026 q 1310 992 1393 996 q 1167 982 1226 988 q 1028 965 1108 976 q 890 932 949 954 q 774 876 832 910 q 676 786 715 842 q 624 677 638 731 q 611 582 611 624 q 633 494 611 540 q 742 386 668 418 q 819 369 781 369 q 897 383 858 369 q 1025 499 978 413 q 1053 589 1053 547 q 1036 667 1053 631 q 1019 678 1029 679 q 1015 662 1006 675 q 1024 623 1024 649 q 1000 533 1024 597 q 832 397 950 397 q 736 444 772 397 q 700 542 700 492 q 714 636 700 592 q 826 819 747 744 q 909 874 860 850 q 999 910 958 897 q 1100 933 1039 924 q 1203 947 1161 943 q 1311 957 1244 951 q 1414 967 1378 963 q 1211 517 1300 739 l 1157 517 q 1099 492 1132 514 q 1065 447 1065 471 q 1077 439 1067 439 q 1122 455 1088 439 q 1192 471 1156 471 q 529 -139 1000 -33 q 422 -150 479 -150 q 194 -101 292 -150 q 33 147 33 -19 q 92 335 33 254 q 178 414 136 396 q 190 422 185 417 q 192 430 194 426 q 175 433 189 433 q 80 376 138 432 q 6 257 22 321 q 8 29 -26 132 q 122 -134 42 -74 q 293 -216 203 -194 q 457 -237 383 -237 q 790 -150 632 -237 q 997 15 908 -83 q 1264 468 1179 215 q 1735 450 1675 450 q 1715 397 1733 446 q 1688 320 1697 349 q 1663 237 1679 292 q 1643 145 1647 182 q 1638 85 1639 108 q 1638 42 1638 63 q 1650 -4 1638 21 q 1739 -57 1675 -57 q 1853 -3 1796 -57 q 1930 92 1896 40 q 2015 253 1964 143 q 2016 282 2026 278 q 1994 263 2006 286 q 1821 11 1900 69 q 1778 -6 1797 -6 q 1741 14 1758 -6 q 1724 82 1724 33 q 1793 383 1724 168 q 1815 450 1814 447 q 1950 488 1904 456 q 1963 506 1968 500 q 1935 503 1958 511 q 1828 494 1913 494 q 1944 774 1878 642 q 2055 969 2011 906 q 2117 1042 2099 1033 q 2135 1056 2135 1051 q 2119 1060 2135 1060 q 2058 1044 2103 1060 q 1961 951 2013 1028 q 1876 799 1910 874 q 1842 724 1842 724 m 1869 1178 l 1710 1064 q 1715 1057 1706 1061 q 1738 1064 1725 1053 q 1878 1140 1751 1072 l 1928 1064 q 1942 1057 1932 1058 q 1949 1064 1951 1057 l 1911 1178 q 1900 1181 1911 1181 q 1869 1178 1889 1181 m 1550 1072 q 1554 1071 1553 1072 q 1569 1053 1568 1068 q 1481 1004 1571 1018 q 1550 1072 1533 1072 "},"":{"ha":461,"x_min":-56,"x_max":613,"o":"m 326 63 q 497 456 326 156 q 482 458 490 458 q 372 417 447 458 q 245 331 297 376 q 128 203 193 285 q 334 599 226 404 q 483 838 442 794 q 450 840 472 836 q 421 843 428 843 q 373 824 393 843 q 326 756 353 804 q -56 -10 208 539 q -8 -1 -46 -4 q 43 19 33 -1 q 238 294 138 203 q 328 357 304 357 q 351 342 351 357 q 336 303 351 328 q 260 158 274 203 q 246 83 246 114 q 258 33 246 51 q 328 -6 286 -6 q 403 19 369 -6 q 558 254 465 63 q 558 281 568 275 q 539 268 549 288 q 354 24 419 24 q 326 63 326 24 m 336 929 q 519 1028 354 939 l 583 929 q 600 921 588 921 q 613 924 613 921 q 611 929 613 928 l 561 1076 q 547 1081 561 1081 q 508 1076 533 1081 l 301 929 q 299 924 299 928 q 313 921 299 921 q 336 929 326 921 "},"":{"ha":1918,"x_min":6,"x_max":2174,"o":"m 1568 1115 q 1533 1109 1556 1115 q 1480 1065 1511 1103 q 1433 1000 1449 1026 q 1310 992 1393 996 q 1167 982 1226 988 q 1028 965 1108 976 q 890 932 949 954 q 774 876 832 910 q 676 786 715 842 q 624 677 638 731 q 611 582 611 624 q 633 494 611 540 q 742 386 668 418 q 819 369 781 369 q 897 383 858 369 q 1025 499 978 413 q 1053 589 1053 547 q 1036 667 1053 631 q 1019 678 1029 679 q 1015 662 1006 675 q 1024 623 1024 649 q 1000 533 1024 597 q 832 397 950 397 q 736 444 772 397 q 700 542 700 492 q 714 636 700 592 q 826 819 747 744 q 909 874 860 850 q 999 910 958 897 q 1100 933 1039 924 q 1203 947 1161 943 q 1311 957 1244 951 q 1414 967 1378 963 q 1329 789 1388 915 l 1042 789 l 1028 733 l 1303 733 q 1211 517 1258 635 l 1157 517 q 1099 492 1132 514 q 1065 447 1065 471 q 1077 439 1067 439 q 1122 455 1088 439 q 1192 471 1156 471 q 529 -139 1000 -33 q 422 -150 479 -150 q 194 -101 292 -150 q 33 147 33 -19 q 92 335 33 254 q 178 414 136 396 q 190 422 185 417 q 192 430 194 426 q 175 433 189 433 q 80 376 138 432 q 6 257 22 321 q 8 29 -26 132 q 122 -134 42 -74 q 293 -216 203 -194 q 457 -237 383 -237 q 790 -150 632 -237 q 997 15 908 -83 q 1264 468 1179 215 q 1735 450 1675 450 q 1715 397 1733 446 q 1688 320 1697 349 q 1663 237 1679 292 q 1643 145 1647 182 q 1638 85 1639 108 q 1638 42 1638 63 q 1650 -4 1638 21 q 1739 -57 1675 -57 q 1853 -3 1796 -57 q 1930 92 1896 40 q 2015 253 1964 143 q 2016 282 2026 278 q 1994 263 2006 286 q 1821 11 1900 69 q 1778 -6 1797 -6 q 1741 14 1758 -6 q 1724 82 1724 33 q 1793 383 1724 168 q 1815 450 1814 447 q 1950 488 1904 456 q 1963 506 1968 500 q 1935 503 1958 511 q 1828 494 1913 494 q 1925 733 1869 614 l 2161 733 l 2174 789 l 1951 789 q 2051 963 2004 893 q 2115 1042 2099 1033 q 2129 1050 2119 1044 q 2134 1058 2139 1056 q 2116 1060 2129 1060 q 2050 1040 2103 1060 q 1872 789 1981 1017 l 1378 789 q 1456 969 1424 907 q 1563 999 1506 969 q 1619 1072 1619 1028 q 1568 1115 1619 1115 m 1747 493 q 1545 505 1710 493 q 1276 517 1381 517 l 1357 733 l 1846 733 q 1747 493 1775 575 m 1550 1072 q 1554 1071 1553 1072 q 1569 1053 1568 1068 q 1481 1004 1571 1018 q 1550 1072 1533 1072 "}}}
